<svg width="35" height="46" viewBox="0 0 35 46" fill="none" xmlns="http://www.w3.org/2000/svg">
<path d="M31.4495 46H3.09129L2.71715 45.8561C1.94016 45.6162 1.25945 45.1358 0.773208 44.484C0.28697 43.8323 0.0203477 43.0428 0.0117979 42.2297C0.0117979 34.2864 0.0117979 26.343 0.0117979 18.3996C-0.0123479 18.2425 0.000683078 18.0819 0.0498431 17.9307C0.0990032 17.7796 0.182924 17.6419 0.294869 17.5291C0.406813 17.4162 0.543656 17.3312 0.694424 17.2808C0.845193 17.2304 1.00568 17.216 1.16301 17.2389C1.88252 17.2389 2.60202 17.2389 3.32153 17.2389C3.6669 17.2389 3.8012 17.1142 3.8012 16.7592C3.8012 16.0877 3.8012 15.4161 3.8012 14.7446C3.76548 13.4141 3.86513 12.0833 4.09861 10.7729C4.76947 7.45002 6.67205 4.50374 9.42465 2.52515C12.1772 0.546552 15.5762 -0.317983 18.9397 0.105004C20.9336 0.327599 22.8497 1.00567 24.5398 2.08693C26.2299 3.16819 27.6487 4.62367 28.6866 6.34074C30.0781 8.56106 30.7977 11.1364 30.7588 13.7565C30.7588 14.7158 30.7588 15.7615 30.7588 16.7592C30.7588 17.1142 30.8931 17.2485 31.2385 17.2389C31.8812 17.2389 32.524 17.2389 33.1571 17.2389C34.2508 17.2389 34.5386 17.5362 34.5386 18.6203V39.3134C34.5386 40.2727 34.5386 41.232 34.5386 42.2681C34.5208 43.1139 34.224 43.9301 33.6944 44.5898C33.1083 45.2788 32.3247 45.7711 31.4495 46ZM17.2704 17.2197H24.36C24.7533 17.2197 24.8972 17.0853 24.878 16.7016C24.878 16.1644 24.878 15.6176 24.878 15.0804C24.9275 14.0522 24.8858 13.0216 24.7533 12.0008C24.4156 10.2342 23.4623 8.64476 22.0628 7.5151C20.6633 6.38543 18.9085 5.78885 17.1105 5.83144C15.3125 5.87403 13.5878 6.55312 12.2434 7.74779C10.899 8.94245 10.022 10.5752 9.76833 12.3557C9.66764 13.7732 9.63882 15.1949 9.68199 16.6153C9.68199 17.2005 9.68199 17.2101 10.2864 17.2101L17.2704 17.2197ZM17.2704 38.2389H18.9301C19.7935 38.2389 20.1197 37.9128 20.0429 37.0494C19.8894 35.476 19.7263 33.9027 19.5345 32.3293C19.5004 32.1795 19.5084 32.0232 19.5574 31.8777C19.6065 31.7321 19.6949 31.6029 19.8127 31.5043C20.2168 31.1458 20.5353 30.7009 20.7445 30.2028C20.9537 29.7046 21.0484 29.1659 21.0214 28.6263C20.9921 27.8133 20.6991 27.0319 20.1869 26.3998C19.6746 25.7678 18.9708 25.3195 18.1814 25.1224C17.3921 24.9254 16.5601 24.9903 15.8109 25.3073C15.0617 25.6244 14.4359 26.1764 14.0278 26.8802C13.5852 27.6202 13.4139 28.4913 13.5435 29.3438C13.673 30.1963 14.0953 30.9771 14.7377 31.5522C14.9104 31.7153 15.0831 31.8688 15.0447 32.1566C14.9584 32.7418 14.9008 33.3367 14.8337 33.9315C14.7185 35.0156 14.5842 36.0995 14.4979 37.1836C14.4403 37.9127 14.7665 38.258 15.4572 38.2676L17.2704 38.2389Z" fill="#ECCD7A"/>
</svg>
