<svg width="96" height="82" viewBox="0 0 96 82" fill="none" xmlns="http://www.w3.org/2000/svg">
<mask id="mask0_2185_100" style="mask-type:alpha" maskUnits="userSpaceOnUse" x="0" y="0" width="96" height="82">
<path d="M95.5084 39.9219C95.4636 39.7656 95.3676 39.6285 95.2354 39.5321C95.1033 39.4357 94.9425 39.3856 94.7784 39.3895C94.6672 39.3903 94.557 39.4097 94.4524 39.4469C94.1845 39.5274 93.9079 39.5759 93.6284 39.5914C93.2657 39.6152 92.9072 39.6816 92.5604 39.7893C91.5605 40.1297 90.4925 40.3989 89.4685 40.6602C88.8405 40.8205 88.1926 40.9848 87.5546 41.1668C87.1726 41.2757 86.7866 41.3648 86.3786 41.4518C85.7748 41.5743 85.179 41.7329 84.5947 41.9268C84.1547 42.0812 83.7047 42.196 83.2307 42.3227C82.7567 42.4493 82.2307 42.582 81.7187 42.7621C81.7187 41.8457 81.6567 40.9254 81.6027 40.0347C81.5847 39.7398 81.5667 39.441 81.5507 39.1481C81.4665 37.7058 81.1894 36.2809 80.7268 34.9107C80.6668 34.7325 80.6128 34.5485 80.5588 34.3545C80.4379 33.8709 80.2642 33.4017 80.0408 32.9552C79.8828 32.6623 79.9208 32.3615 80.1348 32.2071C80.2848 32.0983 80.4268 31.9835 80.5628 31.8706C80.7383 31.7203 80.924 31.5821 81.1188 31.457C81.9647 30.925 82.7824 30.3503 83.5687 29.7351C84.1827 29.272 84.8167 28.7911 85.4646 28.3675C87.2377 27.2004 88.9307 25.9184 90.5325 24.5299C91.3648 23.7975 92.1397 23.0035 92.8504 22.1549L93.2084 21.7373L92.8084 21.3414C92.7348 21.2628 92.6457 21.1998 92.5467 21.1563C92.4477 21.1127 92.3408 21.0895 92.2324 21.0881C92.119 21.0884 92.007 21.1134 91.9045 21.1613C90.7765 21.67 89.8205 22.4122 88.9045 23.1286L88.7925 23.2157C87.7926 23.9955 86.7486 24.7238 85.6886 25.4621C85.1646 25.8282 84.6387 26.2063 84.1307 26.5724C83.2027 27.2414 82.2427 27.9341 81.2688 28.5516C80.6688 28.9296 80.1228 29.3591 79.5848 29.7747L79.0928 30.1527C78.9931 29.9775 78.9043 29.7964 78.8268 29.6104C78.7207 29.349 78.5915 29.0974 78.4408 28.8584L78.1668 28.4427C77.467 27.3297 76.7024 26.2578 75.8769 25.2325C75.5986 24.9143 75.2993 24.6148 74.9809 24.3359C74.6308 24.0391 74.3125 23.7075 74.0309 23.3463L74.0189 23.3266C74.4189 22.713 74.8649 22.1113 75.2989 21.5275L75.4169 21.3711C76.0429 20.528 76.7309 19.6789 77.4588 18.8417C77.9188 18.3133 78.3388 17.7532 78.7428 17.2129C79.2434 16.5117 79.7885 15.8427 80.3748 15.21C81.3467 14.2026 81.9287 12.9418 82.4907 11.7207L82.7667 11.1269C82.8603 10.9502 82.8874 10.7462 82.8431 10.5515C82.7987 10.3568 82.6859 10.184 82.5247 10.0641C82.3752 9.94956 82.1918 9.88696 82.0027 9.88598C81.8702 9.88773 81.7398 9.91887 81.6211 9.97709C81.5024 10.0353 81.3984 10.1192 81.3167 10.2224C81.2607 10.2897 81.2047 10.3531 81.1487 10.4204C80.941 10.6458 80.7555 10.8903 80.5948 11.1507C80.0769 11.9925 79.4845 12.7873 78.8248 13.5257C78.6448 13.7375 78.4668 13.9492 78.2928 14.163C77.8308 14.7251 77.3828 15.3089 76.9489 15.873C76.3209 16.6924 75.6709 17.5394 74.9789 18.3212C74.3349 19.0456 73.7589 19.8293 73.201 20.5894C72.937 20.9456 72.667 21.3137 72.401 21.668C72.3523 21.7368 72.2937 21.7981 72.227 21.8501C72.1712 21.8057 72.1221 21.7537 72.081 21.6957C71.215 20.5814 70.071 19.8907 68.9651 19.2198C68.6711 19.0436 68.3651 18.8576 68.0771 18.6715C67.0028 17.9432 65.8272 17.3731 64.5872 16.9793C64.5001 16.9565 64.4162 16.9233 64.3372 16.8804C64.3582 16.7887 64.3898 16.6997 64.4312 16.6152C64.7223 15.9617 64.9793 15.2938 65.2012 14.6142C65.2712 14.4163 65.3392 14.2184 65.4012 14.0205C65.6012 13.4544 65.8312 12.8805 66.0512 12.3263C66.3151 11.6573 66.5891 10.9646 66.8291 10.262C66.9511 9.90775 67.0491 9.54952 67.1451 9.20514C67.2311 8.89441 67.3131 8.59951 67.4091 8.30857C67.5705 7.77001 67.6829 7.21827 67.7451 6.65992C67.7711 6.47982 67.7971 6.29774 67.8271 6.11763C67.9571 5.32596 67.4271 5.12804 67.2651 5.08252C67.1942 5.06273 67.1208 5.05275 67.0471 5.05283C66.878 5.05832 66.7138 5.11004 66.5726 5.20227C66.4314 5.2945 66.3187 5.42362 66.2471 5.57533C66.1419 5.75185 66.065 5.94347 66.0192 6.14336C65.8835 6.68531 65.6932 7.21244 65.4512 7.7168C65.3712 7.90482 65.2892 8.09086 65.2132 8.27691C65.0652 8.64107 64.9312 9.01316 64.8012 9.37139C64.5804 10.0442 64.3062 10.6987 63.9812 11.3288C63.7856 11.7186 63.6436 12.1327 63.5592 12.5598C63.5076 12.7908 63.4407 13.0183 63.3592 13.2407C63.2292 13.589 63.0912 13.9373 62.9592 14.2837C62.7432 14.826 62.5213 15.3881 62.3253 15.9541C62.3092 15.9997 62.2898 16.044 62.2673 16.0867C62.2407 16.0816 62.2146 16.0744 62.1893 16.065C61.5397 15.8582 60.8778 15.6917 60.2073 15.5662C59.6233 15.4547 59.0458 15.312 58.4774 15.1387C57.5447 14.8487 56.5765 14.6855 55.5994 14.6538C55.2894 14.6419 55.2455 14.541 55.2315 14.5093C54.8595 13.6603 54.4535 12.8152 54.0595 11.9978C53.5255 10.8894 52.9735 9.74348 52.5115 8.5916L52.4715 8.49066C52.2715 7.98201 52.0395 7.40607 51.5336 6.9469C51.4596 6.87763 51.4335 6.71929 51.4115 6.45211C51.39 6.00059 51.4108 5.54806 51.4735 5.10033C51.573 4.45265 51.579 3.79428 51.4916 3.14491C51.4434 2.73873 51.4508 2.32798 51.5135 1.92376C51.5375 1.6823 51.5635 1.4349 51.5715 1.17959V1.13209C51.6135 0.21771 51.0876 0.0296876 50.7716 0H50.6636C50.4196 0 49.8476 0.093019 49.7956 0.944064C49.7956 0.971773 49.7956 0.999484 49.7956 1.02126C49.7454 1.28811 49.7339 1.56068 49.7616 1.83074C49.7808 1.99181 49.7808 2.15456 49.7616 2.31563C49.7016 2.6422 49.6296 2.97865 49.5616 3.30522C49.3356 4.35616 49.1056 5.44075 49.1736 6.58867C49.1631 6.78394 49.1149 6.97542 49.0316 7.15274L49.0036 7.22795C48.7872 7.77363 48.5305 8.30284 48.2356 8.81129C47.9421 9.32254 47.6809 9.85133 47.4537 10.3946C46.9603 11.5751 46.4049 12.7292 45.7897 13.8522C45.5617 14.2877 45.4477 14.3609 45.2817 14.3629C44.0238 14.3629 42.8358 14.6756 41.6818 14.9764L41.2518 15.0892C41.0898 15.1308 40.9238 15.1684 40.7578 15.206C40.1237 15.3267 39.5084 15.5297 38.9279 15.8097C38.8599 15.6454 38.7859 15.489 38.7139 15.3366C38.5886 15.0903 38.4842 14.8341 38.4019 14.5707L38.2959 14.1749C38.0097 13.0255 37.6605 11.8924 37.2499 10.7806C37.0499 10.2422 36.8339 9.69993 36.63 9.15764C36.366 8.46097 36.092 7.73857 35.81 7.03201C35.382 5.95534 34.926 4.87273 34.486 3.82574L34.328 3.45168C34.114 2.94501 33.798 2.68772 33.39 2.68772C33.2689 2.68777 33.149 2.7127 33.038 2.76095C32.5181 2.97865 32.4161 3.59022 32.5841 4.08106C32.9061 5.02315 33.222 5.94544 33.556 6.86576C33.836 7.62972 34.104 8.41545 34.356 9.17545L34.388 9.26847C34.576 9.81868 34.744 10.3926 34.908 10.9468C35.132 11.7048 35.362 12.4906 35.654 13.2565L35.678 13.3238C36.0983 14.3469 36.4367 15.4011 36.69 16.4766C36.7107 16.5574 36.7195 16.6408 36.716 16.724C36.6156 16.7847 36.5052 16.8275 36.39 16.8507C35.6314 17.0715 34.9112 17.4052 34.254 17.8403C33.8362 18.1 33.3982 18.3263 32.9441 18.5172C32.3736 18.755 31.8283 19.048 31.3161 19.392C31.0701 19.5661 30.7941 19.7264 30.5001 19.8947C30.2641 20.0312 30.0201 20.1737 29.7861 20.3261C28.738 21.0016 27.781 21.8064 26.9382 22.7209L26.8942 22.6853C26.7828 22.5733 26.6872 22.4468 26.6102 22.3093C26.5 22.122 26.3699 21.9468 26.2222 21.7868C25.7465 21.2849 25.3004 20.7562 24.8863 20.2034C24.5683 19.7937 24.2383 19.3722 23.8863 18.9704C23.4083 18.4261 22.9403 17.8541 22.4863 17.3C21.5815 16.1473 20.6014 15.0545 19.5524 14.0284C18.8544 13.3753 18.1705 12.6727 17.5085 11.9938C17.2025 11.6791 16.8965 11.3644 16.5885 11.0537L16.5525 11.0141C16.4686 10.9073 16.3625 10.8195 16.2414 10.7566C16.1203 10.6938 15.987 10.6574 15.8505 10.6499C15.6583 10.6527 15.4734 10.7228 15.3285 10.8479C15.2388 10.9184 15.1646 11.0065 15.1106 11.1066C15.0565 11.2067 15.0239 11.3166 15.0145 11.4297C15.0123 11.5746 15.0405 11.7184 15.0973 11.8519C15.1541 11.9855 15.2383 12.1059 15.3445 12.2056C15.4725 12.3481 15.6065 12.4866 15.7445 12.6271C16.0147 12.8876 16.2603 13.1718 16.4785 13.4762C16.8799 14.0569 17.3202 14.6104 17.7965 15.1328C18.0785 15.4554 18.3425 15.7582 18.5964 16.0788C19.1764 16.819 19.7964 17.5414 20.3844 18.2421C20.7844 18.7091 21.1844 19.1921 21.5844 19.671C21.9404 20.1045 22.2903 20.5419 22.6423 20.9812C23.4743 22.0203 24.3343 23.093 25.2423 24.1063L25.2883 24.1618C24.7109 24.7567 24.1838 25.3974 23.7123 26.0776C23.5123 26.3428 23.3123 26.6179 23.1123 26.8693C22.6403 27.4749 22.1863 28.1023 21.7464 28.7079L21.6644 28.8227C21.0294 29.7284 20.4613 30.6783 19.9644 31.6648C19.4084 31.2993 18.8544 30.9299 18.3024 30.5565L17.0425 29.7114C16.2038 29.1519 15.3679 28.5912 14.5346 28.0291C14.0706 27.7164 13.6106 27.3997 13.1506 27.083C12.1806 26.416 11.1786 25.7273 10.1507 25.086C9.19269 24.4923 8.19272 23.9282 7.22474 23.3919C6.86875 23.1953 6.51344 22.9974 6.15878 22.7981C5.85737 22.6334 5.54764 22.4841 5.2308 22.3508C5.1049 22.2955 4.96858 22.2672 4.83081 22.2677C4.70329 22.2677 4.57709 22.2933 4.45986 22.3429C4.34264 22.3926 4.23682 22.4653 4.14883 22.5567C4.06833 22.6418 4.00849 22.744 3.97384 22.8554C3.93919 22.9669 3.93063 23.0847 3.94883 23.1999C3.96688 23.3112 4.01102 23.4168 4.0777 23.5082C4.14437 23.5996 4.23175 23.6743 4.33283 23.7264C4.41832 23.7879 4.49385 23.862 4.55682 23.946C4.69388 24.1211 4.85949 24.2722 5.04681 24.3933C6.50677 25.284 7.93872 26.2795 9.32268 27.2414L9.39868 27.2928C9.93867 27.6689 10.4927 28.039 11.0266 28.3972C11.4026 28.6486 11.7766 28.8999 12.1506 29.1552C12.5246 29.4105 12.9126 29.6777 13.2906 29.9469C13.8906 30.3625 14.5065 30.79 15.1245 31.2017C16.4965 32.1121 17.8405 32.9711 18.9744 33.6935C18.8911 33.967 18.8243 34.2453 18.7744 34.5267C18.7318 34.8089 18.6649 35.087 18.5744 35.358C18.4058 35.8216 18.2629 36.294 18.1465 36.7731C18.1045 36.9334 18.0625 37.0937 18.0185 37.252C17.8154 38.0554 17.6816 38.8745 17.6185 39.7003C17.5631 40.551 17.417 41.3935 17.1825 42.2138L16.2985 41.9526C14.8025 41.5152 13.2986 41.0758 11.8126 40.6443C10.8306 40.3613 9.83268 40.0842 8.8667 39.817L7.96072 39.5657C7.06875 39.3183 5.88879 39.0016 4.67082 38.7582C3.99884 38.6236 3.31685 38.4633 2.65487 38.3089C2.22488 38.208 1.79489 38.111 1.3629 38.0101C1.24229 37.9819 1.11885 37.9673 0.994919 37.9665C0.789077 37.9561 0.585468 38.0128 0.41532 38.128C0.245173 38.2431 0.117875 38.4102 0.0529398 38.6038C-0.0450575 38.8967 -0.0930548 39.439 0.716923 39.7913L0.774917 39.8151C0.96942 39.9086 1.17603 39.9752 1.3889 40.013C2.25358 40.1712 3.10473 40.3949 3.93484 40.6819C4.50683 40.864 5.1008 41.052 5.70279 41.1985C6.24877 41.3331 6.80275 41.5033 7.33674 41.6676C7.79273 41.8081 8.26271 41.9526 8.7367 42.0773C8.9087 42.1228 9.0807 42.1643 9.25669 42.2039C9.63452 42.2814 10.0051 42.3899 10.3647 42.5285C11.1652 42.8518 11.9888 43.1164 12.8286 43.3202H12.8546C13.2686 43.429 13.6746 43.5696 14.1026 43.716C14.7885 43.9741 15.4958 44.1728 16.2165 44.3098C16.9225 44.4226 17.0545 44.6047 17.1005 45.527C17.2165 47.902 17.8385 50.1939 18.4384 52.4184L18.5344 52.7787C18.709 53.3686 18.931 53.9437 19.1984 54.4986C19.5123 55.1206 19.7449 55.7797 19.8904 56.4599C19.9185 56.6025 19.9771 56.7375 20.0624 56.8558L20.0844 56.8894C20.1724 57.0873 20.2664 57.2714 20.3584 57.4614C20.5696 57.8733 20.7566 58.2968 20.9184 58.73C20.9404 58.7934 20.9904 58.9378 21.0264 59.0586C20.9024 59.0883 20.7504 59.116 20.6664 59.1318C20.4544 59.1734 20.2524 59.2268 20.0664 59.2803L16.8665 60.1333C16.5805 60.2105 16.2905 60.2797 16.0005 60.349C15.3405 60.4922 14.69 60.6753 14.0526 60.8972C13.1537 61.2099 12.2384 61.4742 11.3106 61.6889C10.6186 61.8631 9.91068 62.0432 9.20469 62.2648C8.20601 62.5838 7.18802 62.8403 6.15678 63.0328L6.04877 63.0486C5.78678 63.0822 5.3948 63.1357 5.1668 63.4603C5.10456 63.5512 5.06211 63.6539 5.04214 63.7619C5.02217 63.8699 5.02511 63.9808 5.0508 64.0877C5.0868 64.246 5.2648 64.7705 6.00878 64.7705C6.14273 64.7683 6.27637 64.757 6.40877 64.7368L6.51276 64.723C6.57697 64.7153 6.6405 64.7027 6.70276 64.6854H6.73477C7.23075 64.5785 7.72474 64.4657 8.22072 64.3509C9.2967 64.1055 10.4207 63.8502 11.5066 63.6701C13.3306 63.3692 15.1325 62.916 16.8745 62.4826C17.3305 62.3678 17.7845 62.253 18.2384 62.1421C18.4584 62.0867 18.6804 62.0333 18.9004 61.9818C19.8064 61.7641 20.7404 61.5385 21.6524 61.2238C21.6252 61.2758 21.6012 61.3293 21.5804 61.3841C21.2305 62.2529 20.8298 63.1007 20.3804 63.9234C20.2124 64.244 20.0444 64.5627 19.8844 64.8853C19.6524 65.3444 19.4191 65.8029 19.1844 66.2608C18.6784 67.2504 18.1565 68.2677 17.6785 69.2909C17.3905 69.9124 17.0465 70.5279 16.7145 71.1236C16.2543 71.9184 15.8416 72.7392 15.4785 73.5818C15.2697 74.0888 15.0334 74.5843 14.7705 75.0661L14.5706 75.4422C14.0826 76.317 13.5806 77.2234 13.3286 78.2566C13.2861 78.4714 13.1959 78.6742 13.0646 78.8503C12.5306 79.547 12.3766 80.1764 12.6066 80.7207C12.8366 81.2649 13.4066 81.6073 14.3086 81.7241C14.4491 81.7431 14.5907 81.7524 14.7325 81.7518H14.8425C15.5745 81.7261 16.3345 81.7142 17.1625 81.7142C17.9305 81.7142 18.7624 81.7142 19.7184 81.7478C21.7184 81.7973 23.8083 81.8231 25.9622 81.827H28.8242C29.7641 81.827 30.8801 81.827 32.0241 81.8488C34.024 81.8864 36.024 81.9042 38.0019 81.9042C39.0859 81.9042 40.1799 81.9042 41.2558 81.8884H41.3418C41.7238 81.8884 42.1038 81.9141 42.5058 81.9398C42.9078 81.9656 43.3258 81.9913 43.7458 81.9913C44.1172 81.9936 44.4883 81.9678 44.8557 81.9141C45.1376 81.8855 45.4104 81.7993 45.6569 81.661C45.9034 81.5227 46.1182 81.3352 46.2877 81.1106C46.4997 80.8097 46.7177 80.2813 46.5537 79.4777L46.5217 79.3253C46.4773 79.1508 46.4499 78.9726 46.4397 78.7929C46.4117 76.9068 46.2897 74.9989 46.1737 73.1543C46.0937 71.8935 46.0117 70.5813 45.9597 69.3068V69.2593C45.9417 68.7684 45.9157 68.0975 45.3477 67.6324L45.3117 67.5987C45.3237 67.571 45.3457 67.5255 45.3877 67.4503C45.4077 67.4166 45.4337 67.385 45.4557 67.3533C45.5593 67.2244 45.6404 67.0792 45.6957 66.9238C45.9853 66.1036 46.3446 65.3091 46.7697 64.5488C46.9077 64.2876 47.0437 64.0263 47.1697 63.7571C47.3257 63.4444 47.4757 63.1278 47.6237 62.8111L47.8716 62.2866V62.3579C47.8716 62.7953 47.8716 63.2307 47.8896 63.6681C47.8896 63.866 47.9096 64.0461 47.9256 64.2262C47.9546 64.4632 47.9633 64.7022 47.9516 64.9407C47.8719 66.1982 47.8887 67.4599 48.0016 68.715C48.0476 69.3958 48.0936 70.1004 48.1036 70.7832C48.1276 72.3369 48.2156 73.9103 48.3036 75.4303C48.3436 76.1349 48.3836 76.8395 48.4156 77.5441C48.4156 77.6391 48.4156 77.742 48.4156 77.8291C48.3997 78.1629 48.4382 78.497 48.5296 78.8187C48.5296 78.8464 48.5456 78.8741 48.5536 78.9038C48.6956 79.4579 48.9996 79.739 49.4596 79.739H49.5196C50.2216 79.6954 50.3696 79.0265 50.4196 78.8048L50.4316 78.7454C50.5121 78.3548 50.5483 77.9565 50.5396 77.5579C50.5396 77.3323 50.5396 77.1205 50.5656 76.9167C50.8576 74.1458 51.0556 71.1969 51.1896 67.6264C51.2096 67.0742 51.2456 66.5102 51.2816 65.9639C51.3276 65.2237 51.3756 64.4677 51.3896 63.7057L51.6475 64.2994C52.1595 65.4869 52.6915 66.7121 53.2475 67.9095C53.7235 68.9465 53.8475 69.8253 53.6615 70.7535C53.5795 71.1494 53.4835 71.5729 53.3915 71.9727C53.1185 73.0462 52.9273 74.1385 52.8195 75.2403C52.8011 75.4232 52.769 75.6044 52.7235 75.7826C52.7008 75.8763 52.6809 75.9693 52.6635 76.0617C52.5815 76.4674 52.5015 76.8712 52.4195 77.2749C52.2315 78.2051 52.0375 79.165 51.8615 80.117C51.7495 80.7305 51.8615 81.5183 53.0215 81.7894C53.4672 81.888 53.9229 81.9351 54.3795 81.9299C54.7995 81.9299 55.2175 81.9002 55.6194 81.8686C56.0214 81.8369 56.3974 81.8112 56.7754 81.8112C56.9314 81.8112 57.0754 81.8112 57.2114 81.825C57.4334 81.8409 57.6614 81.8488 57.9074 81.8488C58.4594 81.8488 59.0133 81.8092 59.5493 81.7716C59.9913 81.7399 60.4473 81.7063 60.8873 81.6984C63.5052 81.6469 66.1672 81.6113 68.7411 81.5776L70.1311 81.5578H70.531C70.831 81.5578 71.131 81.5578 71.433 81.5578C71.735 81.5578 72.045 81.5578 72.351 81.5578C73.069 81.5578 73.6189 81.5361 74.1349 81.4866C75.0889 81.3975 76.0709 81.3936 77.0189 81.3876C77.6728 81.3876 78.3468 81.3876 79.0188 81.352C79.6908 81.3164 80.3448 81.3184 80.9967 81.3144C82.1776 81.3317 83.3585 81.2775 84.5327 81.1521C85.2606 81.0611 85.7606 80.78 86.0206 80.3209C86.2806 79.8617 86.2566 79.2699 85.9426 78.5851C85.8526 78.3872 85.7546 78.2111 85.6606 78.0349C85.5238 77.7968 85.4055 77.5486 85.3066 77.2927C84.9857 76.4244 84.5986 75.5815 84.1487 74.7713C83.8787 74.2567 83.6007 73.7243 83.3667 73.1879C83.0727 72.513 82.7447 71.846 82.4267 71.2087C82.1267 70.5952 81.8147 69.9619 81.5367 69.3325C81.4418 69.1321 81.3286 68.9407 81.1987 68.7605C81.083 68.6127 80.9931 68.4468 80.9328 68.2697C80.7799 67.6843 80.5485 67.1219 80.2448 66.5973C79.7548 65.6928 79.2888 64.7507 78.8448 63.8423C78.6008 63.3494 78.3568 62.8527 78.1068 62.3678C78.0848 62.3242 78.0628 62.2827 78.0388 62.2431L78.0648 62.253L78.2228 62.3163C79.3189 62.7299 80.4364 63.0853 81.5707 63.3811C82.9587 63.7492 84.3707 64.0679 85.7526 64.3707L87.0006 64.6537C87.1547 64.6843 87.3114 64.7009 87.4686 64.7032C87.5526 64.7017 87.6364 64.7096 87.7186 64.7269C88.4962 64.997 89.3007 65.1842 90.1185 65.2851C90.6373 65.3588 91.1519 65.4585 91.6605 65.5839C91.7387 65.605 91.8194 65.6157 91.9005 65.6156C92.0634 65.6187 92.2234 65.5714 92.3578 65.4802C92.4923 65.389 92.5946 65.2585 92.6504 65.1069C92.6884 65.0098 92.7058 64.9061 92.7017 64.8021C92.6976 64.6981 92.672 64.596 92.6264 64.5021C92.5809 64.4083 92.5164 64.3247 92.4369 64.2565C92.3575 64.1882 92.2647 64.1369 92.1645 64.1055L92.0325 64.052C91.8213 63.9606 91.6041 63.8832 91.3825 63.8205C90.6965 63.6423 89.9985 63.4484 89.3245 63.2604C88.4645 63.0209 87.5746 62.7735 86.6866 62.5518C86.0506 62.3935 85.4346 62.1936 84.7807 61.9838C84.0927 61.7602 83.3807 61.5306 82.6507 61.3544C81.6507 61.1149 80.6388 60.7923 79.6628 60.4816C79.1968 60.3332 78.7148 60.1788 78.2348 60.0343C78.6702 59.1489 79.0457 58.2358 79.3588 57.3011C79.4168 57.1408 79.4728 56.9804 79.5308 56.8221C79.6429 56.4976 79.737 56.1672 79.8128 55.8325C79.8901 55.4637 80.0013 55.1027 80.1448 54.7539C80.6308 53.6851 80.8948 52.5649 81.1448 51.4803C81.1928 51.2705 81.2428 51.0607 81.2948 50.8529C81.3467 50.6451 81.3987 50.4868 81.4627 50.2928C81.6231 49.87 81.7221 49.4269 81.7567 48.9767C81.7747 48.5432 81.7987 48.1098 81.8227 47.6764C81.8707 46.8352 81.9187 45.9644 81.9187 45.1034C81.9173 45.0751 81.9173 45.0467 81.9187 45.0183C81.9447 45.0183 81.9847 44.9985 82.0507 44.9847C82.6167 44.8659 83.1707 44.7056 83.7067 44.5492L84.2487 44.3929C84.5167 44.3177 84.7846 44.2484 85.0486 44.1772C85.6946 44.0069 86.3646 43.8288 87.0186 43.5933L87.3346 43.4785C88.5345 43.0451 89.7665 42.5958 91.0085 42.2435C91.6805 42.0456 92.3324 41.7962 92.9624 41.5488C93.5914 41.2867 94.2343 41.0587 94.8884 40.866H94.9164C95.0296 40.8465 95.1375 40.8036 95.2329 40.7402C95.3284 40.6768 95.4093 40.5942 95.4704 40.4979C95.5153 40.4093 95.5419 40.3127 95.5484 40.2137C95.555 40.1148 95.5413 40.0156 95.5084 39.9219ZM81.9267 77.7756H81.7467C79.0888 77.839 76.4109 77.9854 73.8969 78.1319L72.781 78.1972C71.133 78.2981 69.4291 78.3951 67.7551 78.3951C67.1231 78.3951 66.5391 78.3813 65.9652 78.3516C64.8452 78.2942 63.7052 78.2902 62.6033 78.2843C61.8913 78.2843 61.1533 78.2843 60.4333 78.2605C60.0593 78.2506 59.6533 78.2467 59.1933 78.2467C58.7334 78.2467 58.2874 78.2467 57.8354 78.2467C57.3834 78.2467 56.9394 78.2467 56.4894 78.2467C56.1634 78.2467 55.8374 78.2467 55.5094 78.2467C55.4394 78.2467 55.3834 78.2467 55.3374 78.2467C55.3374 78.1972 55.3475 78.1299 55.3575 78.0488C55.5674 76.3924 55.8746 74.7496 56.2774 73.1285C56.3454 72.8376 56.4194 72.5506 56.4934 72.2617C56.6809 71.5873 56.8285 70.9026 56.9354 70.2112C56.9694 69.9559 57.0334 69.8589 57.3354 69.7956C57.8414 69.6907 58.5974 69.5344 59.1153 68.9188L59.1613 68.901C59.9744 68.6056 60.7094 68.132 61.3113 67.5156C61.6333 67.2163 61.9739 66.9374 62.3313 66.6804C62.6942 66.4172 63.0426 66.1351 63.3752 65.8353C64.9928 64.3254 66.3572 62.5704 67.4171 60.636C67.5231 60.4381 67.6391 60.254 67.7611 60.0541C68.0479 59.6182 68.2878 59.1539 68.4771 58.6687C68.6371 58.2194 68.7851 57.7602 68.9271 57.3169C69.1271 56.6974 69.3271 56.0582 69.5691 55.4525C69.832 54.7343 70.0419 53.998 70.197 53.2497C70.289 52.8539 70.383 52.4462 70.495 52.0622C70.6749 51.3759 70.8025 50.6773 70.877 49.9722C70.905 49.7466 70.933 49.5209 70.967 49.2973C71.217 47.5477 71.317 45.81 71.405 44.0347C71.543 41.2539 71.023 38.6117 70.555 36.6207C70.459 36.2248 70.375 35.7973 70.293 35.3916C70.211 34.9859 70.137 34.5999 70.047 34.214C69.7131 32.7633 69.0751 31.4431 68.4351 30.224C67.7687 28.9538 66.9502 27.7676 65.9972 26.6912L65.8492 26.5229C64.6932 25.2206 63.4992 23.8748 62.2233 22.6338C61.4413 21.8719 60.4453 21.2484 59.0893 20.6685C58.1754 20.2727 57.6014 19.8867 57.3714 19.0337C57.2808 18.7365 57.146 18.4544 56.9714 18.1965C58.4214 18.4954 59.8713 18.8853 61.2793 19.2633C61.8013 19.4038 62.3233 19.5444 62.8452 19.6809L62.9572 19.7086C63.0652 19.7287 63.1701 19.7626 63.2692 19.8096C63.7101 20.0888 64.1793 20.3217 64.6692 20.5042C65.1739 20.6764 65.6468 20.9292 66.0692 21.2524C66.5285 21.6343 67.0233 21.9723 67.5471 22.2618C67.8431 22.4379 68.1211 22.6042 68.3871 22.7882C69.4027 23.4848 70.3412 24.2856 71.187 25.1771L71.387 25.3889C72.123 26.1805 72.817 26.9108 73.227 27.8549C73.433 28.2877 73.6858 28.6972 73.9809 29.0761C74.1309 29.274 74.2749 29.4719 74.3989 29.6817C75.1239 30.9008 75.7744 32.1618 76.3469 33.458C76.9802 34.8145 77.4501 36.2401 77.7468 37.7053C78.0962 39.3997 78.2883 41.1221 78.3208 42.8511C78.3208 43.1876 78.3528 43.5161 78.3808 43.8407C78.4302 44.261 78.4462 44.6846 78.4288 45.1074V45.1371C78.41 46.9732 78.2945 48.807 78.0828 50.6313C78.0828 50.6313 78.0828 50.6491 78.0828 50.657C77.7503 51.18 77.5241 51.7622 77.4169 52.3709C77.3503 52.6917 77.2559 53.0063 77.1349 53.3111C76.9232 53.8174 76.7396 54.3347 76.5849 54.8608C76.4043 55.5305 76.1508 56.1788 75.8289 56.7944C75.6043 57.2102 75.4039 57.6384 75.2289 58.0769C75.0969 58.3857 74.9729 58.6707 74.8289 58.9596C74.0869 60.4361 73.183 62.1263 71.845 63.4682C71.7679 63.5255 71.6812 63.569 71.589 63.5968C71.1502 63.7907 70.7668 64.0893 70.473 64.4657C70.3172 64.6612 70.1309 64.8309 69.921 64.9684C69.5403 65.1923 69.1791 65.4471 68.8411 65.7304C68.5733 65.9528 68.2907 66.1572 67.9951 66.342C67.6677 66.5481 67.3604 66.784 67.0771 67.0465C66.8771 67.2108 66.7091 67.3672 66.5231 67.4998C65.4914 68.2182 64.3692 68.8004 63.1852 69.2315C62.8092 69.378 62.4313 69.5185 62.0533 69.661C61.4793 69.8748 60.8853 70.0945 60.3053 70.33C60.1205 70.3896 59.9504 70.4871 59.806 70.616C59.6617 70.7448 59.5463 70.9023 59.4673 71.0781C59.4065 71.2687 59.3857 71.4695 59.4064 71.6683C59.427 71.8671 59.4886 72.0596 59.5873 72.2339C59.6533 72.3725 59.6073 72.5664 59.4993 72.8772C59.3913 73.1879 59.2813 73.6253 59.5153 74.0291C59.7493 74.4328 60.1973 74.5654 60.5153 74.6228C60.701 74.6594 60.89 74.6773 61.0793 74.6763C61.2992 74.6732 61.5189 74.6587 61.7373 74.6327C61.9053 74.6149 62.0633 74.5991 62.2133 74.5971C62.4993 74.5971 62.7833 74.5971 63.0692 74.5971C63.9792 74.5971 64.9112 74.6248 65.8112 74.6525C66.7111 74.6802 67.6591 74.7079 68.5891 74.7079H68.8771C69.5571 74.7079 70.229 74.6386 70.877 74.5773C71.525 74.5159 72.187 74.4526 72.835 74.4526H73.071C73.7509 74.4526 74.1089 74.1735 74.2889 73.94C74.5669 73.5758 74.6229 73.083 74.4529 72.4754C74.1715 71.5578 73.768 70.6812 73.253 69.8688C72.867 69.2256 72.523 68.5309 72.189 67.858L72.093 67.6601C72.9588 66.9359 73.7427 66.121 74.4309 65.2297C74.5763 65.0664 74.7439 64.9238 74.9289 64.8061C75.1065 64.6849 75.2762 64.5527 75.4369 64.4103C75.8769 65.2118 76.2769 66.055 76.6769 66.8763C77.0769 67.6977 77.4768 68.4953 77.9028 69.2909C78.1428 69.7263 78.3468 70.1736 78.5628 70.6467C78.8219 71.2377 79.1116 71.815 79.4308 72.3765C79.7463 72.9183 79.9617 73.5114 80.0668 74.128C80.1401 74.4809 80.2806 74.8167 80.4808 75.1176C80.5488 75.2304 80.6108 75.3373 80.6608 75.4382C80.9987 76.1527 81.3907 76.8454 81.7707 77.5164L81.9267 77.7756ZM50.1276 23.7264C49.8762 23.7355 49.6367 23.8346 49.4536 24.0054L49.3876 24.0549C48.7456 24.4982 48.5076 25.1217 48.2956 25.6719C48.2215 25.8746 48.1354 26.0729 48.0376 26.2656L47.9276 26.4635C47.5235 27.163 47.1712 27.8906 46.8737 28.6406C46.7397 29.0088 46.5877 29.3828 46.4397 29.745C46.2017 30.3388 45.9537 30.9325 45.7597 31.5678C45.693 31.7592 45.6115 31.9451 45.5157 32.124C45.4517 32.2546 45.3837 32.3892 45.3157 32.5337C44.7937 33.7608 44.1617 34.972 43.5498 36.1437L43.3138 36.5969C42.5398 38.0833 41.9578 39.3222 41.4838 40.4959C40.9187 41.8872 40.2482 43.2342 39.4779 44.5255C38.9414 45.4701 38.4852 46.4571 38.1139 47.4765C37.9792 47.7965 37.818 48.105 37.6319 48.3987C37.4056 48.7566 37.2128 49.1342 37.0559 49.5269C36.832 50.1206 36.556 50.7144 36.256 51.3081C35.9126 51.9877 35.6088 52.6862 35.346 53.4001C35.1047 54.0191 34.8075 54.6152 34.458 55.1814C34.302 55.4565 34.14 55.7395 33.99 56.0265L33.804 56.3827L33.474 57.0121C33.3844 56.8396 33.2815 56.6741 33.166 56.5173C33.13 56.4678 33.094 56.4184 33.062 56.3689C32.8721 56.0819 32.8301 55.7256 32.7841 55.314C32.7581 54.8477 32.6434 54.3904 32.4461 53.9662C32.1361 53.3724 32.1561 52.6777 32.1761 51.9474V51.8484C32.1806 51.5116 32.125 51.1766 32.0121 50.8589C31.7941 50.2334 31.8901 49.6258 32.3381 48.759C32.7561 47.9534 33.138 47.1242 33.522 46.3206C33.722 45.905 33.922 45.4874 34.122 45.0737C34.4313 44.4312 34.7427 43.7886 35.056 43.146C35.508 42.2178 35.962 41.2876 36.406 40.3554C36.9459 39.2253 37.5019 38.0813 38.0399 36.9749C38.4839 36.0645 38.9259 35.1534 39.3659 34.2417C39.7179 33.5094 40.0579 32.7474 40.3878 32.0112L40.5718 31.6153C40.7558 31.2057 40.9598 30.8059 41.1718 30.3843C41.4158 29.9113 41.6698 29.4204 41.8878 28.9157C42.2458 28.0865 42.6518 27.2552 43.0458 26.4497C43.2458 26.038 43.4458 25.6244 43.6458 25.2107C43.9678 24.5279 44.3397 23.8471 44.6997 23.186C44.8257 22.9545 44.9517 22.7229 45.0757 22.4913C45.1997 22.2598 45.3177 21.9906 45.4217 21.7472C45.4917 21.5869 45.5597 21.4246 45.6357 21.2662C46.4037 19.6829 47.4077 18.1807 48.3696 16.7834C48.5394 16.5264 48.6739 16.2482 48.7696 15.9561C48.8196 15.8195 48.8656 15.6909 48.9196 15.5761C49.3496 14.6776 49.7196 13.7493 50.0796 12.8508C50.1816 12.5955 50.2796 12.3382 50.3876 12.0829C50.4316 12.2808 50.4716 12.4629 50.5096 12.6509C50.6598 13.288 50.9059 13.8991 51.2396 14.4638C51.3016 14.5826 51.3656 14.7013 51.4256 14.822C51.5055 14.9784 51.5935 15.1347 51.6855 15.2931C51.9415 15.7443 52.1835 16.1699 52.2015 16.6191C52.2435 17.079 52.4009 17.5212 52.6595 17.9056C52.7441 18.0431 52.8196 18.1859 52.8855 18.3331C52.9935 18.6003 53.0855 18.8734 53.1835 19.1624C53.3176 19.5873 53.4779 20.0037 53.6635 20.4093C54.0735 21.2662 54.4635 22.1549 54.8395 23.0138C55.1795 23.7936 55.5314 24.5972 55.9014 25.3889C56.0929 25.7782 56.3059 26.1568 56.5394 26.5229C56.8034 26.9262 57.0315 27.3513 57.2214 27.7936C57.5839 28.6685 57.9938 29.5234 58.4494 30.3546C58.7734 30.9701 59.1073 31.6054 59.3913 32.2427C59.6393 32.8009 59.9233 33.3511 60.1913 33.8815C60.3693 34.2298 60.5553 34.59 60.7253 34.9423C60.9647 35.4146 61.2318 35.8725 61.5253 36.3139C61.9253 36.9492 62.3113 37.5509 62.5253 38.2278C62.6772 38.6444 62.896 39.034 63.1732 39.3816L63.3132 39.5795C63.6934 40.1483 64.0387 40.7391 64.3472 41.3489C64.4612 41.5627 64.5772 41.7784 64.6932 41.9902C65.0835 42.7282 65.4359 43.4852 65.7492 44.2583C65.8812 44.571 66.0152 44.8837 66.1492 45.1925C66.3371 45.618 66.5231 46.0415 66.7091 46.4671C67.0271 47.1954 67.3551 47.9475 67.6931 48.6837C67.8647 49.0879 67.9524 49.522 67.9511 49.9603C67.8227 50.8437 67.5967 51.7105 67.2771 52.5451C67.2491 52.6282 67.2191 52.7114 67.1891 52.7945C67.0339 53.1894 66.9128 53.5966 66.8271 54.0117C66.7334 54.4336 66.5995 54.8458 66.4271 55.2427L66.2892 55.6049C66.1452 55.3377 66.0012 55.0725 65.8592 54.8133C65.3712 53.9246 64.8592 53.0043 64.4392 52.0721L64.3412 51.8583C64.1206 51.3273 63.8529 50.8167 63.5412 50.3324C63.3461 50.0895 63.2148 49.8026 63.1592 49.4972C63.1211 49.1762 62.981 48.8755 62.7592 48.6382C62.7103 48.5823 62.6668 48.522 62.6293 48.4581C62.3933 47.9712 62.1633 47.4844 61.9333 46.9955C61.5813 46.2474 61.2173 45.4755 60.8373 44.7234C60.6193 44.2939 60.4073 43.8486 60.2033 43.4191C59.8993 42.7838 59.5853 42.1267 59.2413 41.4894C58.8974 40.8522 58.6154 40.201 58.3334 39.5538C58.1874 39.2213 58.0414 38.8888 57.8894 38.5642C57.6894 38.1506 57.5154 37.731 57.3314 37.3134C56.9029 36.2727 56.4175 35.2559 55.8774 34.2674C55.5714 33.7331 55.2915 33.165 55.0195 32.6168C54.6209 31.7605 54.1653 30.9314 53.6555 30.1349C52.9728 29.1068 52.371 28.0283 51.8555 26.9089C51.5756 26.3012 51.2556 25.6145 51.2556 24.9158C51.261 24.689 51.1983 24.4656 51.0755 24.274C50.9527 24.0823 50.7752 23.931 50.5656 23.8392C50.4293 23.7658 50.2767 23.727 50.1216 23.7264H50.1276ZM48.1336 41.6597C48.1955 42.0591 48.1955 42.4655 48.1336 42.865C48.1016 43.0213 48.0756 43.1757 48.0556 43.3301C47.6877 42.1663 47.2557 41.0184 46.8557 39.9021C46.6557 39.3559 46.4557 38.8096 46.2557 38.2614C46.2024 38.1405 46.1712 38.0112 46.1637 37.8794C46.4175 37.4305 46.6258 36.9578 46.7857 36.4683C46.9089 36.1034 47.058 35.7476 47.2317 35.4035C47.5917 34.7365 47.9596 34.0418 48.3036 33.3273C48.297 33.4824 48.3004 33.6378 48.3136 33.7924C48.3587 34.5564 48.3587 35.3223 48.3136 36.0863C48.2936 36.6167 48.2756 37.163 48.2856 37.7112C48.2856 38.3128 48.2536 38.914 48.1896 39.5123C48.1736 39.6924 48.1556 39.8725 48.1416 40.0526C48.0876 40.5868 48.0849 41.1249 48.1336 41.6597ZM32.3341 78.5258C30.9881 78.5258 29.7681 78.4941 28.6062 78.4268C27.1762 78.3456 25.6903 78.3061 24.0683 78.3061H23.1003H22.7723C21.8403 78.3061 20.8884 78.2704 19.9724 78.2348C19.0844 78.2012 18.1724 78.1675 17.2605 78.1636C18.2844 76.548 19.1848 74.859 19.9544 73.1107C20.1024 72.7842 20.2464 72.4556 20.3904 72.1211C20.6604 71.5036 20.9424 70.8624 21.2404 70.2508C21.4164 69.8926 21.6084 69.5423 21.8123 69.1741C22.0163 68.806 22.2563 68.3825 22.4563 67.955C22.5783 67.7016 22.6963 67.4483 22.8163 67.193C23.2365 66.2216 23.7348 65.285 24.3063 64.3925C24.3896 64.2599 24.4485 64.1139 24.4803 63.961C24.4929 63.9058 24.5131 63.8525 24.5403 63.8027C24.5937 63.8254 24.6441 63.8547 24.6903 63.8897C24.9058 64.0333 25.0951 64.212 25.2503 64.4182C25.9086 65.3529 26.731 66.1633 27.6782 66.811C28.1182 67.1099 28.1842 67.3691 27.9402 67.8422C27.6691 68.394 27.4359 68.9633 27.2422 69.5462C27.0847 70.0168 26.9031 70.4792 26.6982 70.9317C26.6181 71.0775 26.5229 71.2148 26.4142 71.3413C26.3362 71.4383 26.2602 71.5393 26.1902 71.6362C25.8491 72.0693 25.6483 72.5943 25.6142 73.1424C25.6062 73.2966 25.6291 73.4508 25.6817 73.5962C25.7342 73.7416 25.8153 73.8753 25.9202 73.9895C26.0048 74.0745 26.1057 74.142 26.217 74.1879C26.3282 74.2337 26.4477 74.2571 26.5682 74.2567C26.7054 74.2553 26.8411 74.2285 26.9682 74.1775C27.285 74.0628 27.6211 74.0097 27.9582 74.0211C28.1582 74.0211 28.3682 74.033 28.5842 74.0449L28.8062 74.0568C30.7761 74.1538 32.7801 74.1656 34.652 74.1656H37.4939C37.9583 74.1772 38.4217 74.2142 38.8819 74.2765C38.9483 74.2842 39.015 74.2882 39.0819 74.2883C39.252 74.2922 39.4211 74.2622 39.5791 74.1999C39.7372 74.1377 39.881 74.0446 40.0019 73.9262C40.1184 73.803 40.2085 73.6578 40.267 73.4993C40.3254 73.3408 40.3509 73.1723 40.3419 73.0038C40.3419 72.7842 40.3419 72.5625 40.3419 72.329C40.3777 71.7077 40.3279 71.0844 40.1939 70.4764C40.143 70.2395 40.0345 70.0185 39.8776 69.8326C39.7208 69.6466 39.5204 69.5015 39.2939 69.4097L39.1339 69.3404C38.6476 69.1161 38.1415 68.9366 37.6219 68.804C37.2608 68.7001 36.9171 68.5441 36.602 68.3409C36.2636 68.1336 35.9043 67.9618 35.53 67.8283C34.098 67.3592 32.93 66.4647 31.6861 65.5166L31.3681 65.2752C30.6541 64.7309 29.9681 64.1015 29.3141 63.4939C28.9642 63.1713 28.6042 62.8368 28.2362 62.5162C27.4599 61.8495 26.773 61.0873 26.1922 60.2481C25.8665 59.7396 25.5746 59.2107 25.3183 58.6647C25.0843 58.1877 24.8403 57.6969 24.5503 57.2239C23.4114 55.3836 22.5199 53.4043 21.8983 51.3358C21.1366 48.7247 20.7106 46.0289 20.6304 43.3123C20.5772 42.514 20.6033 41.7126 20.7084 40.9194C20.9384 39.5142 21.1624 38.2535 21.5764 37.0759C21.7324 36.6326 21.9263 36.1773 22.1123 35.736C22.3928 35.1107 22.6359 34.4697 22.8403 33.8162C23.1603 32.7197 23.8123 31.837 24.5023 30.9108C24.9189 30.3691 25.3035 29.8041 25.6543 29.2186C26.3062 28.0825 27.3162 27.1919 28.2182 26.4675C28.8394 25.9517 29.4284 25.3992 29.9821 24.8129C30.4287 24.391 30.9273 24.0266 31.4661 23.7283C31.8373 23.5097 32.1971 23.2725 32.5441 23.0178C32.9701 22.6932 33.422 22.4062 33.9 22.1034C34.334 21.8283 34.782 21.5433 35.21 21.2286C35.859 20.7709 36.5829 20.4274 37.3499 20.2133C37.8383 20.0622 38.3161 19.879 38.7799 19.6651C40.2379 18.9902 41.7798 18.7012 43.4218 18.3984L43.0798 19.0773C43.0054 19.2506 42.8888 19.4031 42.7406 19.5212C42.5923 19.6393 42.4168 19.7193 42.2298 19.7541C40.7473 20.0903 39.3535 20.7331 38.1399 21.6403C37.6439 22.0045 37.1639 22.3884 36.6999 22.7625C36.236 23.1366 35.784 23.4968 35.314 23.8411C34.8589 24.2122 34.4719 24.6581 34.17 25.1593C34.09 25.278 34.012 25.3968 33.928 25.5116C32.8734 26.9857 31.9212 28.529 31.0781 30.131C30.8469 30.6 30.6633 31.0906 30.5301 31.5956C30.4331 31.9431 30.3155 32.2848 30.1781 32.6188C29.9404 33.2061 29.768 33.8173 29.6641 34.4416C29.6041 34.7345 29.5481 35.0116 29.4761 35.2847C29.0832 36.717 28.8333 38.184 28.7302 39.6646V39.8368C28.7261 40.0667 28.702 40.2958 28.6582 40.5216C28.4649 41.5041 28.3717 42.5033 28.3802 43.5042V43.6725C28.3662 44.2365 28.3162 44.8145 28.2702 45.3746C28.1578 46.3693 28.1291 47.3716 28.1842 48.371C28.3562 50.5481 28.9142 52.654 29.4541 54.6826L29.5781 55.1517C29.9418 56.5972 30.422 58.0116 31.0141 59.3812C31.6361 60.7765 32.5661 61.9719 33.306 62.8566L33.706 63.3494C34.0688 63.8138 34.4567 64.2585 34.868 64.6814C35.5001 65.3468 36.2167 65.9282 36.9999 66.4112C37.7222 66.8087 38.4713 67.1566 39.2419 67.4523C39.978 67.7301 40.6925 68.0609 41.3798 68.4419C41.4978 68.5091 41.6098 68.5844 41.7218 68.6615C41.9983 68.8609 42.2977 69.0269 42.6138 69.1563C42.6192 69.1944 42.6192 69.233 42.6138 69.2711C42.5338 70.9792 42.5398 72.414 42.8318 73.8648V73.8885C42.8548 73.9745 42.8675 74.0629 42.8698 74.1518C42.6438 75.173 42.8118 76.1309 42.9758 77.0612L43.0078 77.2591C43.0358 77.4109 43.0552 77.5642 43.0658 77.7182C43.0786 77.8634 43.0745 78.0095 43.0538 78.1537C42.9431 78.1747 42.8304 78.1834 42.7178 78.1794H42.6418H42.1518C40.8518 78.1794 39.5519 78.2586 38.2759 78.3357C37.3739 78.3912 36.44 78.4466 35.528 78.4743C34.342 78.5 33.294 78.5178 32.3281 78.5178L32.3341 78.5258ZM30.3121 70.7535C30.4796 70.3237 30.6753 69.9052 30.8981 69.5007C31.4951 69.8979 32.1293 70.2372 32.7921 70.514C32.9921 70.6071 33.192 70.6961 33.392 70.7892H32.9921H32.7501C32.2301 70.7713 31.6401 70.7515 31.0401 70.7515C30.7761 70.7535 30.5421 70.7535 30.3121 70.7535ZM34.788 35.9854C34.456 36.7988 34.046 37.6063 33.65 38.3861C33.336 39.0056 33.0101 39.6468 32.7181 40.3C32.0961 39.9576 32.0901 39.9041 32.0921 38.8651C32.1061 38.7226 32.1201 38.5741 32.1341 38.4217C32.2181 37.5113 32.3141 36.4802 32.6461 35.4886C32.7661 35.1304 32.8461 34.7642 32.9421 34.4119C32.9981 34.1823 33.05 33.9646 33.11 33.7509C33.4432 34.2284 33.8108 34.6815 34.21 35.1066C34.41 35.3263 34.592 35.5341 34.77 35.7518C34.842 35.8389 34.846 35.8468 34.788 35.9873V35.9854ZM34.162 31.3798C33.992 31.1186 34.048 31.0572 34.118 30.984C34.696 30.3427 35.054 29.6124 35.398 28.9058C35.5 28.6961 35.598 28.4882 35.71 28.2824C36.0239 27.641 36.4497 27.0594 36.9679 26.5645C37.2279 26.3309 37.4739 26.0855 37.7119 25.846C38.2379 25.3176 38.7359 24.8169 39.3499 24.4804C39.5557 24.9576 39.6846 25.4639 39.7319 25.9806L39.5739 26.3349C39.3879 26.7584 39.1959 27.1978 38.9639 27.6154C38.8979 27.7362 38.8259 27.8529 38.7639 27.9717C38.5691 28.2711 38.4043 28.5886 38.2719 28.9197C37.9613 29.6917 37.6013 30.4434 37.1939 31.17C36.7879 31.9091 36.426 32.6711 36.11 33.452L36.062 33.5787C36.046 33.6242 36.024 33.6856 36 33.7449C35.94 33.6618 35.876 33.5589 35.836 33.4916C35.5635 33.0694 35.2536 32.672 34.91 32.3041C34.6388 32.0147 34.3889 31.7064 34.162 31.3818V31.3798ZM42.5118 45.234C42.7996 45.5093 43.0425 45.8271 43.2318 46.1761C43.2918 46.2988 43.3518 46.4176 43.4138 46.5344C43.0238 46.2969 42.6358 46.0594 42.2458 45.8179C42.3298 45.618 42.4178 45.432 42.5118 45.236V45.234ZM35.342 60.0779C35.3545 59.8998 35.4247 59.7305 35.542 59.5949C35.9093 59.1078 36.1807 58.5565 36.342 57.97C36.524 57.3407 37.0059 57.216 37.8419 57.0517H37.8899C39.0099 56.83 40.1599 56.6361 41.2698 56.4461L41.5618 56.3966L41.4858 56.4619C40.5518 57.2377 39.5859 58.0452 38.5899 58.7459C38.1459 59.0625 37.7299 59.4089 37.3259 59.7355C36.8812 60.1179 36.4173 60.4779 35.936 60.8141L35.904 60.8339C35.8014 60.6994 35.6847 60.5761 35.556 60.4658C35.334 60.2679 35.326 60.2322 35.332 60.1669V60.1234L35.342 60.0779ZM40.6778 49.0618C40.6918 49.0341 40.7118 49.0004 40.7318 48.9628C40.7923 48.8541 40.8458 48.7417 40.8918 48.6264L40.9158 48.5689C41.3878 48.8777 41.8698 49.2181 42.4018 49.614C41.8498 49.4437 41.3158 49.2735 40.7898 49.1013L40.6778 49.0618ZM38.1299 54.3838C38.5019 53.6535 38.8119 52.9192 39.0799 52.2621C39.2299 51.894 39.3459 51.894 39.3959 51.894C39.5152 51.9017 39.632 51.932 39.7399 51.983C40.334 52.2204 40.9433 52.4188 41.5638 52.5768C41.8438 52.654 42.1158 52.7292 42.3838 52.8103C40.8798 53.3625 39.6099 53.8375 38.4219 54.2848C38.3159 54.3264 38.2179 54.3541 38.1259 54.3838H38.1299ZM39.8199 63.0466L38.9459 64.1233L38.9259 64.1094C38.7282 63.9906 38.5513 63.8409 38.4019 63.6661C38.2094 63.3966 37.9896 63.1472 37.7459 62.9219C37.6599 62.8388 37.5779 62.7577 37.5019 62.6785C38.3319 62.2292 39.1219 61.7186 39.8879 61.2238C40.5938 60.7666 41.3258 60.2936 42.0658 59.8859C42.2438 59.7889 42.4178 59.688 42.5878 59.5771C42.3438 59.9294 42.1058 60.2639 41.8418 60.5786C41.1538 61.394 40.4778 62.2431 39.8159 63.0466H39.8199ZM43.9258 42.3979C44.0318 42.1248 44.1478 41.8556 44.2698 41.5924C44.3117 41.7368 44.3517 41.8793 44.3917 42.0238C44.5557 42.6017 44.7237 43.1935 44.9277 43.7794C44.6797 43.524 44.4317 43.2667 44.1818 43.0154C43.8218 42.6492 43.8778 42.5067 43.9217 42.3979H43.9258ZM43.2498 64.8477C43.1709 65.0642 43.1041 65.2849 43.0498 65.5087C42.9892 65.8177 42.882 66.1159 42.7318 66.3934L42.6918 66.4528H42.6718C42.273 66.281 41.8958 66.0638 41.5478 65.8056C41.3638 65.6809 41.1758 65.5523 40.9778 65.4315C41.1518 65.2336 41.3278 65.0357 41.5038 64.8536C41.8578 64.4578 42.2238 64.0619 42.5738 63.6503C43.0083 63.1623 43.471 62.6997 43.9597 62.2648L44.1798 62.0669C44.0178 62.5202 43.8738 62.9734 43.7318 63.4167C43.5798 63.8739 43.4198 64.3727 43.2458 64.8477H43.2498ZM60.9013 25.8896L61.3013 26.4616C61.7913 27.1622 62.3013 27.8866 62.8232 28.5872C63.0572 28.896 63.3132 29.181 63.5612 29.4481C63.7752 29.6817 63.9752 29.9014 64.1612 30.1329C64.4671 30.4748 64.6907 30.8808 64.8152 31.3204V31.3323C64.4996 31.6263 64.2299 31.9651 64.0152 32.3377C63.9232 32.4822 63.8352 32.6208 63.7412 32.7474C63.5003 32.165 63.2273 31.5961 62.9232 31.0434C62.6256 30.4718 62.3585 29.8852 62.1233 29.2858C61.8167 28.4758 61.4407 27.6931 60.9993 26.9465C60.9054 26.7883 60.8476 26.6118 60.83 26.4292C60.8124 26.2466 60.8353 26.0624 60.8973 25.8896H60.9013ZM64.8092 34.972C64.8092 34.881 64.8912 34.7939 65.0632 34.6138C65.217 34.4684 65.3514 34.3041 65.4632 34.1249C65.5748 33.9531 65.7035 33.7927 65.8472 33.646L65.8852 33.6044C65.9652 33.8439 66.0412 34.0873 66.1152 34.3248C66.2512 34.7662 66.3932 35.2234 66.5671 35.6707C66.7253 36.1156 66.8477 36.5723 66.9331 37.0363C67.0288 37.5448 67.1625 38.0456 67.3331 38.5345C67.1203 38.7304 66.8846 38.9005 66.6311 39.0412L66.5571 38.871C66.0512 37.7191 65.5292 36.5257 64.9332 35.3778C64.8634 35.2524 64.8199 35.1144 64.8052 34.972H64.8092ZM59.8773 57.78C60.6893 57.978 61.5213 58.1462 62.3253 58.2986C62.8832 58.4035 63.4592 58.5143 64.0192 58.637C64.3232 58.7063 64.5292 58.8349 64.5972 59.0012C64.6652 59.1674 64.5972 59.4386 64.4152 59.7157C64.2332 59.9927 64.0392 60.2837 63.8532 60.5687L63.6012 60.9526C63.1153 60.559 62.6028 60.1986 62.0673 59.874C61.6293 59.6063 61.206 59.3156 60.7993 59.0032C60.1693 58.5005 59.5093 58.0294 58.8593 57.5742C59.2073 57.6336 59.5433 57.691 59.8773 57.78ZM56.7394 46.1445L57.1074 45.5962C57.2254 45.4201 57.3454 45.238 57.4674 45.0599C57.5464 45.2024 57.6056 45.3549 57.6434 45.5131H57.6314C57.3414 45.7427 57.0434 45.9465 56.7374 46.1445H56.7394ZM59.2773 48.6303C58.7034 48.753 58.1294 48.8718 57.5634 48.9866C57.7634 48.8619 57.9474 48.7451 58.1474 48.6382C58.3627 48.5162 58.5582 48.3627 58.7274 48.183C58.7874 48.1256 58.8453 48.0662 58.9093 48.0148L58.9233 48.0009C59.035 48.1619 59.1385 48.3284 59.2333 48.4997L59.3033 48.6204C59.2951 48.6248 59.2864 48.6281 59.2773 48.6303ZM56.7814 52.8084C57.0528 52.696 57.3298 52.5975 57.6114 52.5135C58.1314 52.371 58.6274 52.1809 59.1073 51.9969C59.598 51.7967 60.1002 51.6256 60.6113 51.4843H60.6373C61.0106 52.2139 61.3859 52.9396 61.7633 53.6614C62.0619 54.2353 62.3586 54.8099 62.6533 55.3852L62.5893 55.3654C61.728 55.1041 60.8882 54.7779 60.0773 54.3897C59.3598 54.0566 58.6255 53.76 57.8774 53.5011C57.5398 53.3835 57.2104 53.244 56.8914 53.0834L56.5214 52.9113L56.7814 52.8084ZM55.3814 41.82C55.4578 41.6508 55.5051 41.4702 55.5214 41.2856C55.6857 41.6613 55.8755 42.0257 56.0894 42.3761C56.0164 42.5093 55.9233 42.6308 55.8134 42.7363C55.7334 42.8214 55.6514 42.9105 55.5734 43.0095C55.2434 43.429 54.8795 43.8407 54.5175 44.2405C54.6155 43.9654 54.7055 43.6863 54.7915 43.4172C54.9581 42.8728 55.1592 42.3394 55.3934 41.82H55.3814ZM61.6873 63.0347C61.5293 63.2168 61.3653 63.4009 61.2053 63.5751C61.1837 63.5918 61.161 63.607 61.1373 63.6206C61.0717 63.6606 61.0089 63.7049 60.9493 63.7532C60.7773 63.5097 60.6093 63.2663 60.4393 63.0229C60.2393 62.726 60.0273 62.4291 59.8153 62.1342L59.4773 61.6691C60.2106 62.1204 60.944 62.5743 61.6773 63.0308L61.6873 63.0347ZM51.5796 41.436C51.5796 40.5671 51.5795 39.6706 51.5115 38.776C51.3796 37.0541 51.3376 35.2946 51.3116 33.741C51.3116 33.4876 51.3116 33.2303 51.3296 32.9592C51.3306 32.9454 51.3306 32.9315 51.3296 32.9176L51.5696 33.3491C51.9475 34.028 52.3395 34.7345 52.6615 35.4351C52.7995 35.734 52.9555 36.0289 53.1055 36.2961C53.409 36.7885 53.6387 37.3218 53.7875 37.8794C53.8359 38.0206 53.8359 38.1737 53.7875 38.3148C53.6835 38.5919 53.5675 38.8611 53.4435 39.1481C53.1184 39.8301 52.8754 40.5475 52.7195 41.2856C52.6634 41.5003 52.5787 41.7066 52.4675 41.8991C52.3975 42.0357 52.3275 42.1762 52.2675 42.3266C52.0495 42.8452 51.8435 43.3716 51.6495 43.8941C51.5775 43.0946 51.5796 42.287 51.5796 41.4439V41.436ZM54.7795 61.3109C55.4694 61.9284 56.1394 62.6251 56.7314 63.2386C57.4114 63.9452 58.0734 64.6636 58.7454 65.3979C58.4134 65.5701 58.0974 65.7601 57.7874 65.9441C57.3996 66.1873 56.999 66.4099 56.5874 66.6111C56.404 66.6997 56.2076 66.7592 56.0054 66.7873H55.9914C55.9153 66.7919 55.8389 66.7839 55.7654 66.7635C55.7167 66.6839 55.686 66.5948 55.6754 66.5023C55.5074 65.7106 55.2874 64.9387 55.0755 64.1846C54.8915 63.5335 54.6995 62.8586 54.5495 62.1956C54.4755 61.8749 54.3755 61.5662 54.2795 61.2693C54.2055 61.0417 54.1335 60.8201 54.0795 60.6004C54.2935 60.8438 54.5235 61.0892 54.7795 61.3188V61.3109ZM70.395 71.373H69.0291C68.8471 71.373 68.6651 71.373 68.4831 71.373C68.3011 71.373 68.1351 71.373 67.9611 71.373C67.6688 71.3773 67.3766 71.3594 67.0871 71.3196H67.0431L67.0571 71.3097C67.3511 71.1118 67.6571 70.9435 67.9691 70.7575C68.5246 70.4479 69.059 70.1028 69.5691 69.7244C69.7484 70.1776 69.9644 70.6157 70.215 71.0346L70.395 71.373Z" fill="black"/>
</mask>
<g mask="url(#mask0_2185_100)">
<rect x="-6.3457" y="-2.38965" width="108.258" height="87.5614" fill="#7D6B3B"/>
<rect x="-6" y="-5" width="108" height="90" fill="#ECCD7A"/>
</g>
</svg>
