<svg width="131" height="132" viewBox="0 0 131 132" fill="none" xmlns="http://www.w3.org/2000/svg">
<path d="M65.3704 121.338C95.9836 121.338 120.8 96.5207 120.8 65.9075C120.8 35.2944 95.9836 10.4775 65.3704 10.4775C34.7573 10.4775 9.94043 35.2944 9.94043 65.9075C9.94043 96.5207 34.7573 121.338 65.3704 121.338Z" stroke="#0088CC" stroke-width="3" stroke-miterlimit="10"/>
<path d="M65.3743 0.999918L0.461914 65.9124L65.3743 130.825L130.287 65.9123L65.3743 0.999918Z" stroke="#0088CC" stroke-width="0.92" stroke-linecap="round" stroke-linejoin="round"/>
<path d="M111.27 20.0076H19.4697V111.808H111.27V20.0076Z" stroke="#0088CC" stroke-width="1.85" stroke-linecap="round" stroke-linejoin="round"/>
<path d="M65.3699 44.4177L27.3799 27.9077L43.8799 65.9077L27.3799 103.908L65.3699 87.4077L103.38 103.908L86.8699 65.9077L103.38 27.9077L65.3699 44.4177Z" stroke="#0088CC" stroke-width="0.92" stroke-linecap="round" stroke-linejoin="round"/>
<path d="M57.0098 65.9076C57.0098 67.561 57.5001 69.1774 58.4187 70.5522C59.3373 71.927 60.6428 72.9985 62.1704 73.6312C63.698 74.264 65.3791 74.4296 67.0007 74.107C68.6224 73.7844 70.1121 72.9882 71.2812 71.819C72.4504 70.6499 73.2465 69.1603 73.5691 67.5386C73.8917 65.9169 73.7263 64.236 73.0935 62.7084C72.4608 61.1808 71.3892 59.8752 70.0144 58.9565C68.6396 58.0379 67.0233 57.5476 65.3699 57.5476C63.1527 57.5476 61.0261 58.4284 59.4583 59.9962C57.8904 61.564 57.0098 63.6904 57.0098 65.9076Z" stroke="#0088CC" stroke-width="1.85" stroke-miterlimit="10"/>
<path d="M51.7698 121.177C51.6867 121.173 51.6053 121.152 51.5298 121.117C51.4554 121.088 51.3899 121.04 51.3398 120.977C51.3192 120.769 51.3646 120.559 51.4697 120.377L52.0498 119.107C52.7998 117.447 53.5499 115.777 54.3499 114.107C54.4998 113.89 54.6051 113.646 54.6602 113.388C54.7152 113.13 54.7187 112.864 54.6704 112.604C54.6221 112.345 54.5229 112.098 54.3787 111.877C54.2344 111.656 54.0479 111.466 53.8298 111.317C53.6302 111.134 53.473 110.909 53.3694 110.659C53.2657 110.408 53.218 110.138 53.2297 109.867C53.2382 109.617 53.1949 109.368 53.1028 109.136C53.0107 108.903 52.8717 108.692 52.6943 108.516C52.517 108.339 52.3051 108.201 52.072 108.11C51.839 108.02 51.5898 107.978 51.3398 107.987H50.7197C49.9951 107.936 49.2755 108.14 48.6855 108.564C48.0956 108.988 47.6724 109.604 47.4897 110.307C46.8561 111.748 45.8392 112.986 44.5498 113.887C43.7954 114.55 42.8335 114.929 41.8298 114.957C41.4036 114.957 40.9807 114.882 40.5798 114.737C37.5798 113.657 35.5797 112.337 35.1697 109.407C35.1525 109.204 35.0943 109.006 34.9985 108.826C34.9028 108.646 34.7714 108.487 34.6125 108.359C34.4537 108.231 34.2706 108.136 34.0742 108.081C33.8778 108.026 33.6721 108.011 33.4697 108.037H30.2598C29.5998 108.037 28.9398 108.037 28.2598 108.037C27.6398 108.037 27.4697 107.887 27.3997 107.337C27.1908 106.171 27.2181 104.974 27.4797 103.817C27.6968 102.982 28.1669 102.233 28.8257 101.675C29.4844 101.116 30.2995 100.775 31.1597 100.697C31.9868 100.611 32.8181 100.571 33.6497 100.577H35.7698C36.0544 100.639 36.3514 100.608 36.6169 100.488C36.8824 100.368 37.1024 100.166 37.2446 99.9123C37.3868 99.6581 37.4436 99.3651 37.4067 99.0761C37.3699 98.7872 37.2413 98.5178 37.0398 98.3075C34.1303 93.4086 32.2646 87.9614 31.5598 82.3075C31.2576 80.0375 31.1505 77.7458 31.2397 75.4575C31.2397 74.6575 31.5397 74.6574 31.6497 74.6574C31.7461 74.649 31.8432 74.649 31.9397 74.6574C32.3314 74.7608 32.7345 74.8146 33.1396 74.8175C35.1396 74.8175 36.1396 73.2874 36.8896 72.1574C40.9596 65.9374 46.2997 60.2774 53.6897 54.3474C54.6878 53.6261 55.3772 52.5548 55.6199 51.3474C55.7955 50.6574 56.1046 50.0086 56.5298 49.4375L57.7598 47.5475L55.5598 48.0374C50.1505 49.2795 45.0482 51.6028 40.5598 54.8675C39.7198 55.4675 38.8998 56.1075 38.0798 56.7475C37.5898 57.1375 37.0799 57.5175 36.5999 57.8875C33.8984 59.7836 30.6593 60.7616 27.3599 60.6775C21.8099 60.6775 16.6399 58.3975 13.8799 54.7375C13.678 54.4884 13.5005 54.2205 13.3499 53.9375C13.3068 53.8522 13.2842 53.758 13.2842 53.6624C13.2842 53.5669 13.3068 53.4728 13.3499 53.3875C13.3839 53.3476 13.4272 53.3167 13.4761 53.2975C13.5249 53.2783 13.5778 53.2715 13.6299 53.2775H13.7598C14.8757 53.441 16.002 53.5246 17.1299 53.5275C23.1299 53.5275 28.4997 51.1875 33.7397 48.9275L34.6099 48.5475C34.7925 48.461 34.9557 48.3386 35.0898 48.1875L35.1797 48.0974L36.4897 46.8775L34.7297 46.5175L33.3896 46.2575C32.3896 46.0775 31.4898 45.9075 30.5898 45.6675C26.894 44.8604 23.48 43.0827 20.6997 40.5175C19.3396 39.3341 18.3881 37.7514 17.9805 35.9952C17.5728 34.239 17.7299 32.399 18.4297 30.7375C19.8339 26.4045 22.3349 22.5083 25.6897 19.4275C26.2742 18.9303 26.8888 18.4694 27.5298 18.0475C27.6206 17.9789 27.7273 17.9342 27.8398 17.9175C27.8955 17.9187 27.9486 17.94 27.9897 17.9775C28.1397 18.0775 28.2597 18.1975 28.1897 18.5775C27.9897 19.5775 27.8197 20.7575 27.6697 22.0575C26.8797 29.2675 30.1697 34.6375 36.9397 37.1975C39.9793 38.3252 43.1977 38.8943 46.4397 38.8775H48.3398H52.2097C55.1492 38.8479 58.0879 38.9948 61.0098 39.3175H61.3098C62.7498 39.3175 63.8698 38.0075 64.0098 36.1475C64.0098 35.8175 64.0098 35.4875 64.0098 35.1475C64.0098 34.8075 64.0098 34.7075 64.0098 34.4875C63.9947 34.1681 64.068 33.8507 64.2214 33.5702C64.3749 33.2897 64.6028 33.057 64.8799 32.8975C65.398 32.6685 65.8237 32.2716 66.0886 31.7708C66.3535 31.2701 66.4421 30.6947 66.3398 30.1375C66.3 29.6116 66.3 29.0834 66.3398 28.5575C66.4698 26.7475 66.3398 24.8575 64.4998 23.3575C64.2007 23.0377 63.9682 22.6619 63.8154 22.2516C63.6627 21.8414 63.5928 21.4049 63.6099 20.9675C63.5012 19.4437 62.9444 17.9859 62.0098 16.7775C61.3119 15.8439 60.8581 14.7508 60.6897 13.5974C60.5297 12.5974 60.6398 12.2275 60.7598 12.0775C60.8798 11.9275 61.2197 11.7475 62.1797 11.6975C63.1397 11.6475 64.3198 11.6075 65.3298 11.6075C68.7971 11.5755 72.2546 11.9821 75.6199 12.8175C80.395 14.0428 84.8966 16.1563 88.8896 19.0475C90.1869 19.9004 91.2556 21.0584 92.0017 22.4199C92.7478 23.7814 93.1488 25.305 93.1697 26.8575V27.6375C93.3064 29.932 93.2429 32.234 92.9797 34.5175C92.9695 34.8305 92.8973 35.1384 92.7673 35.4234C92.6373 35.7083 92.4521 35.9646 92.2224 36.1776C91.9927 36.3905 91.7232 36.5559 91.4292 36.664C91.1352 36.7721 90.8227 36.8209 90.5098 36.8075H90.1299H89.8298C89.3991 36.7885 88.9783 36.9409 88.6597 37.2314C88.341 37.5219 88.1506 37.9268 88.1299 38.3575C88.0301 39.0328 87.8863 39.7008 87.6997 40.3575C87.2697 41.8475 86.9496 43.4275 88.1396 45.0775C88.2948 45.3962 88.3837 45.7431 88.4009 46.0972C88.4181 46.4513 88.3633 46.8052 88.2397 47.1375C86.9497 53.0475 84.2398 57.2775 80.0198 60.1375C79.653 60.3643 79.3421 60.671 79.1101 61.0345C78.8781 61.3981 78.7309 61.8092 78.6797 62.2375C78.6391 62.7272 78.7079 63.2198 78.8809 63.6798C79.0538 64.1398 79.3265 64.5558 79.6797 64.8975C81.7816 67.0321 84.0127 69.0359 86.3599 70.8975C89.2647 73.2812 92.4238 75.337 95.7798 77.0275L95.8997 77.0875C96.2048 77.2631 96.5479 77.3626 96.8997 77.3775C97.1481 77.3718 97.3922 77.3105 97.6138 77.198C97.8353 77.0855 98.0286 76.9247 98.1797 76.7274C100.945 73.5877 103.347 70.146 105.34 66.4675C105.545 66.1129 105.668 65.7171 105.701 65.3089C105.734 64.9007 105.675 64.4903 105.53 64.1075C104.89 62.2875 104.94 59.8275 107.17 58.8275C107.53 58.6417 107.825 58.3509 108.016 57.9938C108.207 57.6367 108.285 57.23 108.24 56.8275V55.4375C108.24 54.1475 108.24 52.8575 108.24 51.5675C108.24 49.9175 109.24 48.8075 110.63 48.8075C111.11 48.8176 111.583 48.9265 112.02 49.1275C112.366 49.2971 112.745 49.3893 113.13 49.3975C113.476 49.3868 113.816 49.3051 114.13 49.1574C114.545 48.9562 114.998 48.847 115.46 48.8375C116.77 48.8375 117.65 49.8375 117.71 51.4375C117.71 52.6575 117.71 53.9175 117.71 55.1375V56.5875C117.665 56.993 117.735 57.403 117.912 57.7707C118.089 58.1384 118.365 58.4491 118.71 58.6675C120.12 59.4775 120.57 60.6675 120.17 62.6675C119.43 66.3275 118 68.2575 115.39 69.1275C115.003 69.2695 114.67 69.5271 114.436 69.8654C114.202 70.2036 114.077 70.606 114.08 71.0175C114.075 71.1008 114.075 71.1842 114.08 71.2675C112.569 79.4953 108.528 87.0464 102.52 92.8675C101.85 93.4974 101.142 94.0852 100.4 94.6275C100.246 94.7665 100.055 94.857 99.8499 94.8875C99.7399 94.8875 99.5499 94.6875 99.3799 94.3775L99.2698 94.1775C98.7398 91.3975 96.6397 90.2674 94.6497 89.5374C92.2346 88.6049 89.9224 87.4253 87.7498 86.0175C87.4008 85.7662 86.9888 85.6173 86.5598 85.5875C85.7198 85.5875 85.2898 86.2075 85.2698 87.4275C85.271 89.6676 85.4145 91.9055 85.6997 94.1275C85.7797 94.9475 85.8697 95.7675 85.9397 96.5875C85.9469 96.8162 86.0009 97.041 86.0981 97.2482C86.1954 97.4554 86.334 97.6405 86.5054 97.7922C86.6767 97.9439 86.8773 98.0589 87.0947 98.1303C87.3122 98.2018 87.5418 98.228 87.7698 98.2075L91.1997 98.1075C93.3597 98.0375 95.5297 97.9775 97.6997 97.8775C101.8 97.6875 105.93 97.4575 109.44 97.2475C112.426 97.0675 115.426 96.8608 118.44 96.6275H118.71C118.936 96.5986 119.166 96.648 119.36 96.7675C119.433 96.8762 119.465 97.0074 119.45 97.1375C119.45 100.287 116.16 103.947 113.06 104.267C111.06 104.467 109.13 104.617 107.47 104.727L97.5598 105.407L91.3896 105.817H91.2598C90.9898 105.817 90.5398 105.817 90.5298 105.477C90.5198 105.137 90.5297 105.067 91.2397 105.017L92.3198 104.947L100.32 104.397L101.83 104.287C105.61 104.021 109.393 103.737 113.18 103.437C114.265 103.281 115.284 102.823 116.122 102.116C116.96 101.409 117.583 100.481 117.92 99.4375C118.004 99.2202 118.035 98.9857 118.009 98.754C117.983 98.5223 117.901 98.3004 117.77 98.1075C117.638 97.9411 117.469 97.8089 117.276 97.7219C117.083 97.6349 116.871 97.5956 116.66 97.6075H116.52L115.6 97.6875L114.69 97.7675L112.1 97.9074C108.14 98.1208 104.176 98.3242 100.21 98.5175C96.2097 98.6975 92.2099 98.8574 88.3799 98.9774C88.1052 98.9704 87.832 99.0201 87.5774 99.1233C87.3228 99.2266 87.0919 99.3812 86.8997 99.5775C86.7165 99.8128 86.5845 100.084 86.5122 100.373C86.4399 100.662 86.4288 100.964 86.4797 101.257C86.7129 104.353 87.1303 107.432 87.7297 110.477C88.4147 113.741 88.8693 117.05 89.0898 120.377C89.1398 121.047 89.0198 121.057 88.7798 121.087H88.7097C88.5197 121.087 88.3898 121.037 88.3398 120.527C87.9198 116.467 87.4599 113.147 86.8799 110.087C86.7899 109.587 86.5397 108.247 85.1697 108.247C84.8271 108.262 84.4892 108.333 84.1697 108.457C80.2832 109.805 76.2033 110.511 72.0898 110.547C68.9746 110.552 65.8763 110.087 62.8997 109.167C62.1295 108.943 61.3746 108.669 60.6396 108.347C60.3304 108.185 59.9889 108.092 59.6396 108.077C59.2732 108.096 58.9191 108.215 58.6157 108.421C58.3124 108.628 58.0715 108.913 57.9197 109.247C55.906 112.696 54.1158 116.27 52.5598 119.947L52.2898 120.587C52.1098 120.897 51.9298 121.177 51.7698 121.177Z" fill="#000F2A"/>
<path d="M86 98H119L114 103.5L86 106V98Z" fill="#121B2B"/>
<path d="M55.8103 49.0576C50.5064 50.2648 45.5045 52.5412 41.1104 55.7476C39.7604 56.7476 38.4802 57.7476 37.1602 58.7476C30.3802 63.8376 18.2402 62.1575 13.1602 55.4075C12.9128 55.0973 12.6984 54.7621 12.5203 54.4075C12.3631 54.1948 12.2755 53.9386 12.2698 53.6741C12.2642 53.4097 12.3408 53.1499 12.4888 52.9306C12.6368 52.7113 12.8491 52.5433 13.0965 52.4497C13.3439 52.356 13.6143 52.3413 13.8704 52.4075C21.2704 53.5275 27.7203 50.5376 34.2103 47.7476C34.3103 47.7476 34.3703 47.5976 34.5203 47.4676C33.0803 47.1776 31.6904 46.9476 30.3304 46.6076C26.4814 45.7518 22.9276 43.8921 20.0303 41.2176C18.5486 39.9096 17.5121 38.1716 17.0657 36.2462C16.6193 34.3208 16.7853 32.3041 17.5403 30.4775C18.9908 25.9942 21.5782 21.9633 25.0503 18.7776C25.6605 18.2516 26.3052 17.7672 26.9803 17.3276C27.1902 17.1526 27.4521 17.0518 27.7251 17.041C27.9982 17.0301 28.2672 17.1098 28.4903 17.2676C28.7337 17.4282 28.9201 17.6618 29.0225 17.9349C29.1249 18.208 29.1382 18.5065 29.0604 18.7875C28.8404 19.9175 28.6903 21.0576 28.5604 22.1976C27.8104 28.9276 30.8903 33.9776 37.2403 36.3676C40.2677 37.4966 43.4796 38.0495 46.7103 37.9976C51.5071 37.8107 56.3113 37.9444 61.0904 38.3976C62.1404 38.5176 62.9504 37.5376 63.0904 36.0876C63.0904 35.5476 63.0904 35.0076 63.0904 34.4676C63.0771 33.982 63.199 33.5021 63.4427 33.0819C63.6864 32.6616 64.0422 32.3173 64.4703 32.0876C64.8303 31.9523 65.1294 31.6918 65.313 31.3539C65.4967 31.016 65.5525 30.6232 65.4703 30.2476C65.4253 29.6718 65.4253 29.0934 65.4703 28.5176C65.5903 26.8276 65.4703 25.3076 63.9703 24.0876C63.5753 23.695 63.2631 23.2272 63.0518 22.712C62.8405 22.1967 62.7346 21.6444 62.7403 21.0876C62.6196 19.7511 62.1045 18.4807 61.2603 17.4376C60.4768 16.386 59.9681 15.1554 59.7803 13.8576C59.4403 11.7576 59.9704 11.0076 62.1204 10.8576C66.7251 10.5355 71.352 10.92 75.8404 11.9976C80.7241 13.2587 85.3271 15.4263 89.4102 18.3876C90.8297 19.3161 91.9985 20.5802 92.813 22.068C93.6276 23.5558 94.0629 25.2215 94.0804 26.9176C94.2454 29.5245 94.185 32.1409 93.9002 34.7376C93.8608 35.195 93.7274 35.6393 93.5081 36.0426C93.2888 36.4459 92.9885 36.7996 92.626 37.0813C92.2635 37.363 91.8466 37.5668 91.4017 37.6797C90.9567 37.7926 90.4933 37.8123 90.0403 37.7376C89.3603 37.6676 89.1503 37.9176 89.0403 38.5076C88.9308 39.2255 88.7806 39.9367 88.5904 40.6376C88.1904 41.9876 87.9404 43.2476 88.8804 44.5576C89.1173 44.9801 89.2629 45.4476 89.3077 45.9299C89.3524 46.4123 89.2953 46.8986 89.1402 47.3576C87.9202 52.9176 85.4103 57.6476 80.5303 60.8776C79.3303 61.6776 79.2704 63.0876 80.3804 64.2376C82.4542 66.3466 84.6548 68.327 86.9703 70.1676C89.8261 72.5031 92.9317 74.5153 96.2303 76.1675C96.6603 76.3775 97.0403 76.6675 97.5303 76.0975C100.226 73.001 102.574 69.6174 104.53 66.0076C104.674 65.7635 104.76 65.4899 104.783 65.2075C104.806 64.9252 104.763 64.6414 104.66 64.3776C103.84 62.0576 104.1 59.1576 106.79 57.9576C107.32 57.7176 107.32 57.2575 107.32 56.7875C107.32 55.0175 107.32 53.2476 107.32 51.4876C107.32 48.5676 109.75 47.0276 112.39 48.2176C112.607 48.3282 112.847 48.3859 113.09 48.3859C113.334 48.3859 113.574 48.3282 113.79 48.2176C116.31 47.0776 118.57 48.4976 118.67 51.3076C118.73 53.0276 118.67 54.7576 118.67 56.4876C118.626 56.7334 118.657 56.9868 118.759 57.2149C118.861 57.4431 119.028 57.6356 119.24 57.7676C121.24 58.9176 121.55 60.7676 121.14 62.7676C120.49 65.9976 119.2 68.7676 115.75 69.9276C115.09 70.1476 115.12 70.8076 115.01 71.3676C113.528 79.8197 109.416 87.5885 103.26 93.5676C102.568 94.2323 101.829 94.8471 101.05 95.4075C100.05 96.1475 99.2902 95.9476 98.6902 94.8676C98.6017 94.7391 98.5342 94.5973 98.4903 94.4476C98.0603 92.1776 96.4903 91.1876 94.4903 90.4476C92.0168 89.4883 89.6477 88.2787 87.4202 86.8376C86.5002 86.2676 86.4204 86.5475 86.3504 87.4775C86.4083 90.5108 86.6319 93.5387 87.0203 96.5476C87.0803 97.2276 87.4703 97.3476 88.0203 97.3276C91.2903 97.2176 94.5503 97.1476 97.8103 96.9976C101.72 96.8176 105.63 96.5976 109.53 96.3676C112.53 96.1876 115.53 95.9776 118.53 95.7476C119.84 95.6476 120.53 96.1076 120.53 97.1675C120.53 100.768 116.88 104.848 113.31 105.168C111.44 105.358 109.57 105.498 107.69 105.628L91.6204 106.718C90.5104 106.798 89.7603 106.348 89.7303 105.508C89.6803 104.438 90.3903 104.148 91.3003 104.088C94.3003 103.888 97.3004 103.688 100.37 103.468C104.65 103.158 108.94 102.858 113.22 102.468C114.118 102.32 114.959 101.93 115.651 101.339C116.344 100.749 116.862 99.9807 117.15 99.1176C117.29 98.6376 117.15 98.4576 116.68 98.4876C116.07 98.4876 115.46 98.6176 114.85 98.6476C110.02 98.9076 105.2 99.1676 100.37 99.3976C96.4237 99.5776 92.4703 99.7309 88.5103 99.8576C87.5803 99.8576 87.4403 100.378 87.5103 101.128C87.7357 104.19 88.1464 107.235 88.7403 110.248C89.4341 113.544 89.8954 116.886 90.1204 120.248C90.1904 121.128 89.9803 121.818 89.0103 121.948C88.0403 122.078 87.6203 121.418 87.5303 120.568C87.1703 117.088 86.7304 113.628 86.0904 110.198C85.8804 109.098 85.5803 108.918 84.5303 109.268C77.3303 111.668 70.0502 112.268 62.6902 109.988C61.8805 109.754 61.0886 109.464 60.3204 109.118C59.5504 108.748 59.1603 108.958 58.7603 109.648C56.761 113.063 54.9839 116.604 53.4402 120.248C53.3502 120.468 53.2702 120.678 53.1802 120.888C52.8102 121.748 52.1803 122.248 51.2803 121.888C50.3803 121.528 50.3903 120.728 50.7403 119.888C51.7403 117.798 52.6304 115.688 53.6304 113.618C53.9604 112.948 54.1002 112.488 53.3902 111.968C53.0714 111.708 52.8159 111.38 52.6426 111.008C52.4694 110.635 52.383 110.228 52.3902 109.818C52.3902 109.088 52.0704 108.878 51.3404 108.818C49.9304 108.698 48.9902 108.978 48.4402 110.508C47.7526 112.113 46.6348 113.497 45.2103 114.508C44.5641 115.095 43.7723 115.497 42.9173 115.673C42.0623 115.849 41.1757 115.792 40.3504 115.508C37.4104 114.448 34.7804 112.988 34.3504 109.428C34.2804 108.818 33.8104 108.868 33.3504 108.868C31.7004 108.868 30.0504 108.868 28.3504 108.868C28.1298 108.903 27.9039 108.891 27.6883 108.832C27.4727 108.773 27.2723 108.669 27.1006 108.526C26.929 108.382 26.7901 108.204 26.6934 108.003C26.5967 107.801 26.5446 107.581 26.5403 107.358C26.3166 106.07 26.3539 104.75 26.6502 103.478C26.9151 102.466 27.4855 101.56 28.2835 100.883C29.0815 100.207 30.0687 99.793 31.1104 99.6976C32.6802 99.5675 34.256 99.5275 35.8304 99.5776C36.5804 99.5776 36.7003 99.3576 36.3104 98.7176C33.333 93.7208 31.426 88.16 30.7103 82.3876C30.3963 80.0683 30.286 77.7261 30.3804 75.3876C30.3804 74.1676 31.0403 73.4776 32.2303 73.7776C34.3203 74.2976 35.1802 73.1976 36.1802 71.6676C40.8559 64.8035 46.5943 58.7275 53.1802 53.6676C53.9982 53.0919 54.5667 52.2268 54.7703 51.2476C54.9752 50.4583 55.3282 49.7151 55.8103 49.0576ZM49.3804 94.5975V96.4376C49.3804 97.0976 49.3804 97.7476 49.3804 98.4376C49.3804 99.1276 49.4604 99.7876 50.3804 99.6976C51.1704 99.6176 52.1604 100.098 52.3804 98.6276C52.4005 98.2197 52.5022 97.8199 52.6797 97.4521C52.8573 97.0843 53.1068 96.7559 53.4136 96.4863C53.7205 96.2168 54.0785 96.0116 54.4661 95.883C54.8537 95.7544 55.2631 95.7049 55.6702 95.7376C56.2802 95.7376 56.9003 95.7376 57.5103 95.7376C58.3203 95.7376 58.7503 95.4576 58.7303 94.6076C58.6849 94.3059 58.6849 93.9992 58.7303 93.6976C59.4903 91.1776 58.6503 89.1576 57.0503 87.1876C55.4503 85.2176 53.9703 82.8776 52.4803 80.6776C51.8103 79.6776 52.1004 78.6775 53.0804 78.4775C53.9104 78.2675 54.3403 78.7676 54.7603 79.3776C56.7603 82.2476 58.7603 85.0976 60.7603 87.9676C61.1047 88.4719 61.6256 88.8287 62.2203 88.9676C68.8376 90.5824 75.7076 90.8813 82.4402 89.8475C82.6195 89.854 82.798 89.8198 82.9622 89.7475C83.1264 89.6752 83.2723 89.5667 83.3887 89.4301C83.5051 89.2935 83.589 89.1324 83.6343 88.9588C83.6796 88.7852 83.685 88.6036 83.6502 88.4276C83.5902 85.5476 83.6502 82.6675 83.6502 79.7875C83.6567 76.6579 82.7872 73.5888 81.1402 70.9276C79.9602 68.9276 78.7803 66.9276 77.5103 65.0476C77.1216 64.5964 76.876 64.0397 76.8047 63.4485C76.7335 62.8573 76.84 62.2581 77.1104 61.7276C77.2728 61.422 77.3302 61.0717 77.2742 60.7302C77.2182 60.3888 77.0518 60.0752 76.8003 59.8376C73.3603 55.6709 69.937 51.4809 66.5303 47.2676C65.8903 46.4676 65.6304 46.6676 65.3804 47.4876C65.2772 47.921 65.036 48.3093 64.6934 48.5941C64.3508 48.879 63.9252 49.0451 63.4803 49.0676C62.2703 49.2276 61.0704 49.5076 59.8604 49.7176C59.2869 49.7913 58.7442 50.0194 58.2903 50.3776C58.0903 50.5476 57.7902 50.7076 57.9102 51.0176C58.0302 51.3276 58.3203 51.1776 58.5303 51.1976C59.1496 51.2212 59.7556 51.3846 60.3028 51.6755C60.85 51.9665 61.3243 52.3774 61.6902 52.8776C62.7026 54.1662 63.4493 55.6429 63.887 57.2221C64.3247 58.8013 64.4448 60.4517 64.2403 62.0776C63.5703 67.0076 60.6703 70.5476 56.7803 73.3676C53.8182 75.4973 51.0264 77.8544 48.4302 80.4175C47.9002 80.9375 47.6603 81.4176 48.0603 82.1176C48.5663 83.0719 48.8692 84.1205 48.9502 85.1976C49.2602 88.3076 49.3704 91.4375 49.3804 94.5975ZM91.3804 30.1176C91.3804 29.1176 91.3804 28.1976 91.3804 27.2376C91.4031 25.9502 91.105 24.6775 90.5132 23.5341C89.9214 22.3906 89.0544 21.4124 87.9903 20.6876C80.9003 15.4576 72.9103 13.3376 64.2203 13.4976C63.6703 13.4976 62.9304 13.2275 62.6204 13.7875C62.3104 14.3475 62.8304 15.0076 63.1204 15.5776C63.2318 15.7796 63.3623 15.9705 63.5103 16.1476C64.4835 17.3506 65.063 18.8239 65.1702 20.3676C65.1964 20.9825 65.36 21.5837 65.649 22.127C65.938 22.6704 66.3452 23.1422 66.8404 23.5076C67.21 23.7847 67.5054 24.1487 67.7007 24.5673C67.8961 24.986 67.9852 25.4463 67.9603 25.9075C67.9603 27.7075 68.0103 29.5076 68.0203 31.3176C68.0203 31.8276 68.0203 32.3176 68.5503 32.6176L73.2403 35.5375C73.7403 35.8575 73.9102 35.6876 73.9102 35.1376C73.9102 33.8376 73.8402 32.5275 73.9102 31.2275C73.9955 30.7963 73.9126 30.3488 73.6783 29.9768C73.4439 29.6049 73.076 29.3368 72.6502 29.2275C72.4034 29.1216 72.163 29.0015 71.9302 28.8676C71.1302 28.4576 70.5704 27.8676 71.0704 26.9476C71.5704 26.0276 72.3302 26.1076 73.1402 26.5276L78.7803 29.3976C82.4003 31.2476 86.0202 33.1076 89.6502 34.9476C90.6502 35.4576 90.9803 35.2976 91.2203 34.1476C91.4284 32.815 91.4954 31.4642 91.4202 30.1176H91.3804ZM25.8604 21.6776C23.1937 24.493 21.1762 27.8586 19.9502 31.5375C19.3831 32.9984 19.3067 34.6041 19.7325 36.1122C20.1582 37.6203 21.063 38.949 22.3104 39.8976C23.8259 41.1303 25.5095 42.1405 27.3104 42.8976C32.6604 45.1676 38.2602 45.3176 43.9302 44.8976C49.8637 44.4715 55.8268 44.7636 61.6902 45.7676C62.2002 45.8476 62.8603 46.3075 63.2203 45.5375C63.5803 44.7675 64.0403 44.0176 63.2203 43.2176C62.9272 42.9116 62.7023 42.5469 62.5603 42.1476C62.4526 41.8468 62.2522 41.588 61.9881 41.4083C61.7239 41.2286 61.4097 41.1373 61.0904 41.1476C57.9237 40.8326 54.7427 40.6824 51.5603 40.6976C48.496 40.8527 45.4245 40.7825 42.3704 40.4876C38.2904 39.8776 34.3702 38.7276 31.1602 36.0576C26.7502 32.3776 25.4302 27.4376 25.9002 21.6776H25.8604ZM64.8604 38.9376C64.6851 39.4872 64.666 40.0748 64.8055 40.6347C64.945 41.1945 65.2374 41.7044 65.6502 42.1076C69.9002 47.2976 74.1704 52.4875 78.3704 57.7276C79.0304 58.5376 79.4703 58.5376 80.2203 57.9276C83.4498 55.2032 85.634 51.4427 86.4002 47.2875C86.7602 45.6675 86.4002 45.0576 84.9002 44.4376C80.7117 42.7059 76.6603 40.6601 72.7803 38.3176C70.7803 37.1276 68.7803 35.8576 66.7803 34.6376C65.9603 34.1376 65.7002 34.2975 65.6402 35.2275C65.6208 35.5513 65.6875 35.8745 65.8333 36.1643C65.9791 36.454 66.1988 36.7001 66.4703 36.8776C69.8603 39.7076 73.2304 42.5576 76.6104 45.3876C77.3004 45.9776 77.7203 46.6676 77.0303 47.4576C76.3403 48.2476 75.6002 47.9776 74.9102 47.3876L72.1802 45.0975L64.8604 38.9376ZM46.6702 93.2176H46.4102C46.4102 90.9976 46.4702 88.7676 46.4102 86.5476C46.3955 85.333 46.1011 84.1382 45.5496 83.0559C44.9981 81.9737 44.2044 81.0332 43.2303 80.3076C40.5589 78.3498 37.4349 77.101 34.1502 76.6776C33.2102 76.5176 32.9403 76.9176 32.9603 77.8176C33.0148 80.0802 33.2556 82.3345 33.6802 84.5576C34.466 88.7623 35.9212 92.8137 37.9903 96.5576C38.2303 97.0076 38.3702 97.5576 39.1502 97.0676C40.1138 96.3931 41.2252 95.9594 42.3909 95.8028C43.5566 95.6462 44.743 95.7713 45.8504 96.1675C46.4704 96.3775 46.7002 96.1676 46.6902 95.5476C46.6802 94.9276 46.7203 93.9776 46.7203 93.2176H46.6702ZM98.6702 81.8475C98.6178 85.0972 99.0838 88.3345 100.05 91.4376C100.29 92.2076 100.52 92.4375 101.25 91.7875C107.012 86.2289 110.911 79.022 112.41 71.1575C112.57 70.4075 112.35 70.1576 111.63 69.9776C110.144 69.7416 108.737 69.1479 107.53 68.2476C106.85 67.7076 106.53 67.8876 106.15 68.5676C104.692 71.3174 102.909 73.8824 100.84 76.2076C99.2604 77.9576 98.3302 79.8575 98.6902 81.8475H98.6702ZM72.2403 108.848C73.5453 108.892 74.8515 108.808 76.1402 108.598C78.9219 108.262 81.6585 107.621 84.3003 106.688C84.8003 106.518 85.2402 106.318 85.1702 105.688C84.8969 103.101 84.6304 100.508 84.3704 97.9075C84.3004 97.1975 83.9704 97.1376 83.3704 97.3376C76.4504 99.6576 69.4703 99.3376 62.4803 97.6976C61.9203 97.5776 61.0303 97.1576 61.0403 98.1176C61.0403 99.3576 59.9903 100.698 61.2503 101.858C61.3503 101.948 61.5302 101.948 61.6802 101.988C63.4177 102.484 65.2058 102.783 67.0103 102.878C71.8932 103.176 76.7841 102.437 81.3604 100.708C82.2004 100.398 83.0004 100.408 83.3604 101.408C83.7204 102.408 83.1204 102.848 82.3604 103.148C75.7473 105.774 68.4882 106.312 61.5603 104.688C60.4903 104.428 60.2203 104.688 60.2503 105.798C60.2503 106.578 60.8504 106.728 61.3604 106.928C64.8321 108.275 68.538 108.914 72.2603 108.808L72.2403 108.848ZM51.1104 47.4176C48.1804 47.6076 45.2604 47.8475 42.3304 47.9776C39.9635 48.2058 37.6708 48.928 35.6004 50.0975C31.1989 52.304 26.5299 53.9309 21.7103 54.9376C20.2003 55.2276 18.6503 55.3876 16.9703 55.6276C17.2703 55.8776 17.4304 56.0376 17.6104 56.1676C19.8232 57.7901 22.4446 58.7632 25.1802 58.9776C29.3202 59.3376 33.1803 58.7375 36.5403 55.9776C38.0443 54.7221 39.6313 53.5695 41.2903 52.5276C44.3992 50.5022 47.6942 48.7777 51.1304 47.3776L51.1104 47.4176ZM46.9102 103.528V100.748C46.923 100.362 46.8152 99.9829 46.6019 99.662C46.3885 99.3411 46.0803 99.0948 45.7203 98.9576C44.9314 98.5482 44.0476 98.3564 43.16 98.4021C42.2723 98.4478 41.4129 98.7293 40.6702 99.2176C40.3371 99.3578 40.0674 99.6157 39.9124 99.9422C39.7575 100.269 39.7283 100.641 39.8304 100.988C40.1271 102.165 40.1318 103.397 39.8443 104.577C39.5567 105.757 38.9855 106.849 38.1802 107.758C36.4202 109.758 36.5302 110.368 38.6802 111.958C39.0493 112.23 39.4408 112.471 39.8504 112.678C41.6204 113.578 42.7903 113.348 44.2103 111.948C45.3189 110.866 46.1463 109.53 46.6204 108.055C47.0945 106.581 47.2008 105.013 46.9302 103.488L46.9102 103.528ZM84.8604 72.0375C86.0291 75.373 86.5053 78.9118 86.2603 82.4376C86.2585 82.6677 86.3212 82.8937 86.4415 83.0899C86.5617 83.2861 86.7344 83.4447 86.9402 83.5476C89.6945 85.2912 92.5723 86.8319 95.5503 88.1575C96.4203 88.5475 96.5502 88.1576 96.4302 87.4276C96.0158 84.9706 95.8951 82.4731 96.0704 79.9876C96.1187 79.7288 96.0699 79.4613 95.9334 79.2362C95.7969 79.0111 95.5822 78.8443 95.3304 78.7676C92.527 77.4266 89.8666 75.805 87.3902 73.9276C86.5702 73.2876 85.7204 72.6376 84.8804 71.9976L84.8604 72.0375ZM58.2603 68.6276C59.0792 67.7359 59.7877 66.7488 60.3704 65.6876C60.4468 65.5553 60.4869 65.4053 60.4869 65.2526C60.4869 65.0999 60.4468 64.9498 60.3704 64.8176C59.026 61.8376 56.9647 59.2369 54.3704 57.2476C54.1765 57.0678 53.9193 56.9721 53.6551 56.9815C53.3908 56.9909 53.1409 57.1045 52.9603 57.2976C50.6502 59.2976 48.3903 61.3876 46.2303 63.5676C45.6103 64.1976 45.6602 64.4576 46.4502 64.8376C49.3559 66.2638 51.8663 68.3827 53.7603 71.0076C54.0003 71.3276 54.1503 72.0076 54.7603 71.5676C55.3703 71.1276 56.0304 71.0376 55.8504 70.0476C55.5252 68.2638 54.8451 66.5635 53.8504 65.0476C53.1726 64.0714 52.4168 63.1517 51.5904 62.2976C51.4073 62.139 51.2712 61.9333 51.1973 61.7026C51.1234 61.472 51.1144 61.2255 51.1712 60.9901C51.228 60.7547 51.3484 60.5395 51.5193 60.3679C51.6903 60.1964 51.905 60.0752 52.1402 60.0176C52.8002 59.8476 53.2302 60.2476 53.6402 60.6476C55.8694 62.844 57.4655 65.6007 58.2603 68.6276ZM116.1 55.1676C116.1 54.0876 116.1 53.0176 116.1 51.9376C116.1 51.4176 116.22 50.7076 115.46 50.6776C114.7 50.6476 114.46 51.3476 114.46 51.8976C114.4 53.6976 114.46 55.4976 114.46 57.3076C114.494 57.5324 114.595 57.7416 114.75 57.9075C115.223 58.5427 115.5 59.3012 115.55 60.0911C115.6 60.881 115.419 61.6682 115.03 62.3576C114.728 63.0516 114.235 63.6456 113.608 64.0704C112.981 64.4953 112.247 64.7336 111.49 64.7576C110.69 64.8476 110 64.6376 109.87 63.7076C109.83 63.5276 109.83 63.3408 109.872 63.1611C109.913 62.9813 109.995 62.8132 110.11 62.6692C110.225 62.5252 110.371 62.4089 110.537 62.329C110.704 62.2491 110.886 62.2076 111.07 62.2076C111.34 62.1898 111.602 62.1177 111.843 61.9957C112.083 61.8737 112.297 61.7042 112.47 61.4976C112.67 61.2176 112.94 60.9276 112.77 60.5576C112.6 60.1876 112.24 60.3176 111.94 60.3176C111.1 60.3176 110.25 60.3176 109.41 60.3176C107.33 60.3176 106.64 61.1676 107.07 63.2176C107.204 63.8587 107.488 64.4587 107.9 64.9676C108.517 65.7107 109.279 66.3214 110.138 66.7631C110.997 67.2047 111.937 67.4681 112.9 67.5375C114.58 67.7675 116.15 67.5376 117.22 66.0276C118.084 64.7947 118.596 63.3495 118.7 61.8475C118.754 61.6417 118.761 61.4266 118.722 61.2176C118.683 61.0086 118.598 60.8107 118.474 60.638C118.35 60.4653 118.19 60.322 118.004 60.2182C117.819 60.1145 117.612 60.0527 117.4 60.0375C117.207 60.0181 117.02 59.9596 116.85 59.8655C116.681 59.7714 116.532 59.6437 116.413 59.4903C116.294 59.3369 116.208 59.1609 116.159 58.973C116.111 58.7852 116.101 58.5894 116.13 58.3976C116.09 57.3176 116.08 56.2376 116.08 55.1676H116.1ZM72.9102 96.1675C76.4259 96.2737 79.9311 95.7313 83.2503 94.5676C84.1203 94.2576 84.0702 93.7375 83.9202 93.0375C83.7702 92.3375 83.2803 92.3576 82.7103 92.4376C80.3934 92.8004 78.0548 93.0076 75.7103 93.0576C71.3411 93.1889 66.9729 92.7655 62.7103 91.7976C62.3802 91.7176 62.0403 91.5376 61.7103 91.7976C61.5332 92.0475 61.414 92.3339 61.3616 92.6357C61.3092 92.9375 61.3249 93.2472 61.4073 93.5422C61.4897 93.8373 61.6367 94.1103 61.8379 94.3413C62.0391 94.5723 62.2894 94.7555 62.5704 94.8776C65.9388 95.7588 69.4085 96.1925 72.8902 96.1675H72.9102ZM76.6104 33.9676C76.5872 34.9231 76.6339 35.879 76.7503 36.8276C76.7598 37.0563 76.8295 37.2785 76.9524 37.4717C77.0754 37.6648 77.247 37.8221 77.4502 37.9276C79.8602 39.1976 82.2903 40.4176 84.7803 41.5076C85.4303 41.7876 85.7204 41.5875 85.8504 40.9775C86.1104 39.7775 86.3304 38.5776 86.6104 37.3776C86.6611 37.2254 86.6806 37.0645 86.6675 36.9046C86.6545 36.7446 86.6092 36.589 86.5345 36.447C86.4597 36.305 86.3569 36.1795 86.2325 36.0783C86.108 35.977 85.9646 35.9019 85.8103 35.8576C83.5704 34.7776 81.3502 33.6476 79.1502 32.4876C76.5702 31.1476 76.5904 31.1276 76.5904 33.9676H76.6104ZM49.0403 76.1276C49.112 76.1009 49.1794 76.0639 49.2403 76.0176L51.8704 73.7776C52.1904 73.4976 52.0504 73.2375 51.8704 72.9776C49.9494 70.1655 47.2488 67.9758 44.1004 66.6776C43.1004 66.2476 42.9004 67.3775 42.3804 67.8475C41.8604 68.3175 42.3802 68.5176 42.6502 68.7576C45.0731 70.6674 47.0838 73.0487 48.5603 75.7576C48.6303 75.9276 48.7003 76.1976 49.0203 76.1276H49.0403ZM40.5103 70.5276C40.3843 70.5457 40.2648 70.5943 40.1619 70.6693C40.0591 70.7442 39.976 70.8432 39.9202 70.9576C39.2102 71.9576 38.5303 72.9576 37.8104 73.9576C37.4304 74.4876 37.6902 74.6976 38.1902 74.8376C40.8729 75.5487 43.3566 76.8658 45.4502 78.6876C45.6502 78.8676 45.8702 79.0575 46.1602 78.8475C46.4502 78.6375 46.7202 78.4076 46.6402 77.9976C46.6045 77.8104 46.544 77.6288 46.4603 77.4576C45.1489 74.8368 43.2659 72.5437 40.9502 70.7476C40.8034 70.6613 40.6496 70.5877 40.4903 70.5276H40.5103ZM54.9502 104.358V109.438C54.9502 109.668 54.9502 109.938 55.1902 110.038C55.4302 110.138 55.5504 109.928 55.6304 109.758C56.3704 108.238 57.7002 107.018 57.6802 105.108C57.7275 103.578 57.8646 102.052 58.0904 100.538C58.3304 98.3075 58.3502 98.3475 56.1502 98.3576C55.2702 98.3576 54.9102 98.6476 54.9302 99.5576C54.9602 101.138 54.9302 102.748 54.9302 104.358H54.9502ZM32.5904 106.298C33.4704 106.298 34.3503 106.298 35.2303 106.298C36.5103 106.228 37.8103 104.038 37.2903 102.878C37.2279 102.737 37.1229 102.62 36.99 102.543C36.8572 102.466 36.7032 102.432 36.5503 102.448C34.7503 102.448 32.9402 102.378 31.1502 102.508C30.793 102.58 30.4551 102.726 30.1573 102.936C29.8595 103.146 29.6085 103.416 29.4205 103.728C29.2324 104.04 29.1113 104.388 29.0647 104.749C29.0182 105.111 29.0473 105.478 29.1502 105.828C29.3002 106.248 29.6103 106.298 29.9603 106.298H32.5904ZM61.5904 61.5476C61.7778 59.1373 61.1548 56.7335 59.8204 54.7176C59.6081 54.4458 59.3378 54.2247 59.0293 54.0704C58.7208 53.9162 58.3817 53.8327 58.0369 53.826C57.6921 53.8193 57.3502 53.8896 57.0359 54.0317C56.7217 54.1738 56.443 54.3842 56.2203 54.6476C55.9703 54.9476 55.9403 55.1675 56.2203 55.4075C58.3738 57.1025 60.1917 59.1849 61.5804 61.5476H61.5904ZM110.01 54.1476C110.01 54.9876 110.01 55.8376 110.01 56.6776C110.01 57.2376 110.11 57.6776 110.81 57.6776C111.51 57.6776 111.81 57.3976 111.81 56.6776C111.81 55.9576 111.81 55.0676 111.81 54.2676C111.81 53.4676 111.81 52.4976 111.75 51.6276C111.75 51.0576 111.44 50.5676 110.75 50.6276C110.06 50.6876 110.07 51.2276 110.06 51.7376L110.01 54.1476ZM49.6502 104.328C49.6502 106.328 49.6503 106.268 51.0603 106.328C52.0603 106.328 52.3903 105.968 52.3003 105.038C52.2554 104.619 52.2554 104.196 52.3003 103.778C52.4303 102.698 51.9202 102.408 50.9002 102.398C49.8802 102.388 49.5102 102.788 49.6502 103.768C49.6565 103.954 49.6532 104.141 49.6402 104.328H49.6502Z" fill="#0088CC"/>
<path d="M76.9001 51.3376C76.909 51.4713 76.8892 51.6052 76.842 51.7305C76.7949 51.8559 76.7216 51.9696 76.627 52.0643C76.5323 52.159 76.4185 52.2324 76.2932 52.2795C76.1679 52.3267 76.0338 52.3465 75.9001 52.3376C75.5559 52.3251 75.228 52.1887 74.9763 51.9535C74.7246 51.7183 74.5662 51.4002 74.5303 51.0576C74.5303 50.7924 74.6357 50.5381 74.8232 50.3505C75.0108 50.163 75.2651 50.0576 75.5303 50.0576C75.8745 50.0702 76.2026 50.2066 76.4543 50.4418C76.706 50.6769 76.8642 50.9951 76.9001 51.3376Z" fill="#0088CC"/>
<path d="M77.8403 40.4375C77.8292 40.5718 77.7908 40.7026 77.7279 40.8218C77.6651 40.941 77.5789 41.0463 77.4743 41.1313C77.3697 41.2163 77.2489 41.2793 77.1193 41.3164C76.9897 41.3536 76.8539 41.3641 76.7201 41.3475C75.8301 41.3475 74.7202 40.3475 74.7702 39.7475C74.769 39.6045 74.7984 39.4629 74.8566 39.3322C74.9148 39.2016 75.0002 39.0849 75.1073 38.9901C75.2144 38.8953 75.3407 38.8246 75.4775 38.7828C75.6142 38.7409 75.7583 38.7289 75.9001 38.7475C76.8201 38.7775 77.8703 39.6575 77.8403 40.4375Z" fill="#0088CC"/>
</svg>
