<svg width="52" height="53" viewBox="0 0 52 53" fill="none" xmlns="http://www.w3.org/2000/svg">
<path d="M51.5701 36.0201V49.84C51.6009 50.1914 51.5541 50.5452 51.4332 50.8765C51.3122 51.2078 51.12 51.5085 50.8702 51.7574C50.6203 52.0063 50.3189 52.1973 49.9871 52.317C49.6554 52.4367 49.3014 52.4821 48.9501 52.45H32.8701C32.5144 52.4975 32.1526 52.4625 31.8126 52.3477C31.4726 52.233 31.1635 52.0416 30.9093 51.7884C30.6551 51.5351 30.4625 51.2267 30.3465 50.8872C30.2304 50.5476 30.1941 50.1859 30.2401 49.83C30.2401 46.4967 30.2401 43.2034 30.2401 39.95C30.2708 39.1917 30.1126 38.4377 29.7796 37.7557C29.4467 37.0737 28.9495 36.4851 28.3327 36.0429C27.716 35.6006 26.999 35.3186 26.2462 35.2221C25.4935 35.1256 24.7285 35.2177 24.0201 35.4901C23.1895 35.7564 22.4586 36.2674 21.9233 36.9561C21.388 37.6449 21.0732 38.4793 21.0201 39.35C20.9667 39.8415 20.9433 40.3358 20.9501 40.83C20.9501 43.92 20.9501 47.01 20.9501 50.1C20.9708 50.4127 20.9244 50.7261 20.8141 51.0193C20.7038 51.3126 20.5321 51.5789 20.3105 51.8004C20.089 52.022 19.8227 52.1936 19.5294 52.304C19.2362 52.4143 18.9228 52.4607 18.6101 52.44C13.2035 52.44 7.79347 52.44 2.38014 52.44C2.06315 52.4605 1.74545 52.4133 1.44811 52.3015C1.15077 52.1898 0.880593 52.0161 0.655513 51.7919C0.430432 51.5678 0.255595 51.2983 0.142604 51.0015C0.0296125 50.7046 -0.0189484 50.3871 0.000143813 50.07C0.000143813 40.7367 0.000143813 31.4334 0.000143813 22.16C-0.0146846 21.1731 0.218304 20.1983 0.677779 19.3248C1.13725 18.4513 1.80853 17.707 2.63014 17.16L14.6301 8.51004L24.1801 1.61005C24.6053 1.19886 25.1737 0.968994 25.7651 0.968994C26.3566 0.968994 26.925 1.19886 27.3501 1.61005L48.9301 17.19C49.7661 17.7646 50.4442 18.5401 50.902 19.4453C51.3598 20.3504 51.5827 21.3562 51.5501 22.37L51.5701 36.0201ZM4.37014 34.85C4.37014 39.0167 4.37014 43.18 4.37014 47.34C4.37014 47.82 4.48014 47.9901 4.99014 47.9901C8.69014 47.9901 12.3935 47.9901 16.1001 47.9901C16.6001 47.9901 16.7301 47.83 16.7201 47.34C16.7201 44.94 16.7201 42.53 16.7201 40.13C16.7213 39.4286 16.7882 38.7289 16.9201 38.04C17.3137 35.798 18.5421 33.7884 20.3581 32.4159C22.1741 31.0434 24.4427 30.4101 26.707 30.6433C28.9713 30.8766 31.063 31.9592 32.5611 33.6731C34.0591 35.387 34.852 37.6049 34.7801 39.88C34.7801 42.4 34.7801 44.93 34.7801 47.46C34.7801 47.95 34.9201 48.1 35.4101 48.09C39.1101 48.09 42.8201 48.09 46.5201 48.09C46.9801 48.09 47.1301 47.9701 47.1301 47.4901C47.1301 39.1567 47.1301 30.8234 47.1301 22.4901C47.1406 22.1644 47.0714 21.8411 46.9285 21.5483C46.7856 21.2555 46.5733 21.0021 46.3101 20.81C45.9501 20.53 45.5701 20.2601 45.2001 19.9901C38.8601 15.4301 32.5401 10.86 26.2401 6.28003C25.9301 6.05003 25.6901 5.93002 25.3101 6.21002C18.6435 11.0234 11.9768 15.82 5.31014 20.6C4.99069 20.8053 4.73037 21.0904 4.55498 21.4271C4.37958 21.7639 4.29518 22.1406 4.31014 22.5201C4.35681 26.6267 4.37681 30.7367 4.37014 34.85Z" fill="#7D6B3B"/>
</svg>
