<svg width="450" height="127" viewBox="0 0 450 127" fill="none" xmlns="http://www.w3.org/2000/svg">
<path fill-rule="evenodd" clip-rule="evenodd" d="M219.007 14.7979L56.9474 14.7979C29.7452 14.7979 7.69336 36.8497 7.69336 64.0519C7.69336 91.2542 29.7452 113.306 56.9474 113.306L219.007 113.306V112.247L56.9474 112.247C30.3302 112.247 8.75259 90.6692 8.75259 64.0519C8.75259 37.4346 30.3302 15.8571 56.9474 15.8571L219.007 15.8571V14.7979ZM244.337 112.247L392.502 112.247C419.12 112.247 440.697 90.6693 440.697 64.052C440.697 37.4347 419.12 15.8572 392.502 15.8572L244.337 15.8571V14.7979L392.502 14.798C419.705 14.798 441.756 36.8498 441.756 64.052C441.756 91.2543 419.705 113.306 392.502 113.306L244.337 113.306V112.247Z" fill="#ECCD7A"/>
<path d="M56.9474 14.7979L56.9474 13.8128H56.9474V14.7979ZM219.007 14.7979H219.992V13.8128L219.007 13.8128L219.007 14.7979ZM56.9474 113.306L56.9474 112.321H56.9474V113.306ZM219.007 113.306L219.007 114.291L219.992 114.291V113.306H219.007ZM219.007 112.247H219.992V111.262L219.007 111.262L219.007 112.247ZM56.9474 112.247L56.9474 111.262H56.9474V112.247ZM56.9474 15.8571L56.9474 14.872H56.9474V15.8571ZM219.007 15.8571L219.007 16.8422L219.992 16.8422V15.8571H219.007ZM244.337 112.247L244.337 111.262L243.352 111.262V112.247H244.337ZM392.502 112.247L392.502 113.232H392.502V112.247ZM392.502 15.8572L392.502 16.8423H392.502V15.8572ZM244.337 15.8571H243.352V16.8422L244.337 16.8422L244.337 15.8571ZM244.337 14.7979L244.337 13.8128L243.352 13.8128V14.7979H244.337ZM392.502 14.798L392.502 15.783H392.502V14.798ZM392.502 113.306L392.502 114.291H392.502V113.306ZM244.337 113.306H243.352V114.291L244.337 114.291L244.337 113.306ZM56.9474 15.7829L219.007 15.783L219.007 13.8128L56.9474 13.8128L56.9474 15.7829ZM8.67844 64.0519C8.67844 37.3937 30.2892 15.7829 56.9474 15.7829V13.8128C29.2011 13.8128 6.70828 36.3056 6.70828 64.0519H8.67844ZM56.9474 112.321C30.2892 112.321 8.67844 90.7102 8.67844 64.0519H6.70828C6.70828 91.7982 29.2011 114.291 56.9474 114.291V112.321ZM219.007 112.321L56.9474 112.321L56.9474 114.291L219.007 114.291L219.007 112.321ZM219.992 113.306V112.247H218.022V113.306H219.992ZM56.9474 113.232L219.007 113.232L219.007 111.262L56.9474 111.262L56.9474 113.232ZM7.76751 64.0519C7.76751 91.2133 29.7861 113.232 56.9474 113.232V111.262C30.8742 111.262 9.73767 90.1252 9.73767 64.0519H7.76751ZM56.9474 14.872C29.7861 14.872 7.76751 36.8906 7.76751 64.0519H9.73767C9.73767 37.9787 30.8742 16.8422 56.9474 16.8422V14.872ZM219.007 14.872L56.9474 14.872L56.9474 16.8422L219.007 16.8422L219.007 14.872ZM219.992 15.8571V14.7979H218.022V15.8571H219.992ZM244.337 113.232L392.502 113.232L392.502 111.262L244.337 111.262L244.337 113.232ZM392.502 113.232C419.664 113.232 441.682 91.2133 441.682 64.052H439.712C439.712 90.1253 418.576 111.262 392.502 111.262V113.232ZM441.682 64.052C441.682 36.8907 419.664 14.8721 392.502 14.8721V16.8423C418.576 16.8423 439.712 37.9788 439.712 64.052H441.682ZM392.502 14.8721L244.337 14.8721L244.337 16.8422L392.502 16.8423L392.502 14.8721ZM243.352 14.7979V15.8571H245.322V14.7979H243.352ZM244.337 15.783L392.502 15.783L392.502 13.8129L244.337 13.8128L244.337 15.783ZM392.502 15.783C419.161 15.783 440.771 37.3938 440.771 64.052H442.742C442.742 36.3057 420.249 13.8129 392.502 13.8129V15.783ZM440.771 64.052C440.771 90.7103 419.161 112.321 392.502 112.321V114.291C420.249 114.291 442.742 91.7983 442.742 64.052H440.771ZM392.502 112.321L244.337 112.321L244.337 114.291L392.502 114.291L392.502 112.321ZM243.352 112.247V113.306H245.322V112.247H243.352Z" fill="#ECCD7A"/>
<rect x="7.73438" y="57.1316" width="10.938" height="10.938" transform="rotate(45 7.73438 57.1316)" fill="#ECCD7A"/>
<rect x="441.314" y="57.1316" width="10.938" height="10.938" transform="rotate(45 441.314 57.1316)" fill="#ECCD7A"/>
<rect width="18.0446" height="18.0446" transform="matrix(-0.707107 0.707107 0.707107 0.707107 231.768 2)" stroke="#ECCD7A" stroke-width="1.49004"/>
<rect width="18.0446" height="18.0446" transform="matrix(-0.707107 0.707107 0.707107 0.707107 231.768 100.343)" stroke="#ECCD7A" stroke-width="1.49004"/>
<rect width="10.2703" height="10.2703" transform="matrix(-0.707107 0.707107 0.707107 0.707107 231.768 105.84)" fill="white"/>
<rect width="10.2703" height="10.2703" transform="matrix(-0.707107 0.707107 0.707107 0.707107 231.768 7.21533)" fill="#51C3F2"/>
</svg>
