<svg width="195" height="61" viewBox="0 0 195 61" fill="none" xmlns="http://www.w3.org/2000/svg">
<path d="M43.7646 30.4143L35.415 30.4143" stroke="#0088CC" stroke-width="2"/>
<rect width="40.6199" height="40.6199" transform="matrix(-0.707107 0.707107 0.707107 0.707107 72.4863 1.59875)" stroke="#0088CC" stroke-width="2"/>
<rect width="12.241" height="12.241" transform="matrix(-0.707107 0.707107 0.707107 0.707107 175.661 21.6658)" fill="white"/>
<rect width="24.2203" height="24.2203" transform="matrix(-0.707107 0.707107 0.707107 0.707107 92.0996 13.1949)" stroke="#0088CC" stroke-width="2"/>
<rect width="24.2203" height="24.2203" transform="matrix(-0.707107 0.707107 0.707107 0.707107 175.597 13.1949)" stroke="#0088CC" stroke-width="2"/>
<rect width="9.44708" height="9.44708" transform="matrix(-0.707107 0.707107 0.707107 0.707107 142.624 23.6414)" stroke="#0088CC" stroke-width="2"/>
<rect width="24.2203" height="24.2203" transform="matrix(-0.707107 0.707107 0.707107 0.707107 18.623 13.1949)" stroke="#ECCD7A" stroke-width="2"/>
<path d="M158.654 30.4143H148.969M136.277 30.4143H108.89" stroke="#0088CC" stroke-width="2"/>
</svg>
