<svg width="115" height="115" viewBox="0 0 115 115" fill="none" xmlns="http://www.w3.org/2000/svg">
<path d="M57.43 112.86C88.0431 112.86 112.86 88.0431 112.86 57.43C112.86 26.8169 88.0431 2 57.43 2C26.8169 2 2 26.8169 2 57.43C2 88.0431 26.8169 112.86 57.43 112.86Z" stroke="#0088CC" stroke-width="3" stroke-miterlimit="10"/>
<path d="M57.432 31.7625L31.3965 57.7981L57.4322 83.8338L83.4677 57.7982L57.432 31.7625Z" stroke="#0088CC" stroke-width="1.3" stroke-linecap="round" stroke-linejoin="round"/>
<path d="M57.4248 39.0144L38.6582 57.781L57.4248 76.5476L76.1914 57.781L57.4248 39.0144Z" stroke="#0088CC" stroke-width="0.65" stroke-linecap="round" stroke-linejoin="round"/>
<path d="M17.3105 57.8C17.3105 65.735 19.6633 73.4917 24.0718 80.0894C28.4802 86.6871 34.7462 91.8294 42.0771 94.866C49.4081 97.9026 57.4751 98.6971 65.2576 97.149C73.0401 95.601 80.1887 91.78 85.7996 86.1691C91.4104 80.5582 95.2315 73.4095 96.7795 65.627C98.3276 57.8445 97.5332 49.7777 94.4966 42.4467C91.46 35.1157 86.3177 28.8498 79.72 24.4414C73.1223 20.033 65.3654 17.6799 57.4304 17.6799C46.7899 17.6799 36.5852 21.9069 29.0613 29.4308C21.5373 36.9548 17.3105 47.1595 17.3105 57.8Z" stroke="#0088CC" stroke-width="12.99" stroke-linejoin="round" stroke-dasharray="1.04 12.96"/>
<path d="M18.0006 65.1899C19.4652 72.9897 23.2102 80.18 28.7618 85.8512C34.3134 91.5223 41.4222 95.4195 49.1891 97.05C56.9559 98.6804 65.0319 97.9707 72.3953 95.0107C79.7588 92.0507 86.079 86.9733 90.5565 80.4209C95.0339 73.8684 97.4673 66.1352 97.5492 58.1995C97.631 50.2638 95.3576 42.482 91.0162 35.8386C86.6748 29.1952 80.4606 23.9886 73.1598 20.8774C65.8589 17.7661 57.7994 16.8901 50.0006 18.36C39.5475 20.3274 30.3038 26.3663 24.3028 35.1483C18.3018 43.9304 16.035 54.7365 18.0006 65.1899Z" stroke="#0088CC" stroke-width="6.5" stroke-linejoin="round" stroke-dasharray="1.04 12.96"/>
<path d="M54.4799 57.8C54.48 58.3954 54.6573 58.9774 54.9892 59.4717C55.3211 59.9661 55.7926 60.3505 56.3437 60.576C56.8948 60.8016 57.5004 60.858 58.0837 60.7381C58.6669 60.6183 59.2013 60.3275 59.6188 59.9029C60.0363 59.4784 60.3181 58.9392 60.4282 58.354C60.5382 57.7688 60.4717 57.164 60.237 56.6168C60.0022 56.0696 59.6099 55.6046 59.11 55.2811C58.6102 54.9575 58.0252 54.7901 57.4299 54.8C57.0382 54.7999 56.6505 54.8778 56.2892 55.0292C55.928 55.1805 55.6007 55.4023 55.3261 55.6816C55.0515 55.9608 54.8352 56.292 54.6899 56.6557C54.5446 57.0194 54.4733 57.4084 54.4799 57.8Z" stroke="#0088CC" stroke-width="1.3" stroke-miterlimit="10"/>
<path d="M27.3899 54.0599C27.6336 53.0439 28.2139 52.1401 29.0364 51.4956C29.8588 50.8511 30.875 50.5037 31.9199 50.5099C32.9199 50.4399 33.8598 50.27 34.8198 50.16C34.967 50.1556 35.1091 50.1049 35.2258 50.0151C35.3425 49.9254 35.428 49.8011 35.47 49.66C35.5497 49.3375 35.6741 49.0278 35.8398 48.74C35.9809 48.5644 36.0856 48.3624 36.1475 48.1458C36.2093 47.9293 36.2272 47.7025 36.2002 47.4789C36.1732 47.2554 36.1016 47.0394 35.99 46.8438C35.8783 46.6482 35.7288 46.4769 35.55 46.34C34.947 45.6737 34.3921 44.9652 33.8899 44.22C33.1828 43.3676 32.8319 42.2754 32.9102 41.1707C32.9884 40.066 33.4899 39.0341 34.3101 38.29C35.5301 37.05 36.76 35.83 37.99 34.61C38.7266 33.8097 39.7402 33.3198 40.825 33.2399C41.9097 33.1601 42.984 33.4961 43.8298 34.1799C44.8298 34.8999 45.76 35.65 46.7 36.41C46.8248 36.5296 46.986 36.6043 47.158 36.6224C47.3299 36.6405 47.5029 36.6009 47.6499 36.5099C48.1572 36.2565 48.6819 36.0393 49.22 35.86C49.397 35.8102 49.5532 35.7043 49.665 35.5583C49.7768 35.4122 49.838 35.2339 49.8398 35.05C49.9698 33.81 50.1301 32.57 50.3101 31.34C50.4672 30.3375 50.972 29.4224 51.7363 28.7551C52.5006 28.0877 53.4755 27.7106 54.49 27.6899H60.1899C61.2035 27.7082 62.1781 28.0832 62.9426 28.7489C63.7071 29.4146 64.2125 30.3285 64.3699 31.33C64.5599 32.56 64.7099 33.8 64.8499 35.04C64.8483 35.2247 64.9084 35.4047 65.0208 35.5515C65.1331 35.6982 65.2912 35.8032 65.47 35.85C66.0391 36.0523 66.5966 36.286 67.1399 36.55C67.2651 36.622 67.4107 36.6503 67.5537 36.6304C67.6968 36.6105 67.8292 36.5434 67.9299 36.4399C68.8399 35.7299 69.7499 35.02 70.6599 34.33C71.0885 33.9481 71.5887 33.655 72.1313 33.4677C72.674 33.2804 73.2484 33.2027 73.8213 33.239C74.3942 33.2752 74.9543 33.4248 75.469 33.679C75.9837 33.9332 76.4428 34.2871 76.8198 34.72C78.0098 35.91 79.1999 37.09 80.3799 38.28C81.1985 39.0272 81.6987 40.0604 81.7769 41.166C81.855 42.2716 81.5054 43.365 80.8 44.22C80.09 45.22 79.3499 46.11 78.6099 47.04C78.4936 47.154 78.4194 47.3041 78.3994 47.4658C78.3794 47.6274 78.415 47.791 78.5 47.9299C78.7551 48.4584 78.9754 49.0029 79.1599 49.5599C79.212 49.7368 79.3201 49.8919 79.468 50.002C79.6159 50.112 79.7956 50.171 79.98 50.17C81.22 50.31 82.4599 50.45 83.6899 50.65C84.7126 50.8045 85.6448 51.3242 86.314 52.1129C86.9831 52.9015 87.3439 53.9058 87.3298 54.9399C87.3298 56.6199 87.2598 58.2999 87.3298 59.9399C87.382 60.5559 87.3071 61.1759 87.1096 61.7617C86.9121 62.3474 86.5964 62.8862 86.1819 63.3448C85.7674 63.8033 85.263 64.1718 84.7002 64.4273C84.1374 64.6828 83.5279 64.8198 82.9099 64.83C81.9099 64.92 80.8598 65.08 79.8398 65.2C79.6918 65.2012 79.5485 65.2507 79.4312 65.3409C79.3138 65.4312 79.2291 65.5572 79.1899 65.7C79.1321 65.968 79.0307 66.2247 78.8899 66.46C78.7272 66.6626 78.6078 66.8964 78.5386 67.1469C78.4694 67.3974 78.452 67.6594 78.4875 67.9168C78.5231 68.1742 78.6108 68.4217 78.7454 68.644C78.8799 68.8664 79.0585 69.059 79.27 69.21C79.8335 69.839 80.3512 70.5074 80.8198 71.21C81.5003 72.0565 81.8355 73.1291 81.7576 74.2125C81.6797 75.2958 81.1945 76.3096 80.3999 77.05C79.1599 78.3 77.9299 79.55 76.6699 80.78C75.9294 81.5752 74.9148 82.0598 73.8308 82.1359C72.7468 82.212 71.6742 81.8739 70.8298 81.1899C69.8298 80.4699 68.91 79.72 67.96 78.96C67.8457 78.8436 67.6948 78.7702 67.5327 78.752C67.3706 78.7337 67.2071 78.7719 67.0698 78.86C66.5616 79.1116 66.0373 79.3287 65.5 79.5099C65.3045 79.5592 65.1311 79.6728 65.0078 79.8323C64.8845 79.9919 64.8182 80.1883 64.8198 80.39C64.7298 81.39 64.5599 82.48 64.4399 83.53C64.38 84.5027 64.0067 85.4298 63.3757 86.1725C62.7448 86.9152 61.8902 87.4336 60.9399 87.65H53.6799C52.7192 87.4275 51.8569 86.8983 51.2236 86.1424C50.5904 85.3864 50.2205 84.4448 50.1699 83.46C50.0499 82.46 49.89 81.38 49.79 80.33C49.7916 80.1452 49.7314 79.9652 49.6191 79.8185C49.5068 79.6718 49.3487 79.5667 49.1699 79.52C48.6359 79.3387 48.1146 79.1215 47.6099 78.8699C47.4525 78.7771 47.2688 78.7395 47.0876 78.7631C46.9065 78.7866 46.7382 78.87 46.6099 78.9999C45.6699 79.7599 44.72 80.51 43.74 81.22C42.8944 81.8896 41.8271 82.2153 40.7517 82.1318C39.6763 82.0484 38.6721 81.562 37.9399 80.77L34.26 77.09C33.4392 76.3441 32.9374 75.3105 32.8591 74.2042C32.7809 73.0978 33.1321 72.0039 33.8398 71.15C34.3193 70.4473 34.8473 69.779 35.4199 69.15C35.6137 69.0081 35.7769 68.8286 35.8999 68.6223C36.0229 68.416 36.1031 68.1872 36.1357 67.9492C36.1684 67.7113 36.1529 67.4692 36.0901 67.2374C36.0272 67.0056 35.9184 66.7888 35.77 66.6C35.6151 66.3269 35.4973 66.0343 35.4199 65.73C35.3804 65.5883 35.2955 65.4635 35.178 65.3749C35.0605 65.2864 34.9171 65.239 34.77 65.24C33.77 65.12 32.8399 64.9599 31.8699 64.8799C30.8245 64.888 29.8074 64.5413 28.9846 63.8965C28.1618 63.2517 27.5819 62.3469 27.3398 61.33L27.3899 54.0599Z" fill="#000F2A"/>
<path d="M24.54 53.7199C24.8079 52.6001 25.4489 51.6048 26.3577 50.8978C27.2664 50.1908 28.3888 49.8142 29.54 49.8299C30.61 49.7499 31.66 49.5699 32.72 49.4499C32.8797 49.4435 33.0333 49.3869 33.1589 49.2881C33.2846 49.1894 33.3759 49.0535 33.4199 48.8999C33.5138 48.5506 33.6515 48.2146 33.8298 47.8999C33.9845 47.7075 34.0992 47.486 34.167 47.2485C34.2347 47.0111 34.2542 46.7626 34.2244 46.5175C34.1945 46.2724 34.1161 46.0357 33.9934 45.8214C33.8707 45.6072 33.7063 45.4196 33.51 45.2699C32.8519 44.5384 32.2438 43.7633 31.6899 42.9499C30.9188 42.014 30.5365 40.8177 30.6221 39.608C30.7077 38.3984 31.2546 37.2678 32.1499 36.4499C33.4899 35.0999 34.8299 33.7599 36.1499 32.4499C36.9581 31.5772 38.0678 31.0442 39.2542 30.9588C40.4405 30.8734 41.6152 31.242 42.54 31.9899C43.61 32.7799 44.6499 33.5999 45.6799 34.4199C45.8116 34.5452 45.9807 34.6238 46.1614 34.6437C46.342 34.6635 46.5242 34.6236 46.6799 34.5299C47.2384 34.2615 47.8128 34.0277 48.3999 33.8299C48.5946 33.7756 48.7662 33.6593 48.8889 33.4987C49.0116 33.3381 49.0786 33.142 49.0798 32.9399C49.2298 31.5799 49.3999 30.2299 49.5999 28.8799C49.7691 27.782 50.3203 26.7789 51.1562 26.0472C51.9922 25.3156 53.0593 24.9022 54.1699 24.8799H60.45C61.5624 24.8999 62.632 25.3122 63.47 26.0441C64.308 26.7759 64.8605 27.7803 65.03 28.8799C65.23 30.2299 65.4 31.5799 65.55 32.9399C65.5484 33.1415 65.6145 33.3379 65.7378 33.4975C65.8611 33.6571 66.0344 33.7706 66.23 33.8199C66.85 34.0499 67.4601 34.2999 68.0601 34.5899C68.1969 34.6699 68.3564 34.7025 68.5137 34.6826C68.671 34.6627 68.8173 34.5915 68.9299 34.4799C69.9299 33.6899 70.9299 32.9199 71.9299 32.1599C72.4 31.7421 72.9483 31.4216 73.543 31.217C74.1376 31.0123 74.7669 30.9275 75.3945 30.9675C76.0222 31.0075 76.6358 31.1714 77.1997 31.4499C77.7636 31.7284 78.2667 32.1158 78.6799 32.5899C79.9799 33.8899 81.2798 35.1799 82.5698 36.4899C83.4688 37.3052 84.0192 38.4353 84.1067 39.6458C84.1942 40.8562 83.8123 42.0538 83.04 42.9899C82.26 43.9899 81.4499 45.0599 80.6399 46.0799C80.5084 46.2073 80.424 46.3756 80.4004 46.5572C80.3768 46.7388 80.4154 46.9231 80.51 47.0799C80.7916 47.6547 81.0387 48.2457 81.25 48.8499C81.3013 49.0463 81.4166 49.2198 81.5779 49.343C81.7391 49.4662 81.937 49.532 82.1399 49.5299C83.4899 49.6799 84.85 49.8299 86.2 50.0499C87.3225 50.2168 88.3465 50.785 89.082 51.6492C89.8176 52.5135 90.2147 53.6151 90.2 54.7499C90.2 56.5899 90.1199 58.4299 90.2 60.2599C90.2488 60.9329 90.1609 61.6088 89.9417 62.2469C89.7224 62.8851 89.3763 63.4722 88.9241 63.973C88.4719 64.4738 87.9228 64.8779 87.3103 65.1609C86.6978 65.4439 86.0343 65.6001 85.3599 65.6199C84.2399 65.7099 83.12 65.8899 82 66.0099C81.8386 66.0142 81.6826 66.0699 81.5549 66.1688C81.4273 66.2677 81.3346 66.4047 81.29 66.5599C81.2257 66.8526 81.1141 67.1329 80.96 67.3899C80.14 68.5399 80.4599 69.4699 81.3799 70.3899C81.99 71.0755 82.5545 71.8004 83.0698 72.5599C83.8145 73.4899 84.181 74.6667 84.0957 75.855C84.0104 77.0434 83.4797 78.1558 82.6099 78.9699C81.2765 80.3432 79.9167 81.7033 78.53 83.0499C77.7174 83.9204 76.6047 84.4499 75.4167 84.5316C74.2288 84.6132 73.0539 84.241 72.1299 83.4899C71.0699 82.7099 70.03 81.8799 68.99 81.0499C68.8611 80.9199 68.6913 80.8381 68.5093 80.8181C68.3273 80.798 68.1441 80.841 67.99 80.9399C67.4378 81.2175 66.8664 81.4548 66.28 81.6499C66.06 81.7066 65.8658 81.8365 65.7295 82.0182C65.5932 82.2 65.5228 82.4228 65.53 82.6499C65.43 83.7899 65.2499 84.9299 65.1199 86.0799C65.0439 87.1427 64.6305 88.1534 63.9397 88.9647C63.2489 89.776 62.3171 90.3454 61.28 90.5899H53.3298C52.2819 90.3418 51.3423 89.762 50.6504 88.9368C49.9585 88.1116 49.5515 87.085 49.49 86.0099C49.36 84.8599 49.1898 83.7199 49.0698 82.5799C49.073 82.377 49.0091 82.1787 48.8879 82.0159C48.7668 81.8532 48.5952 81.735 48.3999 81.6799C47.8105 81.4881 47.2357 81.2542 46.6799 80.9799C46.5099 80.8743 46.3087 80.8305 46.1101 80.856C45.9115 80.8815 45.7277 80.9747 45.5898 81.1199C44.5898 81.9499 43.52 82.7699 42.45 83.5499C41.5179 84.2421 40.3626 84.5648 39.2068 84.4559C38.0509 84.3469 36.9763 83.814 36.1899 82.9599C34.8399 81.6199 33.4899 80.2799 32.1899 78.9599C31.291 78.1446 30.7406 77.0144 30.6531 75.804C30.5656 74.5936 30.9477 73.396 31.72 72.4599C32.2439 71.6776 32.8255 70.9356 33.46 70.2399C33.8783 69.9189 34.153 69.4456 34.2241 68.9231C34.2953 68.4006 34.1571 67.8711 33.8398 67.4499C33.6682 67.1354 33.5405 66.799 33.46 66.4499C33.4127 66.2962 33.3192 66.1609 33.1921 66.0624C33.065 65.964 32.9106 65.9072 32.75 65.8999C31.69 65.7799 30.6398 65.5999 29.5698 65.5199C28.4186 65.5356 27.2964 65.159 26.3877 64.452C25.4789 63.745 24.8377 62.7497 24.5698 61.6299L24.54 53.7199ZM39.54 35.1899C39.3236 35.2491 39.1334 35.3795 39 35.5599C37.74 36.8099 36.5 38.0699 35.23 39.3099C35.1325 39.3846 35.0536 39.4807 34.9993 39.5908C34.9449 39.7009 34.9165 39.8221 34.9165 39.9449C34.9165 40.0677 34.9449 40.1888 34.9993 40.299C35.0536 40.4091 35.1325 40.5052 35.23 40.5799C36.32 41.9499 37.37 43.3499 38.46 44.7199C38.8077 45.0894 39.0229 45.5638 39.0718 46.0688C39.1206 46.5738 39.0004 47.0806 38.73 47.5099C37.9959 48.7904 37.4249 50.1577 37.03 51.5799C36.9075 52.1147 36.6094 52.5932 36.1836 52.9393C35.7578 53.2854 35.2285 53.4793 34.6799 53.4899C32.9599 53.6799 31.25 53.9299 29.53 54.1299C29.4183 54.126 29.3069 54.1466 29.2039 54.1901C29.1008 54.2336 29.0085 54.299 28.9333 54.3818C28.8582 54.4646 28.8019 54.5628 28.7686 54.6696C28.7352 54.7763 28.7254 54.889 28.74 54.9999V60.3799C28.7238 60.4915 28.7322 60.6054 28.7649 60.7134C28.7976 60.8214 28.8536 60.9208 28.929 61.0048C29.0043 61.0887 29.0973 61.1551 29.2012 61.1992C29.305 61.2433 29.4173 61.264 29.53 61.2599C31.25 61.4599 32.9599 61.7099 34.6799 61.8999C35.2285 61.9106 35.7578 62.1044 36.1836 62.4504C36.6094 62.7965 36.9075 63.275 37.03 63.8099C37.4155 65.2084 37.9765 66.5524 38.7 67.8099C38.9841 68.2434 39.1148 68.7597 39.0713 69.2763C39.0278 69.7929 38.8126 70.28 38.46 70.6599C37.36 72.0199 36.32 73.4299 35.23 74.7999C35.1325 74.8746 35.0536 74.9707 34.9993 75.0808C34.9449 75.1909 34.9165 75.3121 34.9165 75.4349C34.9165 75.5577 34.9449 75.6788 34.9993 75.7889C35.0536 75.8991 35.1325 75.9952 35.23 76.0699C36.5 77.2999 37.75 78.5599 38.99 79.8299C39.0584 79.9253 39.1474 80.0041 39.2505 80.0602C39.3536 80.1164 39.4682 80.1486 39.5854 80.1544C39.7027 80.1601 39.8198 80.1394 39.928 80.0936C40.0361 80.0478 40.1325 79.9781 40.21 79.8899C41.62 78.7799 43.05 77.6999 44.46 76.5899C44.8169 76.2628 45.2709 76.0613 45.7529 76.0162C46.235 75.971 46.7185 76.0847 47.1299 76.3399C48.4332 77.0781 49.8197 77.6588 51.26 78.0699C51.7947 78.1948 52.2721 78.495 52.6165 78.9227C52.9608 79.3503 53.152 79.8809 53.1599 80.4299C53.3499 82.1299 53.6 83.8199 53.79 85.5099C53.7838 85.6362 53.8068 85.7622 53.8574 85.8781C53.908 85.994 53.9847 86.0966 54.0815 86.178C54.1784 86.2593 54.2926 86.3172 54.4155 86.347C54.5384 86.3768 54.6667 86.3778 54.79 86.3499H60.05C60.1663 86.3691 60.2853 86.3624 60.3987 86.3302C60.512 86.298 60.6167 86.2412 60.7056 86.1638C60.7944 86.0864 60.8652 85.9904 60.9126 85.8826C60.96 85.7747 60.983 85.6577 60.98 85.5399C61.17 83.8199 61.4199 82.1099 61.6099 80.3999C61.6221 79.8498 61.8191 79.3198 62.1692 78.8953C62.5193 78.4708 63.0023 78.1765 63.54 78.0599C64.9586 77.6545 66.3244 77.084 67.6099 76.3599C68.016 76.0962 68.4977 75.9738 68.9805 76.0118C69.4632 76.0497 69.9201 76.2459 70.28 76.5699C71.69 77.6799 73.13 78.7599 74.53 79.8799C74.611 79.9717 74.7118 80.0439 74.8247 80.0912C74.9376 80.1385 75.0597 80.1595 75.1819 80.1528C75.3041 80.146 75.4232 80.1117 75.5303 80.0523C75.6373 79.9929 75.7296 79.91 75.8 79.8099C77.0201 78.5499 78.26 77.3099 79.52 76.0899C79.6199 76.0113 79.7006 75.9111 79.7561 75.7968C79.8116 75.6824 79.8403 75.5569 79.8403 75.4299C79.8403 75.3028 79.8116 75.1774 79.7561 75.063C79.7006 74.9487 79.6199 74.8485 79.52 74.7699C78.41 73.3899 77.35 71.9699 76.25 70.5799C75.9237 70.2199 75.7244 69.7628 75.6829 69.2787C75.6413 68.7946 75.7598 68.3102 76.02 67.8999C76.755 66.5963 77.3324 65.2099 77.74 63.7699C77.865 63.2463 78.1589 62.7784 78.5764 62.4386C78.9939 62.0988 79.512 61.9059 80.05 61.8899C81.7701 61.6999 83.4799 61.4499 85.2 61.2599C85.3176 61.2642 85.4347 61.2425 85.543 61.1963C85.6512 61.1501 85.7479 61.0806 85.8262 60.9927C85.9045 60.9049 85.9626 60.8008 85.9961 60.6879C86.0296 60.5751 86.0378 60.4563 86.02 60.3399V55.0299C86.0378 54.9135 86.0296 54.7947 85.9961 54.6818C85.9626 54.569 85.9045 54.4649 85.8262 54.3771C85.7479 54.2892 85.6512 54.2197 85.543 54.1735C85.4347 54.1273 85.3176 54.1056 85.2 54.1099C83.4799 53.9199 81.7701 53.6699 80.05 53.4799C79.512 53.4639 78.9939 53.271 78.5764 52.9312C78.1589 52.5914 77.865 52.1235 77.74 51.5999C77.3324 50.1599 76.755 48.7735 76.02 47.4699C75.7598 47.0596 75.6413 46.5752 75.6829 46.0911C75.7244 45.607 75.9237 45.1499 76.25 44.7899C77.36 43.3899 78.4401 41.9499 79.5601 40.5499C79.6491 40.4665 79.7182 40.3643 79.7627 40.2507C79.8072 40.1372 79.826 40.0152 79.8174 39.8935C79.8088 39.7718 79.773 39.6536 79.7129 39.5474C79.6528 39.4413 79.5699 39.3499 79.47 39.2799C78.21 38.0599 76.97 36.8199 75.75 35.5599C75.6796 35.4597 75.5873 35.3769 75.4802 35.3175C75.3732 35.2581 75.2541 35.2238 75.1318 35.217C75.0096 35.2103 74.8876 35.2314 74.7747 35.2786C74.6617 35.3259 74.561 35.3981 74.48 35.4899C73.06 36.6199 71.6199 37.7199 70.1799 38.8399C69.8499 39.1342 69.4353 39.3169 68.9954 39.3618C68.5554 39.4066 68.1127 39.3115 67.73 39.0899C66.2824 38.3122 64.7617 37.6792 63.1899 37.1999C62.7826 37.0936 62.4176 36.8651 62.144 36.545C61.8705 36.225 61.7015 35.8289 61.6599 35.4099C61.4099 33.5499 61.1499 31.6899 60.9299 29.8299C60.8599 29.2699 60.6001 29.0199 60.0601 29.0199H54.6799C54.5684 29.0023 54.4544 29.0094 54.3459 29.0408C54.2375 29.0721 54.1372 29.1269 54.0522 29.2014C53.9673 29.2758 53.8998 29.368 53.8545 29.4714C53.8092 29.5749 53.7872 29.687 53.79 29.7999C53.59 31.5199 53.3399 33.2299 53.1499 34.9399C53.1437 35.4893 52.953 36.0208 52.6084 36.4488C52.2638 36.8768 51.7855 37.1766 51.25 37.2999C49.8097 37.711 48.4232 38.2917 47.1199 39.0299C46.7187 39.2815 46.2472 39.397 45.7751 39.3592C45.3031 39.3214 44.8559 39.1322 44.5 38.8199C43.09 37.7099 41.67 36.6199 40.25 35.5199C40.0587 35.3251 39.8024 35.2076 39.53 35.1899H39.54Z" fill="#0088CC"/>
<path d="M38.1202 57.69C38.1281 53.888 39.2629 50.1736 41.3812 47.0163C43.4994 43.859 46.5062 41.4005 50.0213 39.9514C53.5364 38.5024 57.4021 38.1278 61.1299 38.8751C64.8578 39.6224 68.2807 41.4581 70.9656 44.15C73.6506 46.842 75.4773 50.2695 76.2149 53.9993C76.9525 57.7291 76.5679 61.5938 75.1097 65.1052C73.6515 68.6165 71.1853 71.6168 68.0225 73.7268C64.8597 75.8369 61.1422 76.962 57.3402 76.96C54.8119 76.96 52.3086 76.4612 49.9735 75.4922C47.6383 74.5232 45.5174 73.103 43.732 71.3129C41.9466 69.5229 40.5319 67.3982 39.5689 65.0606C38.606 62.7229 38.1136 60.2182 38.1202 57.69ZM57.3702 72.69C59.9012 72.7161 62.3933 72.0672 64.5902 70.81C66.5403 69.7488 68.2266 68.2619 69.5233 66.4597C70.8199 64.6575 71.6937 62.5863 72.0801 60.4C72.1701 59.93 72.0801 59.81 71.5801 59.81C69.2268 59.81 66.8935 59.81 64.5801 59.81C64.4027 59.7868 64.223 59.8288 64.074 59.9281C63.9251 60.0274 63.8172 60.1773 63.7703 60.35C63.2057 61.7477 62.1937 62.9189 60.8929 63.6806C59.592 64.4423 58.0754 64.7515 56.5801 64.56C56.3836 64.5111 56.1763 64.5324 55.9937 64.62C55.8112 64.7076 55.6649 64.8562 55.5801 65.04C54.4301 67.04 53.2504 69.11 52.0604 71.14C51.8304 71.53 51.9201 71.67 52.3201 71.81C53.9433 72.3767 55.6509 72.6642 57.3702 72.66V72.69ZM68.0504 55.63H71.3104C72.2004 55.63 72.2003 55.6301 72.0303 54.7401C71.6013 52.6585 70.7346 50.6919 69.4881 48.9706C68.2416 47.2492 66.6436 45.8124 64.7999 44.7553C62.9561 43.6982 60.9088 43.0451 58.7935 42.839C56.6783 42.6329 54.5434 42.8787 52.5303 43.56C51.8203 43.8 51.8002 43.84 52.1702 44.48C53.1702 46.28 54.2803 48.05 55.2503 49.88C55.6903 50.69 56.1602 51.12 57.1002 50.81C57.2684 50.775 57.442 50.775 57.6102 50.81C58.9437 50.8622 60.2335 51.2999 61.3233 52.0702C62.4131 52.8405 63.2562 53.9103 63.7503 55.15C63.801 55.3104 63.9076 55.4471 64.0508 55.5353C64.1941 55.6234 64.3643 55.657 64.5303 55.63H68.0504ZM42.3702 57.68C42.37 59.8466 42.8394 61.9876 43.7457 63.9555C44.652 65.9235 45.9737 67.6717 47.6202 69.08C47.9802 69.4 48.1502 69.43 48.4102 68.97C49.5702 66.9 50.7603 64.86 51.9603 62.81C52.0561 62.6732 52.1006 62.5069 52.086 62.3405C52.0714 62.174 51.9985 62.018 51.8802 61.9C50.9385 60.7083 50.4263 59.2339 50.4263 57.715C50.4263 56.1962 50.9385 54.7217 51.8802 53.53C51.9992 53.3906 52.0648 53.2133 52.0648 53.03C52.0648 52.8467 51.9992 52.6694 51.8802 52.53C50.6935 50.53 49.5202 48.4967 48.3602 46.43C48.1302 46.04 47.9702 45.9701 47.6002 46.3001C45.9637 47.7047 44.6494 49.4457 43.7469 51.4044C42.8443 53.3631 42.3748 55.4934 42.3702 57.65V57.68ZM60.0003 57.68C59.9983 57.155 59.8404 56.6426 59.5467 56.2075C59.253 55.7724 58.8365 55.4343 58.3504 55.2361C57.8643 55.038 57.3302 54.9888 56.816 55.0946C56.3018 55.2004 55.8306 55.4566 55.4622 55.8306C55.0938 56.2046 54.8449 56.6796 54.7469 57.1953C54.6489 57.711 54.7062 58.2443 54.9117 58.7274C55.1172 59.2104 55.4614 59.6216 55.9009 59.9088C56.3404 60.1959 56.8553 60.346 57.3802 60.34C58.0778 60.3321 58.7442 60.0495 59.2347 59.5533C59.7252 59.0572 60.0004 58.3877 60.0003 57.69V57.68Z" fill="#0088CC"/>
</svg>
