<svg width="115" height="115" viewBox="0 0 115 115" fill="none" xmlns="http://www.w3.org/2000/svg">
<path d="M57.4297 17.4299L41.9797 9.87988L33.9197 25.0699L16.9797 28.0399L19.3897 45.0699L7.42969 57.4299L19.3897 69.7899L16.9797 86.8199L33.9197 89.7899L41.9797 104.99L57.4297 97.4299L72.8797 104.99L80.9397 89.7899L97.8797 86.8199L95.4697 69.7899L107.43 57.4299L95.4697 45.0699L97.8797 28.0399L80.9397 25.0699L72.8797 9.87988L57.4297 17.4299Z" stroke="#0088CC" stroke-width="0.93" stroke-linecap="round" stroke-linejoin="round"/>
<path d="M45.0699 19.3899L28.0399 16.9899L25.0699 33.9199L9.87988 41.9899L17.4299 57.4399L9.87988 72.8899L25.0699 80.9499L28.0499 97.8899L45.0799 95.4799L57.4399 107.43L69.7999 95.4699L86.8299 97.8799L89.7999 80.9399L104.99 72.8799L97.4299 57.4299L104.98 41.9799L89.7899 33.9199L86.8199 16.9799L69.7899 19.3899L57.4299 7.42993L45.0699 19.3899Z" stroke="#0088CC" stroke-width="0.46" stroke-linecap="round" stroke-linejoin="round"/>
<path d="M107.43 57.4299H7.42969" stroke="#0088CC" stroke-width="0.46" stroke-linecap="round" stroke-linejoin="round"/>
<path d="M57.4297 107.43V7.42993" stroke="#0088CC" stroke-width="0.46" stroke-linecap="round" stroke-linejoin="round"/>
<path d="M26.3896 26.3899L88.4697 88.4699" stroke="#0088CC" stroke-width="0.93" stroke-linecap="round" stroke-linejoin="round"/>
<path d="M26.3896 88.4699L88.4697 26.3999" stroke="#0088CC" stroke-width="0.93" stroke-linecap="round" stroke-linejoin="round"/>
<path d="M57.4302 24.1599L45.6702 45.6699L24.1602 57.4299L45.6702 69.1999L57.4302 90.6999L69.1902 69.1999L90.7001 57.4299L69.1902 45.6699L57.4302 24.1599Z" stroke="#0088CC" stroke-width="0.46" stroke-linecap="round" stroke-linejoin="round"/>
<path d="M57.43 112.86C88.0431 112.86 112.86 88.0431 112.86 57.43C112.86 26.8169 88.0431 2 57.43 2C26.8169 2 2 26.8169 2 57.43C2 88.0431 26.8169 112.86 57.43 112.86Z" stroke="#0088CC" stroke-width="3" stroke-miterlimit="10"/>
<path d="M92.54 59.6C92.9 59.6 93.2499 59.6 93.6099 59.55V50.0101H91.97C91.8871 50.0217 91.8027 50.014 91.7234 49.9874C91.6441 49.9609 91.5721 49.9163 91.5129 49.8572C91.4538 49.798 91.4091 49.7259 91.3826 49.6466C91.356 49.5673 91.3482 49.4829 91.3599 49.4001C91.3599 49.1601 91.3599 48.9301 91.3599 48.6901C91.3599 41.7901 91.3599 34.8901 91.3599 28.0001C91.3977 26.2305 90.8718 24.4948 89.8579 23.044C88.844 21.5932 87.3948 20.5027 85.72 19.9301C85.28 19.7701 84.8099 19.67 84.3599 19.55H29.98C28.6296 19.7835 27.3566 20.3426 26.271 21.179C25.1854 22.0154 24.3201 23.1038 23.75 24.35C23.2039 25.5655 22.9373 26.8879 22.97 28.22V48.8701C22.97 50.0101 22.9701 50.0101 21.8201 50.0201C20.6701 50.0301 20.6699 50.0201 20.6699 51.1501C20.6699 53.6701 20.6699 56.1501 20.6699 58.7001C20.6699 59.4101 20.8701 59.7001 21.5901 59.6401C22.9601 59.5801 22.99 59.3901 22.98 61.0001V82.0001C22.98 83.0001 22.98 83.0001 21.98 83.0001C20.72 83.0001 20.72 83.0001 20.72 84.2701C20.72 86.7401 20.72 89.2101 20.72 91.6801C20.72 92.3401 20.9401 92.5301 21.5801 92.5201C24.1867 92.5201 26.7966 92.5201 29.4099 92.5201C30.0599 92.5201 30.28 92.31 30.26 91.66C30.21 90.18 30.01 90.2001 31.7 90.2001H83.7C84.1199 90.2001 84.31 90.3901 84.29 90.8101V90.8801C84.35 92.4901 84.35 92.51 85.99 92.4901C88.58 92.4901 91.16 92.5701 93.75 92.4901V83.0901C93.2053 83.025 92.6546 83.025 92.1099 83.0901C91.6999 83.0901 91.5 82.91 91.5 82.4901C91.5 82.3001 91.5 82.11 91.5 81.92V60.7601C91.36 59.5901 91.36 59.6 92.54 59.6Z" fill="#000F2A"/>
<path d="M92.54 59.6C92.9 59.6 93.2499 59.6 93.6099 59.55V50.0101H91.97C91.8871 50.0217 91.8027 50.014 91.7234 49.9874C91.6441 49.9609 91.5721 49.9163 91.5129 49.8572C91.4538 49.798 91.4091 49.7259 91.3826 49.6466C91.356 49.5673 91.3482 49.4829 91.3599 49.4001C91.3599 49.1601 91.3599 48.9301 91.3599 48.6901C91.3599 41.7901 91.3599 34.8901 91.3599 28.0001C91.3977 26.2305 90.8718 24.4948 89.8579 23.044C88.844 21.5932 87.3948 20.5027 85.72 19.9301C85.28 19.7701 84.8099 19.67 84.3599 19.55H29.98C28.6296 19.7835 27.3566 20.3426 26.271 21.179C25.1854 22.0154 24.3201 23.1038 23.75 24.35C23.2039 25.5655 22.9373 26.8879 22.97 28.22V48.8701C22.97 50.0101 22.9701 50.0101 21.8201 50.0201C20.6701 50.0301 20.6699 50.0201 20.6699 51.1501C20.6699 53.6701 20.6699 56.1501 20.6699 58.7001C20.6699 59.4101 20.8701 59.7001 21.5901 59.6401C22.9601 59.5801 22.99 59.3901 22.98 61.0001V82.0001C22.98 83.0001 22.98 83.0001 21.98 83.0001C20.72 83.0001 20.72 83.0001 20.72 84.2701C20.72 86.7401 20.72 89.2101 20.72 91.6801C20.72 92.3401 20.9401 92.5301 21.5801 92.5201C24.1867 92.5201 26.7966 92.5201 29.4099 92.5201C30.0599 92.5201 30.28 92.31 30.26 91.66C30.21 90.18 30.01 90.2001 31.7 90.2001H83.7C84.1199 90.2001 84.31 90.3901 84.29 90.8101V90.8801C84.35 92.4901 84.35 92.51 85.99 92.4901C88.58 92.4901 91.16 92.5701 93.75 92.4901V83.0901C93.2053 83.025 92.6546 83.025 92.1099 83.0901C91.6999 83.0901 91.5 82.91 91.5 82.4901C91.5 82.3001 91.5 82.11 91.5 81.92V60.7601C91.36 59.5901 91.36 59.6 92.54 59.6ZM25.4399 28.42C25.3503 26.8387 25.8532 25.2808 26.8501 24.05C27.3712 23.4361 28.017 22.9403 28.7446 22.5955C29.4723 22.2506 30.265 22.0647 31.0701 22.05C31.6901 22.05 32.3099 22.05 32.9199 22.05H82.6299C83.7753 21.9824 84.9152 22.2548 85.9062 22.8331C86.8973 23.4113 87.6953 24.2696 88.2 25.3C88.6592 26.2314 88.8793 27.2624 88.8401 28.3C88.8401 35.3 88.8401 42.21 88.8401 49.17C88.8401 49.88 88.5499 50.06 87.9099 50.05C86.6399 50.05 86.6399 50.05 86.6399 48.8C86.6399 42.0534 86.6399 35.3101 86.6399 28.5701C86.6467 28.1689 86.6235 27.7677 86.5701 27.3701C86.4741 26.4729 86.0381 25.6465 85.3518 25.0607C84.6656 24.4748 83.781 24.174 82.8799 24.22H57.1001C48.6301 24.22 40.0999 24.22 31.6799 24.22C31.1354 24.1846 30.5896 24.266 30.0791 24.4586C29.5686 24.6513 29.1051 24.9508 28.7197 25.3371C28.3344 25.7234 28.0359 26.1876 27.8445 26.6986C27.6531 27.2096 27.5731 27.7556 27.6099 28.3C27.6099 35.1934 27.6099 42.0767 27.6099 48.9501C27.6099 49.3101 27.7801 49.8101 27.3401 49.9501C26.7946 50.1301 26.2054 50.1301 25.6599 49.9501C25.4599 49.8901 25.4299 49.66 25.4299 49.47V48.6801C25.4366 41.8934 25.4399 35.14 25.4399 28.42ZM82.8999 62.2601C82.8999 62.7401 82.7 62.9501 82.22 62.9401C81.48 62.9401 80.74 62.9401 80.01 62.9401H66.4099C65.3099 62.9401 65.27 62.94 65.26 64.04C65.26 65.46 65.2599 65.4601 66.6299 65.4601H81.98C82.31 65.4601 82.7899 65.32 82.8799 65.8C83.046 66.3468 83.0143 66.9345 82.79 67.4601C82.62 67.7601 82.2199 67.6401 81.9199 67.6401H66.76C65.27 67.6401 65.27 67.6401 65.29 69.1301C65.29 70.1301 65.2901 70.1301 66.3501 70.1301H81.8699C82.2299 70.1301 82.7399 69.9601 82.8699 70.4301C83.0331 70.981 83.0157 71.5698 82.8201 72.11C82.7501 72.27 82.5499 72.3 82.3799 72.3H37.23C35.9 72.3 35.8999 72.3001 35.8999 73.6301C35.8999 74.9601 35.8999 74.8701 37.1799 74.8701H81.6899C82.8499 74.8701 83.2999 75.5501 82.8999 76.6501C82.7799 76.9601 82.54 76.9801 82.27 77.0001C80.58 77.1301 80.5999 77.13 80.6099 78.79C80.6099 79.39 80.8499 79.6101 81.4099 79.5801H81.9099C82.9099 79.5801 82.9099 79.6501 82.9099 80.5801C82.9099 81.6701 82.91 81.7101 81.8 81.7101H32.6599C31.3999 81.7101 31.1099 81.31 31.3899 80.05C31.4074 79.9193 31.474 79.8 31.5762 79.7164C31.6783 79.6329 31.8083 79.5913 31.9399 79.6C32.2499 79.6 32.5599 79.6 32.8599 79.6H76.98C78.45 79.6 78.4499 79.6001 78.4399 78.1201C78.4399 77.0401 78.4401 77.0301 77.3101 77.0301H31.98C31.8962 77.0421 31.8107 77.0343 31.7305 77.0072C31.6503 76.9801 31.5777 76.9346 31.5183 76.8743C31.4589 76.8139 31.4144 76.7405 31.3887 76.6599C31.3629 76.5792 31.3565 76.4936 31.3699 76.41V75.91C31.3699 74.98 31.4299 74.91 32.3699 74.91C32.513 74.9 32.6569 74.9 32.8 74.91C33.41 74.96 33.7999 74.7401 33.6599 74.0601V73.9901C33.6599 72.2301 33.8601 72.3201 32.0901 72.3401C31.5301 72.3401 31.3101 72.1001 31.3501 71.5701V71.4301C31.3501 70.1501 31.3501 70.1501 32.5801 70.1501H47.98C48.98 70.1501 48.98 70.1501 48.98 69.1501C48.98 67.6801 48.9801 67.6801 47.5601 67.6801H32.3201C31.9901 67.6801 31.5099 67.82 31.3999 67.36C31.2276 66.8123 31.2524 66.2215 31.47 65.6901C31.62 65.3801 32.0201 65.5001 32.3201 65.5001H47.5601C49.0001 65.5001 49 65.5001 48.98 64.0601C48.98 63.0601 48.9299 62.98 47.8799 62.98H32.28C31.95 62.98 31.4799 63.1101 31.3899 62.6301C31.2344 62.0788 31.2661 61.4915 31.48 60.9601C31.59 60.7501 31.8601 60.79 32.0701 60.79H50.3699C50.9499 60.79 51.1099 61.0401 51.1099 61.5701C51.0682 62.5905 51.0917 63.6126 51.1799 64.6301C51.2663 65.5144 51.6767 66.3356 52.332 66.9355C52.9874 67.5355 53.8415 67.8719 54.73 67.8801C56.29 67.8801 57.8599 67.8801 59.4299 67.8801C61.5999 67.8101 63.0001 66.2901 63.0901 63.9601C63.0901 63.2001 63.0901 62.4401 63.0901 61.6901C63.0901 60.9401 63.31 60.7801 64 60.7801C68.34 60.7801 72.69 60.7801 77 60.7801C78.66 60.7801 80.32 60.7801 82 60.7801C82.67 60.7801 82.9199 61.03 82.8599 61.66C82.8899 61.83 82.8999 62.0501 82.8999 62.2601ZM53.73 59.85C53.73 58.47 53.73 57.09 53.73 55.72C53.73 55.1 53.9601 54.8801 54.5701 54.8901C56.3101 54.8901 58.04 54.8901 59.77 54.8901C60.36 54.8901 60.5701 55.1101 60.5701 55.6901C60.5701 58.4401 60.5701 61.1901 60.5701 63.9501C60.5701 64.9501 60.1699 65.3201 59.1699 65.3301C57.8199 65.3301 56.4599 65.3301 55.1099 65.3301C54.1099 65.3301 53.77 64.92 53.76 63.97C53.76 62.6 53.76 61.22 53.76 59.85H53.73ZM30.98 52.3901C30.38 52.3901 30.1399 52.2301 30.1399 51.5901C30.1399 43.8968 30.1399 36.2067 30.1399 28.5201C30.138 28.2352 30.1615 27.9507 30.21 27.67C30.233 27.388 30.3649 27.126 30.5776 26.9393C30.7904 26.7527 31.0674 26.6561 31.3501 26.67H82.3501C83.8101 26.67 84.1599 27.0101 84.1599 28.4601C84.1599 36.1701 84.1599 43.88 84.1599 51.6C84.1599 52.2 83.9299 52.3701 83.3599 52.3701M23.1399 54.7501C23.1399 54.2501 23.1399 53.7501 23.1399 53.2601C23.1399 52.7701 23.3401 52.5601 23.8201 52.5601H26.8699C27.3299 52.5601 27.4701 52.7701 27.3201 53.1901C27.0281 54.0202 26.55 54.7726 25.9226 55.3896C25.2952 56.0067 24.5349 56.472 23.7 56.7501C23.31 56.8901 23.1299 56.7501 23.1399 56.3101C23.1499 55.8701 23.1399 55.2901 23.1399 54.7701V54.7501ZM26.8799 89.98H23.74C23.33 89.98 23.1399 89.7901 23.1399 89.3701V86.17C23.1399 85.77 23.3399 85.66 23.6899 85.79C24.5386 86.0677 25.3101 86.5409 25.9424 87.1714C26.5746 87.8019 27.0501 88.5722 27.3301 89.42C27.4701 89.86 27.2699 90.0101 26.8799 90.0001V89.98ZM85.3201 87.04C85.2202 87.2526 85.0568 87.4292 84.8528 87.5455C84.6487 87.6619 84.4138 87.7124 84.1799 87.6901H30.1199C29.8868 87.7147 29.6518 87.6676 29.4463 87.5551C29.2408 87.4425 29.0746 87.2697 28.97 87.0601C28.2838 85.8272 27.2652 84.812 26.03 84.1301C25.8308 84.0313 25.6663 83.8739 25.5591 83.6791C25.4518 83.4842 25.4068 83.2612 25.4299 83.04C25.4299 75.18 25.4299 67.3201 25.4299 59.4601C25.4104 59.255 25.4546 59.0488 25.5566 58.8698C25.6587 58.6908 25.8135 58.5477 26 58.4601C27.2606 57.7599 28.2998 56.7206 29 55.4601C29.0877 55.2736 29.2307 55.1188 29.4097 55.0168C29.5887 54.9148 29.7949 54.8705 30 54.8901C36.7667 54.8901 43.5334 54.8901 50.3 54.8901C50.93 54.8901 51.1599 55.12 51.1299 55.73C51.0999 56.34 51.1299 56.73 51.1299 57.3C51.1299 58.19 51.1299 58.2401 50.1299 58.2401H29.78C28.88 58.2401 28.78 58.3201 28.78 59.2401V83.3801C28.78 84.3001 28.8499 84.3801 29.8999 84.3801H84.1699C85.4599 84.3801 85.46 84.3801 85.47 83.0701C85.47 75.2634 85.47 67.4534 85.47 59.6401C85.47 59.3701 85.47 59.11 85.47 58.85C85.4784 58.7727 85.4691 58.6944 85.4426 58.6213C85.4162 58.5481 85.3731 58.482 85.3171 58.4279C85.2612 58.3739 85.1937 58.3333 85.1196 58.3094C85.0456 58.2856 84.9669 58.2789 84.8899 58.29H64.24C63.17 58.29 63.1499 58.29 63.1499 57.23C63.1499 56.73 63.1499 56.23 63.1499 55.73C63.1499 55.23 63.38 54.9401 63.96 54.9401C65.76 54.9401 67.5699 54.9401 69.3699 54.9401C74.2899 54.9401 79.1999 54.9401 84.1099 54.9401C84.3778 54.9139 84.6474 54.9708 84.8818 55.1032C85.1162 55.2356 85.3041 55.437 85.4199 55.6801C86.0793 56.8444 87.0486 57.8032 88.22 58.4501C88.4318 58.549 88.6084 58.7102 88.7263 58.912C88.8442 59.1139 88.8978 59.347 88.8799 59.5801C88.8799 67.4201 88.8799 75.2568 88.8799 83.0901C88.8993 83.3235 88.8477 83.5573 88.7317 83.7608C88.6157 83.9643 88.4408 84.1279 88.23 84.23C87.0132 84.8811 86.0048 85.8619 85.3201 87.0601V87.04ZM91.1399 87.8101V89.3701C91.1399 89.7901 90.95 89.98 90.54 89.98H87.4099C86.9199 89.98 86.82 89.75 86.97 89.35C87.2573 88.5298 87.7255 87.7848 88.3401 87.1703C88.9546 86.5557 89.6998 86.0874 90.52 85.8C90.94 85.65 91.1599 85.8 91.1499 86.2401C91.1399 86.6801 91.1399 87.3101 91.1399 87.8301V87.8101ZM90.5601 56.7401C89.7289 56.4554 88.9736 55.985 88.3516 55.3647C87.7295 54.7444 87.257 53.9903 86.97 53.16C86.83 52.77 86.9699 52.5601 87.3799 52.5601H90.5801C90.6569 52.5499 90.7348 52.5577 90.8081 52.5829C90.8814 52.6082 90.9479 52.65 91.0022 52.7053C91.0565 52.7606 91.0972 52.8278 91.1211 52.9015C91.145 52.9752 91.1514 53.0534 91.1399 53.1301V54.7701C91.1399 55.2601 91.1399 55.7701 91.1399 56.2601C91.1399 56.7501 90.9801 56.9201 90.5601 56.7601V56.7401Z" fill="#0088CC"/>
<path d="M57.4301 47.5C55.165 47.4938 52.9392 46.9079 50.9645 45.7982C48.9899 44.6884 47.3323 43.0916 46.1494 41.1599C44.9665 39.2282 44.2979 37.0258 44.207 34.7625C44.1161 32.4992 44.6059 30.2503 45.6301 28.23C48.8501 21.79 52.3502 15.49 55.7602 9.15002C56.6102 7.56002 58.2503 7.56002 59.1003 9.15002C62.5103 15.49 66.0002 21.79 69.2302 28.22C70.179 30.0954 70.6695 32.1692 70.6613 34.271C70.6532 36.3728 70.1469 38.4427 69.1835 40.3107C68.2202 42.1788 66.8275 43.7917 65.1198 45.0171C63.4122 46.2426 61.4382 47.0455 59.3601 47.36C58.7198 47.4418 58.0755 47.4886 57.4301 47.5Z" fill="#000F2A"/>
<path d="M57.4301 47.5C55.165 47.4938 52.9392 46.9079 50.9645 45.7982C48.9899 44.6884 47.3323 43.0916 46.1494 41.1599C44.9665 39.2282 44.2979 37.0258 44.207 34.7625C44.1161 32.4992 44.6059 30.2503 45.6301 28.23C48.8501 21.79 52.3502 15.49 55.7602 9.15002C56.6102 7.56002 58.2503 7.56002 59.1003 9.15002C62.5103 15.49 66.0002 21.79 69.2302 28.22C70.179 30.0954 70.6695 32.1692 70.6613 34.271C70.6532 36.3728 70.1469 38.4427 69.1835 40.3107C68.2202 42.1788 66.8275 43.7917 65.1198 45.0171C63.4122 46.2426 61.4382 47.0455 59.3601 47.36C58.7198 47.4418 58.0755 47.4886 57.4301 47.5ZM47.6701 34.07C47.6701 34.49 47.7803 34.93 47.8303 35.37C47.981 36.7296 48.4181 38.0419 49.113 39.2202C49.8079 40.3985 50.7447 41.4162 51.8615 42.2061C52.9784 42.996 54.25 43.5403 55.5925 43.803C56.935 44.0656 58.3179 44.0407 59.6501 43.73C61.0822 43.386 62.4181 42.7231 63.5581 41.7906C64.6981 40.8581 65.6128 39.6802 66.2338 38.3447C66.8549 37.0093 67.1664 35.5509 67.145 34.0782C67.1235 32.6056 66.7697 31.1568 66.1101 29.84C63.4901 24.66 60.6802 19.59 57.9802 14.45C57.5702 13.69 57.3201 13.62 56.8901 14.45C54.1701 19.61 51.4201 24.76 48.6901 29.91C48.0876 31.2047 47.7412 32.6038 47.6701 34.03V34.07Z" fill="#0088CC"/>
<path d="M57.1201 40.8701C55.3853 40.7845 53.7533 40.0225 52.5737 38.7476C51.3941 37.4727 50.7611 35.7863 50.8103 34.0501C50.8151 33.6208 50.9851 33.21 51.2849 32.9027C51.5847 32.5955 51.9912 32.4155 52.4201 32.4001C52.85 32.3761 53.2731 32.5152 53.605 32.7896C53.9368 33.0639 54.1529 33.4534 54.2102 33.8801C54.7002 36.5001 55.2102 36.9701 57.7402 37.4801C58.1645 37.5469 58.546 37.7764 58.8037 38.12C59.0614 38.4636 59.1748 38.8941 59.1201 39.3201C59.0401 40.3401 58.3401 40.8801 57.1201 40.8701Z" fill="#0088CC"/>
</svg>
