<svg width="137" height="137" viewBox="0 0 137 137" fill="none" xmlns="http://www.w3.org/2000/svg">
<path d="M68.68 124.11C99.2931 124.11 124.11 99.2931 124.11 68.68C124.11 38.0669 99.2931 13.25 68.68 13.25C38.0669 13.25 13.25 38.0669 13.25 68.68C13.25 99.2931 38.0669 124.11 68.68 124.11Z" stroke="#0088CC" stroke-width="3" stroke-miterlimit="10"/>
<path d="M68.68 2L45.11 45.11L2 68.68L45.11 92.26L68.68 135.37L92.26 92.26L135.37 68.68L92.26 45.11L68.68 2Z" stroke="#0088CC" stroke-width="2.04" stroke-linecap="round" stroke-linejoin="round"/>
<path d="M68.6808 24.8401L53.1808 53.1801L24.8408 68.6801L53.1808 84.1901L68.6808 112.53L84.1908 84.1901L112.531 68.6801L84.1908 53.1801L68.6808 24.8401Z" stroke="#0088CC" stroke-width="1.02" stroke-linecap="round" stroke-linejoin="round"/>
<path d="M64.04 68.6801C64.0381 69.5982 64.3085 70.4963 64.8171 71.2606C65.3258 72.025 66.0498 72.6213 66.8975 72.974C67.7451 73.3267 68.6784 73.42 69.5791 73.2421C70.4798 73.0642 71.3076 72.6231 71.9575 71.9745C72.6074 71.326 73.0501 70.4993 73.23 69.5989C73.4098 68.6986 73.3187 67.7652 72.9678 66.9167C72.6169 66.0683 72.0221 65.3431 71.2588 64.8328C70.4955 64.3225 69.5981 64.0501 68.6799 64.05C67.4519 64.0527 66.2748 64.541 65.4055 65.4084C64.5362 66.2759 64.0453 67.452 64.04 68.6801Z" stroke="#0088CC" stroke-width="2.04" stroke-miterlimit="10"/>
<path d="M111.04 23.16C111.038 23.7878 111.223 24.4021 111.57 24.9249C111.918 25.4478 112.413 25.8556 112.992 26.0968C113.572 26.3379 114.21 26.4016 114.826 26.2796C115.442 26.1576 116.007 25.8554 116.451 25.4115C116.895 24.9676 117.198 24.4018 117.32 23.786C117.442 23.1701 117.378 22.5319 117.137 21.9523C116.896 21.3726 116.488 20.8777 115.965 20.5301C115.442 20.1825 114.828 19.998 114.2 20C113.362 20 112.558 20.3329 111.966 20.9256C111.373 21.5182 111.04 22.3219 111.04 23.16Z" stroke="#0088CC" stroke-width="2.04" stroke-miterlimit="10"/>
<path d="M20 23.16C19.998 23.7874 20.1822 24.4013 20.5293 24.9239C20.8764 25.4465 21.3709 25.8544 21.95 26.0958C22.529 26.3373 23.1667 26.4015 23.7822 26.2803C24.3978 26.1591 24.9636 25.858 25.408 25.4151C25.8523 24.9721 26.1552 24.4073 26.2783 23.7921C26.4015 23.1769 26.3393 22.5391 26.0996 21.9592C25.86 21.3794 25.4537 20.8837 24.9321 20.5349C24.4106 20.1862 23.7973 20 23.1699 20C22.7541 19.9987 22.3421 20.0795 21.9575 20.2377C21.573 20.3959 21.2235 20.6284 20.929 20.922C20.6345 21.2156 20.4009 21.5644 20.2415 21.9484C20.082 22.3325 20 22.7442 20 23.16Z" stroke="#0088CC" stroke-width="2.04" stroke-miterlimit="10"/>
<path d="M111.04 114.2C111.038 114.828 111.223 115.442 111.57 115.965C111.918 116.488 112.413 116.896 112.992 117.137C113.572 117.378 114.21 117.442 114.826 117.32C115.442 117.198 116.007 116.896 116.451 116.452C116.895 116.008 117.198 115.442 117.32 114.826C117.442 114.21 117.378 113.572 117.137 112.992C116.896 112.413 116.488 111.918 115.965 111.57C115.442 111.223 114.828 111.038 114.2 111.04C113.363 111.043 112.561 111.376 111.969 111.969C111.376 112.561 111.043 113.363 111.04 114.2Z" stroke="#0088CC" stroke-width="2.04" stroke-miterlimit="10"/>
<path d="M20 114.2C19.998 114.827 20.1822 115.441 20.5293 115.964C20.8764 116.487 21.3709 116.894 21.95 117.136C22.529 117.377 23.1667 117.442 23.7822 117.32C24.3978 117.199 24.9636 116.898 25.408 116.455C25.8523 116.012 26.1552 115.447 26.2783 114.832C26.4015 114.217 26.3393 113.579 26.0996 112.999C25.86 112.419 25.4537 111.924 24.9321 111.575C24.4106 111.226 23.7973 111.04 23.1699 111.04C22.3309 111.04 21.5261 111.373 20.9319 111.965C20.3377 112.557 20.0027 113.361 20 114.2Z" stroke="#0088CC" stroke-width="2.04" stroke-miterlimit="10"/>
<path d="M114.201 114.2L23.1709 23.1699" stroke="#0088CC" stroke-width="1.02" stroke-linecap="round" stroke-linejoin="round"/>
<path d="M114.201 23.1699L23.1709 114.2" stroke="#0088CC" stroke-width="1.02" stroke-linecap="round" stroke-linejoin="round"/>
<path d="M68.7902 111.87L66.3103 110.42L59.0603 106.21L50.4502 101.29L45.1901 98.2899C45.1901 98.2399 45.9502 95.9899 45.9502 95.9899C47.1402 92.4199 48.3202 88.8499 49.5402 85.2899C49.8804 84.5468 49.9745 83.7146 49.809 82.9142C49.6436 82.1139 49.227 81.3872 48.6201 80.8399V55.2799C49.1816 54.971 49.6441 54.5093 49.9538 53.9482C50.2636 53.3871 50.4079 52.7497 50.3701 52.1099C50.3701 51.6699 50.3701 51.2299 50.3701 50.7899C50.2968 49.8883 50.3645 48.9808 50.5703 48.0999C51.2981 46.0823 52.6279 44.337 54.3801 43.0999C56.1347 41.6755 58.0761 40.4979 60.1501 39.5999C60.9192 39.3054 61.573 38.7709 62.0144 38.0756C62.4557 37.3803 62.6612 36.5612 62.6003 35.7399C62.6003 33.2999 62.6003 30.8599 62.6003 28.4299V25.4299C62.6133 24.9718 62.5864 24.5134 62.5202 24.0599C62.4312 23.3427 62.0911 22.6801 61.5603 22.1896C61.0295 21.699 60.3421 21.4122 59.6201 21.3799H59.4401C58.6495 21.3737 57.8869 21.6728 57.3112 22.2149C56.7356 22.757 56.3915 23.5003 56.3503 24.2899C56.3003 24.9899 56.2902 25.6799 56.2902 26.3799V26.8699C56.3351 28.3786 55.8462 29.8547 54.9096 31.0382C53.973 32.2218 52.6487 33.0368 51.1701 33.3399C50.8397 33.4013 50.5057 33.4414 50.1701 33.46C49.7501 33.46 49.3301 33.5399 48.9201 33.6099C47.7667 33.7857 46.6974 34.318 45.8618 35.1321C45.0261 35.9463 44.466 37.0016 44.2602 38.15C44.2102 38.39 44.1601 38.57 44.1201 38.7L43.5002 38.5599C42.7675 38.3953 42.0872 38.0515 41.52 37.5594C40.9528 37.0672 40.5164 36.4421 40.2502 35.7399C40.0219 35.1196 39.6396 34.5674 39.1394 34.1354C38.6391 33.7033 38.0371 33.4056 37.3901 33.27C35.0723 32.8225 32.9916 31.56 31.5241 29.711C30.0567 27.862 29.2995 25.5487 29.3901 23.1899V22.4299C30.1697 23.9624 31.3617 25.247 32.8315 26.1392C34.3013 27.0313 35.9908 27.4956 37.7102 27.4799C39.2824 27.4764 40.8326 27.1103 42.2402 26.4099C44.1747 25.5257 45.8065 24.0919 46.9321 22.2871C48.0577 20.4823 48.6274 18.3862 48.5703 16.2599C48.656 13.5709 49.6541 10.9911 51.4006 8.9447C53.1471 6.8983 55.538 5.50713 58.1801 4.99994L58.5402 4.91992H62.6701C65.473 5.39706 68.1263 6.52005 70.4201 8.19995C73.8414 10.7545 76.1761 14.5029 76.9602 18.7C76.9455 19.3373 77.1562 19.9595 77.5549 20.457C77.9536 20.9545 78.5148 21.2954 79.1401 21.4199L79.3701 21.4699H79.6901C80.1347 21.4568 80.5709 21.3451 80.967 21.1428C81.3631 20.9404 81.7091 20.6525 81.9802 20.2999C82.1475 20.1288 82.3013 19.9449 82.4401 19.7499C82.4401 22.2199 82.4401 24.68 82.4401 27.15C82.4192 28.4602 81.9967 29.7323 81.2294 30.7946C80.4622 31.8569 79.3873 32.6581 78.1501 33.0899C77.4142 33.2099 76.7428 33.5816 76.2504 34.1415C75.758 34.7014 75.4752 35.4147 75.4501 36.1599C75.4131 36.8928 75.6143 37.6181 76.0234 38.2273C76.4325 38.8365 77.0277 39.297 77.7202 39.5399L77.8403 39.5899C80.3477 40.7114 82.6652 42.2161 84.7102 44.0499C86.9802 46.1499 87.9302 48.32 87.7102 50.89C87.5476 51.7209 87.6239 52.5808 87.9301 53.3702C88.2363 54.1595 88.7598 54.8459 89.4401 55.3499V76.8699C89.4401 77.8699 89.4401 78.8699 89.4401 79.9399C89.4401 81.0099 89.3702 81.0099 89.3002 81.0699C88.731 81.5177 88.332 82.1469 88.1701 82.8528C88.0082 83.5588 88.0929 84.2989 88.4101 84.95L92.7202 97.8799C92.7802 98.0599 92.8203 98.1899 92.8503 98.2999C92.7472 98.3691 92.6403 98.4325 92.5302 98.4899L69.8103 111.49C69.5903 111.62 69.3801 111.75 69.1601 111.9L68.7902 111.87Z" fill="#000F2A"/>
<path d="M62.9202 2.53003C66.1788 3.04817 69.2653 4.34109 71.9202 6.30005C75.8346 9.2349 78.4984 13.5378 79.3802 18.35C79.3802 18.61 79.3003 19.0001 79.6803 19.0801C80.0603 19.1601 80.1702 18.8201 80.3702 18.6201C80.8779 17.9952 81.1724 17.2243 81.2103 16.42C81.214 16.1699 81.2705 15.9234 81.3758 15.6966C81.4812 15.4697 81.6332 15.2676 81.8219 15.1035C82.0106 14.9393 82.2318 14.8167 82.471 14.7438C82.7103 14.6708 82.9621 14.6491 83.2103 14.6801C83.4571 14.6876 83.6998 14.7469 83.9222 14.8543C84.1446 14.9617 84.3419 15.1146 84.5013 15.3033C84.6607 15.4919 84.7785 15.712 84.8473 15.9492C84.916 16.1864 84.934 16.4354 84.9002 16.6801C84.9002 20.1701 84.9002 23.6801 84.9002 27.1501C84.8729 28.9433 84.2967 30.685 83.2489 32.1404C82.2011 33.5959 80.7322 34.6952 79.0404 35.29C78.5504 35.47 77.9502 35.45 77.9102 36.29C77.8702 37.13 78.4302 37.2901 78.9102 37.4901C81.6322 38.7164 84.1485 40.3557 86.3702 42.35C88.9402 44.73 90.4304 47.5301 90.1104 51.1301C90.0204 52.1301 89.9903 53.1301 91.2103 53.6401C91.9003 53.9401 91.8504 54.7901 91.8504 55.4901V75.67C91.8504 77.09 91.8504 78.5101 91.8504 79.9301C91.9436 80.4738 91.9011 81.0321 91.7266 81.5555C91.5522 82.0788 91.2512 82.551 90.8504 82.9301C90.3404 83.3401 90.6103 83.86 90.7703 84.34C92.197 88.62 93.6237 92.8934 95.0504 97.16C95.6604 99 95.4404 99.6001 93.7804 100.55L71.0604 113.55C70.6904 113.77 70.3303 114.03 69.9703 114.27H68.2303C64.8003 112.27 61.3803 110.27 57.9503 108.27C53.3803 105.64 48.8003 103.04 44.2203 100.42C42.8103 99.62 42.5604 98.93 43.0804 97.35C44.5004 93.07 45.9202 88.79 47.3702 84.53C47.6502 83.73 47.7303 83.08 46.9903 82.53C46.7574 82.3244 46.5756 82.0673 46.4593 81.7792C46.343 81.491 46.2954 81.1798 46.3204 80.8701C46.3204 72.2901 46.3204 63.7101 46.3204 55.1301C46.2782 54.7467 46.3616 54.36 46.5582 54.0281C46.7548 53.6963 47.0537 53.4372 47.4102 53.29C48.0102 53.05 48.0604 52.6201 48.0704 52.0801C47.9532 50.5199 48.0574 48.951 48.3802 47.42C49.2581 44.9721 50.8501 42.8438 52.9503 41.3101C54.8709 39.7463 56.9975 38.4541 59.2703 37.47C59.6064 37.3563 59.8912 37.1272 60.0743 36.8232C60.2574 36.5193 60.3269 36.1603 60.2703 35.8101C60.2703 32.3601 60.2703 28.9001 60.2703 25.4501C60.2852 25.1159 60.2684 24.7811 60.2203 24.4501C60.2157 24.2656 60.1424 24.0896 60.0147 23.9564C59.8871 23.8232 59.7144 23.7425 59.5304 23.73C59.4288 23.7203 59.3261 23.7319 59.2293 23.7642C59.1325 23.7964 59.0437 23.8487 58.9683 23.9175C58.893 23.9863 58.8328 24.0701 58.7918 24.1635C58.7508 24.257 58.7298 24.358 58.7303 24.4601C58.6703 25.2601 58.7303 26.06 58.6803 26.86C58.718 28.8986 58.0451 30.8868 56.7769 32.4834C55.5088 34.08 53.7245 35.1854 51.7303 35.61C50.9603 35.79 50.1404 35.77 49.3604 35.91C48.6685 35.9966 48.0239 36.3075 47.5255 36.7951C47.027 37.2827 46.7021 37.9202 46.6004 38.61C46.0904 40.98 45.2802 41.4501 42.9102 40.8C41.8251 40.5429 40.8192 40.0252 39.9793 39.2916C39.1395 38.558 38.4911 37.6307 38.0904 36.59C38.0032 36.3188 37.8433 36.0766 37.6283 35.8898C37.4132 35.7029 37.151 35.5785 36.8702 35.53C34.0445 34.9513 31.5144 33.3925 29.7266 31.129C27.9389 28.8655 27.0088 26.0429 27.1004 23.16C27.1004 21.56 27.1004 19.96 27.1004 18.36C27.0757 18.1246 27.0989 17.8865 27.1688 17.6603C27.2387 17.4341 27.3538 17.2244 27.5072 17.044C27.6605 16.8636 27.8489 16.7161 28.0609 16.6106C28.2728 16.5051 28.5039 16.4436 28.7403 16.4301C28.9842 16.4009 29.2314 16.4224 29.4666 16.4929C29.7019 16.5635 29.9201 16.6817 30.1077 16.8402C30.2953 16.9987 30.4484 17.1942 30.5572 17.4144C30.666 17.6346 30.7283 17.8747 30.7403 18.1201C30.827 19.0569 31.0252 19.9801 31.3304 20.8701C31.7279 21.7725 32.3081 22.5826 33.0348 23.2493C33.7614 23.916 34.6184 24.4247 35.5516 24.7433C36.4848 25.0619 37.474 25.1835 38.4566 25.1003C39.4392 25.0171 40.3939 24.731 41.2603 24.2601C42.7987 23.5606 44.0949 22.4204 44.9849 20.9838C45.875 19.5473 46.3189 17.879 46.2603 16.1901C46.3464 12.9478 47.5436 9.83358 49.6517 7.36871C51.7598 4.90385 54.6508 3.23802 57.8404 2.65009C57.9475 2.62056 58.0512 2.5803 58.1502 2.53003H62.9202ZM88.1602 68.9501V58.8701C88.1602 57.2401 88.1602 57.2401 86.6402 57.6201C81.1669 58.9934 75.7003 60.3634 70.2403 61.73C69.4338 61.9401 68.5869 61.9401 67.7804 61.73C62.2104 60.33 56.6404 58.95 51.0704 57.54C50.2604 57.34 49.8802 57.3601 49.8902 58.3701C49.8902 65.3901 49.8902 72.4101 49.8902 79.4301C49.8813 79.699 49.9305 79.9668 50.034 80.2152C50.1375 80.4636 50.2931 80.687 50.4903 80.8701C54.9703 85.3301 59.4436 89.8067 63.9102 94.3C64.1192 94.5227 64.3743 94.6971 64.6576 94.811C64.9408 94.925 65.2455 94.9759 65.5504 94.9601C67.8404 94.9601 70.1302 94.9601 72.4202 94.9601C72.7618 94.9751 73.1025 94.9137 73.4173 94.7805C73.7322 94.6473 74.0132 94.4456 74.2403 94.1901C78.6203 89.7834 83.0169 85.3867 87.4303 81.0001C87.6777 80.7664 87.8713 80.4817 87.9974 80.1656C88.1235 79.8496 88.1789 79.5098 88.1602 79.17C88.1402 75.78 88.1602 72.3601 88.1602 68.9501ZM31.8104 27.1301C31.6804 27.4401 31.8103 27.61 31.9603 27.79C32.1358 28.1066 32.333 28.4107 32.5504 28.7001C33.3287 29.6879 34.3078 30.4992 35.4232 31.0801C36.5386 31.6611 37.7648 31.9985 39.0203 32.0701C40.6903 32.2301 40.9503 32.5601 41.2303 34.2001C41.3324 35.0757 41.7522 35.8834 42.4102 36.47C42.8102 36.82 43.0802 36.9501 43.4102 36.3301C43.9684 35.0772 44.8751 34.0113 46.0223 33.2595C47.1695 32.5077 48.5087 32.1018 49.8802 32.09C53.1102 31.84 54.8803 29.8301 55.0203 26.5601C55.0203 25.7601 55.0203 24.96 55.0203 24.16C55.058 23.0972 55.4786 22.0838 56.2044 21.3065C56.9303 20.5291 57.9125 20.0403 58.9703 19.9301C60.0833 19.8065 61.2021 20.106 62.1043 20.7693C63.0066 21.4325 63.6263 22.4109 63.8404 23.5101C63.8955 23.9075 63.9154 24.3091 63.9002 24.7101C63.9002 27.9401 63.9002 31.18 63.9002 34.42C63.9002 34.71 63.6903 35.34 64.2703 35.22C65.199 35.0413 66.0955 34.7244 66.9303 34.28C67.5403 33.93 67.1903 33.14 67.2203 32.55C67.2803 31.19 67.9003 30.4201 69.0103 30.4001C70.1203 30.3801 70.9504 31.1701 70.8404 32.5801C70.7304 33.9901 71.1903 34.5801 72.5003 34.8201C72.7176 34.8537 72.9272 34.9247 73.1202 35.03C73.9602 35.46 74.2603 35.24 74.2303 34.28C74.2303 32.83 74.6704 32.33 76.0804 32.1C76.3704 32.1 76.6603 32.0001 76.9403 31.9501C77.9674 31.7738 78.9137 31.2809 79.6471 30.5404C80.3804 29.7999 80.864 28.8489 81.0304 27.8201C81.1818 26.4121 81.2385 24.9956 81.2003 23.5801C81.2003 22.8201 80.9504 22.8201 80.3604 23.0601C79.6601 23.3685 78.9053 23.535 78.1402 23.55C76.6902 23.55 76.1403 23.06 75.9403 21.61C75.8647 19.909 75.5552 18.2266 75.0203 16.61C72.5603 10.45 68.1103 6.87008 61.4303 6.27008C59.7086 6.06385 57.9628 6.30521 56.3617 6.97089C54.7605 7.63656 53.3584 8.70402 52.2904 10.0701C50.6812 12.1612 49.8407 14.7424 49.9102 17.3801C49.6402 24.9101 41.6503 30.5801 34.4703 28.3801C33.4903 28.0401 32.7004 27.5001 31.8104 27.1301ZM70.8104 47.8901V56.4001C70.8104 57.7501 70.8102 57.7501 72.1602 57.4001L83.6903 54.5201C86.3703 53.8401 86.2902 53.84 86.3902 51.1C86.4516 49.875 86.2099 48.6537 85.6866 47.5444C85.1633 46.435 84.3746 45.4718 83.3902 44.7401C79.8174 41.9812 75.795 39.86 71.5003 38.47C70.7003 38.17 70.7603 38.6401 70.7603 39.1501L70.8104 47.8901ZM67.1702 47.98C67.1702 45.08 67.1702 42.1701 67.1702 39.2601C67.1702 38.4401 67.0003 38.2601 66.1702 38.5701C62.7418 39.7802 59.461 41.3736 56.3902 43.3201C53.1502 45.4201 51.0404 48.1 51.5704 52.23C51.6004 52.4457 51.6004 52.6644 51.5704 52.8801C51.4904 53.5901 51.8003 53.88 52.4903 54.1C57.0403 55.22 61.5802 56.3401 66.1202 57.5001C66.9302 57.7101 67.1202 57.5001 67.1202 56.7001C67.1902 53.8001 67.2103 50.87 67.2103 47.98H67.1702ZM67.1702 103.93C67.1702 102.84 67.1702 101.75 67.1702 100.66C67.1702 98.36 67.4403 98.56 65.1702 98.66C64.4744 98.7162 63.7752 98.6079 63.129 98.3439C62.4828 98.0798 61.9077 97.6675 61.4503 97.1401C58.2303 93.7801 54.9004 90.5401 51.6104 87.2501C50.6104 86.2501 50.6103 86.2501 50.1903 87.6301C49.2303 90.4834 48.2771 93.3401 47.3304 96.2001C46.8204 97.7001 46.8302 97.7001 48.1702 98.4601L55.2603 102.46L66.1402 108.68C67.1402 109.23 67.1903 109.18 67.1903 108.03C67.2103 106.69 67.2103 105.31 67.2103 103.93H67.1702ZM70.8104 103.93C70.8104 105.38 70.8104 106.83 70.8104 108.29C70.8104 109.1 71.0303 109.29 71.7503 108.84C77.9503 105.28 84.1602 101.733 90.3802 98.2001C90.5121 98.148 90.6315 98.0685 90.7303 97.9667C90.8291 97.865 90.9052 97.7435 90.9535 97.6101C91.0017 97.4768 91.021 97.3347 91.0101 97.1933C90.9992 97.0519 90.9583 96.9144 90.8902 96.79C89.8202 93.67 88.7503 90.5401 87.7603 87.3901C87.4303 86.3901 87.1303 86.53 86.5203 87.16C83.6103 90.1 80.5903 92.95 77.7703 95.98C76.0703 97.8 74.3603 99.19 71.6903 98.67C71.0303 98.55 70.8004 98.9301 70.8104 99.5701C70.8704 100.98 70.8504 102.44 70.8504 103.87L70.8104 103.93Z" fill="#0088CC"/>
<path d="M84.8203 66.3199C84.8203 67.0499 84.8203 67.7799 84.8203 68.4999C84.8873 69.0113 84.7538 69.5289 84.4482 69.9445C84.1426 70.36 83.6884 70.6414 83.1802 70.7299C78.6802 71.8699 74.1735 73.0032 69.6602 74.1299C69.1215 74.2331 68.5661 74.2057 68.0403 74.0499C63.8203 72.9799 59.5901 71.9399 55.3701 70.8799C53.6201 70.4399 53.2402 69.9499 53.2402 68.1399C53.2402 66.7599 53.2402 65.3799 53.2402 63.9999C53.2402 62.2699 54.2402 61.5199 55.9702 61.9399C59.1802 62.7099 62.4203 63.4199 65.5803 64.3699C67.8305 65.0699 70.2401 65.0699 72.4902 64.3699C75.5902 63.4499 78.7501 62.7599 81.8901 61.9999C83.8901 61.5099 84.7903 62.2399 84.8103 64.2699L84.8203 66.3199ZM68.9102 70.3199C69.0867 70.3297 69.2637 70.3297 69.4402 70.3199L80.5403 67.5499C80.6527 67.5375 80.7607 67.4995 80.8562 67.4388C80.9517 67.3781 81.0319 67.2963 81.0908 67.1997C81.1497 67.1031 81.1857 66.9944 81.196 66.8817C81.2063 66.7691 81.1906 66.6555 81.1501 66.5499C81.0401 65.8799 80.5802 66.1599 80.2202 66.2499C77.0902 67.0199 73.9403 67.7699 70.8203 68.5999C69.6654 68.9199 68.4452 68.9199 67.2903 68.5999C64.1603 67.7699 61.0201 67.0099 57.8801 66.2399C57.5401 66.1599 57.0601 65.8299 56.8801 66.4799C56.7001 67.1299 56.9303 67.4199 57.5403 67.4799C57.6803 67.4799 57.8202 67.5699 57.9602 67.5999L67.9602 70.0999C68.3602 70.2499 68.6802 70.3099 68.9102 70.3599V70.3199Z" fill="#0088CC"/>
<path d="M67.2101 85.44C67.2101 83.52 67.2101 81.5899 67.2101 79.6699C67.2101 78.3199 67.8901 77.5499 69.0101 77.5299C70.1301 77.5099 70.8402 78.29 70.8402 79.63C70.8402 83.51 70.8402 87.3966 70.8402 91.2899C70.8402 92.6199 70.1301 93.3899 68.9901 93.3699C67.8501 93.3499 67.2301 92.5999 67.2101 91.3699C67.1901 89.3699 67.2101 87.41 67.2101 85.44Z" fill="#0088CC"/>
<path d="M60.2306 82.8701C60.2306 81.2301 60.2306 79.6 60.2306 77.97C60.2306 76.65 60.9606 75.8301 62.0506 75.8301C63.1406 75.8301 63.8507 76.65 63.8607 77.97C63.8607 81.23 63.8607 84.4967 63.8607 87.7701C63.8607 89.1101 63.1706 89.8801 62.0506 89.8801C60.9306 89.8801 60.2406 89.1101 60.2306 87.7701C60.2106 86.1401 60.2306 84.5001 60.2306 82.8701Z" fill="#0088CC"/>
<path d="M77.8309 82.9301C77.8309 84.5701 77.8309 86.2001 77.8309 87.8301C77.8309 89.1001 77.1309 89.8301 76.0609 89.8301C74.9909 89.8301 74.2008 89.0801 74.2008 87.7601C74.2008 84.4601 74.2008 81.15 74.2008 77.85C74.1702 77.5959 74.1926 77.3382 74.2667 77.0931C74.3408 76.8481 74.4651 76.6211 74.6315 76.4266C74.7978 76.232 75.0027 76.0741 75.2333 75.9628C75.4638 75.8515 75.715 75.7893 75.9708 75.78C77.0508 75.78 77.8109 76.5801 77.8309 77.8701C77.8509 79.5901 77.8309 81.2601 77.8309 82.9301Z" fill="#0088CC"/>
<path d="M56.8803 78.5799C56.8803 79.3699 56.8803 80.1699 56.8803 80.9699C56.8997 81.216 56.8679 81.4634 56.7866 81.6965C56.7052 81.9296 56.5762 82.1432 56.4079 82.3237C56.2395 82.5043 56.0356 82.6479 55.8088 82.7454C55.582 82.8428 55.3374 82.8921 55.0905 82.8899C54.8445 82.9017 54.5987 82.8613 54.3693 82.7716C54.1399 82.6819 53.9322 82.5448 53.7595 82.3692C53.5867 82.1936 53.4529 81.9836 53.3669 81.7528C53.2809 81.522 53.2447 81.2756 53.2604 81.0299C53.2604 79.3299 53.2604 77.6199 53.2604 75.9099C53.2448 75.6636 53.281 75.4169 53.3669 75.1856C53.4528 74.9543 53.5864 74.7437 53.759 74.5674C53.9315 74.3911 54.1392 74.2529 54.3686 74.1621C54.598 74.0712 54.844 74.0296 55.0905 74.0399C55.3365 74.0407 55.5797 74.0919 55.8051 74.1904C56.0305 74.2889 56.2333 74.4325 56.4011 74.6124C56.5688 74.7924 56.6977 75.0048 56.7802 75.2365C56.8627 75.4683 56.8967 75.7145 56.8803 75.9599C56.8803 76.3999 56.8803 76.8299 56.8803 77.2699V78.5799Z" fill="#0088CC"/>
<path d="M81.1808 78.4699C81.1808 77.6299 81.1808 76.7999 81.1808 75.9599C81.1629 75.7141 81.196 75.4673 81.2779 75.2349C81.3598 75.0025 81.4888 74.7895 81.6568 74.6093C81.8249 74.429 82.0284 74.2854 82.2545 74.1875C82.4806 74.0895 82.7244 74.0392 82.9708 74.0399C83.2173 74.0296 83.4634 74.0712 83.6927 74.1621C83.9221 74.2529 84.1298 74.3911 84.3023 74.5674C84.4749 74.7437 84.6083 74.9543 84.6942 75.1856C84.7801 75.4169 84.8165 75.6636 84.8009 75.9099C84.8009 77.6199 84.8009 79.3199 84.8009 81.0299C84.8166 81.2756 84.7802 81.522 84.6942 81.7528C84.6082 81.9836 84.4746 82.1936 84.3019 82.3692C84.1291 82.5448 83.9214 82.6819 83.692 82.7716C83.4626 82.8613 83.2168 82.9017 82.9708 82.8899C82.7239 82.8921 82.4794 82.8428 82.2525 82.7454C82.0257 82.6479 81.8218 82.5043 81.6534 82.3237C81.4851 82.1432 81.3561 81.9296 81.2748 81.6965C81.1934 81.4634 81.1613 81.216 81.1808 80.9699C81.1608 80.1399 81.1808 79.2999 81.1808 78.4699Z" fill="#0088CC"/>
</svg>
